<svg xmlns="http://www.w3.org/2000/svg" baseProfile="tiny-ps" viewBox="0 0 2419 2146" xmlns:v="https://vecta.io/nano"><style><![CDATA[.C{fill:#252525}.D{fill:#f7f7f7}.E{fill-rule:evenodd}]]></style><path d="M892.93 1510.02c.31.01 1.69.9 3.07 1.98s3.06 1.97 3.75 1.98 1.14.44 1.01.94c-.13.51 1.52 1.97 3.67 3.25s5.12 4.13 6.61 6.33 3.46 6.25 4.39 9c.92 2.75 1.72 7.25 1.76 10s-.67 7.47-1.6 10.5c-.92 3.03-3.34 7.71-5.38 10.42-2.58 3.42-5.69 5.96-10.21 8.32-4.63 2.43-8.37 3.57-13 4-5.28.48-7.72.16-13-1.71-3.58-1.27-9.2-4.37-12.5-6.9l-6.25-4.86c-.14-.15 2.24-3.76 5.28-8.02l9.64-13.75 13.16-18.75c4.97-7.01 9.29-12.74 9.61-12.73zm659.32-196.93c.41-.05.75.25.74.66 0 .41-4.17 5.47-9.26 11.25s-15.84 16.8-23.9 24.5-17.71 16.47-21.45 19.5-9.3 7.25-12.34 9.38c-3.05 2.13-5.76 4.18-6.04 4.56-.28.37-4.1 3.13-8.5 6.12s-8.11 5.78-8.25 6.19-.81.76-1.5.78-3.95 1.79-7.25 3.95-6.45 4.3-7 4.75c-.55.46-9.55 5.11-20 10.34l-25 12.13c-3.3 1.44-10.05 4.17-15 6.08-4.95 1.9-14.63 5.27-21.5 7.48l-18 5.64c-3.03.89-7.97 2.03-11 2.52a166.33 166.33 0 0 0-11.5 2.43c-3.3.84-9.15 2.06-13 2.72s-8.8.89-11 .53c-2.85-.48-4.65-.23-6.25.86-1.24.84-5.29 2.01-9 2.59s-10.13 1.3-14.25 1.59c-4.13.29-18.08.52-31 .49-12.92-.02-26.88-.25-31-.51-4.13-.26-14.03-1.42-22-2.59-7.97-1.16-17.88-2.8-22-3.64l-16-3.4c-4.67-1.04-16.04-4.16-25.25-6.94s-18.44-5.78-24.25-8.25l2.5-.98c1.38-.54 8.13-2.48 15-4.32l20.5-5.49 17.5-4.65 17-4.5 16.5-4.53 18-4.87 19-5 39.5-10.62 37-9.99 14.5-3.84 21-5.48 26-6.98 22.5-6 17.5-4.67 14.5-4c4.13-1.11 9.3-2.42 11.5-2.91 2.2-.48 8.05-2.05 13-3.47l20-5.51 26-6.94 38.5-10.45 24.25-6.53z" class="C"/><path d="M1263.41 1448.08c.5-.04 1.02.71 1.16 1.67s.07 2.76-.16 4c-.22 1.24-.74 2.26-1.16 2.27-.41.01-1.32-.55-2.02-1.25s-1.35-2.24-1.45-3.43.47-2.39 1.27-2.67 1.86-.54 2.36-.58zm128.96-84.02c1.17.36 2.25 1.62 2.39 2.8.17 1.43-.41 2.31-1.75 2.64-1.1.28-2.9.05-4-.5s-2.11-1.87-2.24-2.93c-.15-1.2.46-2.07 1.61-2.3 1.02-.21 2.82-.08 3.99.29z" class="D"/><path d="M1977.63 1199c.89 0 1.21 1.18 1 3.75-.16 2.06-1.5 9.15-2.97 15.75s-3.09 13.35-3.6 15-2.09 7.61-3.5 13.25l-2.56 10.75c0 .28-1.13.95-2.5 1.5-1.38.55-2.78 1.79-3.12 2.75s-.01 2.79.75 4.07c1.17 1.97 1.16 3.1-.01 7.5-.76 2.85-3.31 10.81-5.66 17.68-2.35 6.88-6.94 19.47-10.2 28s-6.44 16.4-7.07 17.5-2.57 5.83-4.32 10.5-6.04 14.58-9.54 22-6.36 14.29-6.35 15.25-.32 1.86-.73 2-4.08 6.78-8.16 14.75-9.95 19-13.06 24.5-8.95 15.4-12.99 22-11.86 18.75-17.37 27l-13.3 20c-1.8 2.75-3.63 5.45-4.06 6-.44.55-2.15 2.93-3.8 5.29s-3.34 4.27-3.75 4.25-.75.41-.75.96-3.64 5.39-8.08 10.75l-9.79 11.75c-.94 1.1-3.49 4.25-5.66 7s-9.2 10.85-15.62 18a927.94 927.94 0 0 1-24.51 26.02c-7.06 7.16-16.22 16.16-20.36 20l-12.3 11.48c-3.89 3.66-5.66 4.6-9.48 5.03-2.58.29-4.62.97-4.52 1.5s.47 1.65.82 2.47c.36.83.02 2.17-.74 3s-3.16 2.94-5.32 4.71l-10.93 8.73c-6.74 5.31-7.03 5.44-7.78 3.29-.43-1.23-.65-3.14-.5-4.26s1.07-3.26 2.03-4.75 2.31-2.72 3-2.73 2.71-1.02 4.49-2.25 3.25-2.57 3.25-2.98-1.91-.48-4.24-.15c-2.34.33-6.05 1.39-8.25 2.35-2.2.97-4.9 2.77-6 4.02-1.1 1.24-3.13 2.67-4.5 3.16-1.8.65-3.13.48-4.75-.61-1.24-.83-2.25-2.42-2.25-3.52s-.69-2.34-1.54-2.75c-.84-.41-2-.3-2.58.25-.72.69-.55 2.01.54 4.25 1.09 2.26 3.03 3.88 6.33 5.33 2.61 1.14 5.08 2.61 5.48 3.25s.73 3.2.73 5.67c-.01 4.08-.45 4.91-4.73 8.85-2.6 2.39-9.45 7.52-15.23 11.4l-22.5 15.07c-6.6 4.41-19.65 12.6-29 18.19l-23.5 13.71c-3.58 1.95-11.9 6.25-18.5 9.57l-24 11.71c-6.6 3.12-18.08 8.15-25.5 11.19l-16.5 6.88c-1.65.75-6.83 2.77-11.5 4.5s-14.35 5.08-21.5 7.45l-26 8.38c-7.15 2.24-17.5 5.24-23 6.66l-20.5 5.06c-5.78 1.35-18.15 3.99-27.5 5.85s-22.63 4.3-29.5 5.41c-6.88 1.11-20.15 2.92-29.5 4.01s-24.88 2.48-34.5 3.08l-30 2.08c-8.18.65-21.13.66-37.5.03l-26.5-.94c-.83.01-4.65-.22-8.5-.52l-17.5-1.51-24-2.56c-7.42-.87-20.25-2.72-28.5-4.11l-20-3.41c-2.75-.49-11.97-2.45-20.5-4.36a1125.68 1125.68 0 0 1-31-7.51c-8.53-2.22-19.33-5.23-24-6.69-4.67-1.45-16.15-5.27-25.5-8.48l-23-7.99c-3.3-1.19-7.58-2.85-9.5-3.68l-5.5-2.31c-1.1-.43-4.92-2.13-8.5-3.76s-8.08-3.32-10-3.74-4.63-1.62-6-2.67c-1.38-1.05-2.84-1.89-3.25-1.87s-8.29-3.6-17.5-8.05c-9.21-4.44-22.6-11.25-29.75-15.12s-19.98-11.12-28.5-16.1-24.05-14.77-34.5-21.76-24.41-16.7-31.01-21.58c-6.61-4.87-16.47-12.46-21.93-16.86-5.45-4.4-17.15-14.3-25.99-22s-21.42-19.17-27.95-25.5-18.8-19.04-27.25-28.25-15.38-17.09-15.39-17.5 8.88-3.15 19.75-6.09l26.27-7.13 14.5-3.91 22.5-6.04 39.5-10.59 39.25-10.58c7.84-2.15 14.92-3.91 15.75-3.91.98 0-.92 3.57-5.46 10.25l-8 11.5c-.57.69-1.04 1.7-1.04 2.25s-.34.99-.75.97-4.35 5.26-8.75 11.73l-9 12.82c-.55.58-4.04 5.43-7.75 10.77s-6.77 10.27-6.8 10.96 1.66 2.6 3.75 4.25 5.14 3.94 6.8 5.08l14.75 10.25c6.46 4.49 12.2 8.17 12.75 8.17s1.16.56 1.35 1.25 3.46 2.88 7.25 4.88 8.47 4.11 10.4 4.7c1.92.59 5.08 1.35 7 1.71 1.92.35 7.55.88 12.5 1.18 7.2.43 10.7.11 17.5-1.61 4.67-1.18 11.88-3.79 16-5.81 5.93-2.89 9.62-5.77 17.61-13.72 8.48-8.44 10.77-11.43 14.24-18.56 2.28-4.67 4.89-11.42 5.8-15 .99-3.88 1.67-10.53 1.68-16.5.01-5.5-.46-12.47-1.06-15.5-.59-3.03-1.61-6.85-2.25-8.5-.65-1.65-2.01-4.8-3.02-7-1.02-2.2-3.34-6.09-5.17-8.65s-4.99-6.38-7.04-8.5c-2.04-2.12-5.95-5.65-8.68-7.85s-4.88-4.11-4.78-4.25 6.93-2.09 15.18-4.34l17.5-4.58c1.38-.27 3.4-.87 4.5-1.34s3.35-1.08 5-1.34c1.65-.27 4.58-.93 6.5-1.48l16-4.45 26.5-7.25c7.7-2.08 15.8-4.12 18-4.52 3.6-.65 5.26-.11 16.5 5.43 6.88 3.38 15.88 7.59 20 9.34 4.13 1.76 12.22 4.96 18 7.12s15 5.37 20.5 7.14c5.5 1.76 13.15 4.06 17 5.1l13.5 3.44 10 2.46c1.92.5 10.03 2.03 18 3.4s18.33 2.96 23 3.53 14.13 1.52 21 2.09c6.88.58 23.3.89 36.5.7s24.45-.61 25-.92c.55-.32 6.85-.87 14-1.23s13.22-.83 13.5-1.04 2.75-.65 5.5-.97c2.75-.33 9.28-1.28 14.5-2.13 5.22-.84 12.2-2.15 15.5-2.91l17-4.04c6.05-1.46 16.17-4.2 22.5-6.09 6.33-1.88 12.4-3.83 13.5-4.34 1.1-.5 5.15-2.04 9-3.41s11.05-4.14 16-6.15l13.5-5.65c2.47-1.09 9.22-4.29 15-7.1s16.35-8.46 23.5-12.55 15.7-9.28 18.99-11.55c3.3-2.26 6.45-4.34 7-4.62s3.61-2.3 6.8-4.5c3.18-2.2 5.77-4.34 5.75-4.75s.41-.75.96-.75 3.26-1.69 6.01-3.75c2.76-2.06 5.01-4.09 5-4.5s.55-.75 1.24-.74c.69 0 2.83-1.42 4.75-3.17s5.53-4.79 8.01-6.76 6.31-5.12 8.5-7.01 11.88-11.34 21.53-21 18.76-18.35 20.25-19.32c1.49-.96 2.71-2.42 2.71-3.25s3.53-5.89 7.84-11.25 10.32-13.13 13.34-17.25c3.03-4.13 8.16-11.43 11.41-16.24 5.19-7.68 6.4-8.87 9.91-9.78l13.5-3.57 18.5-4.91 29.5-7.86 28-7.57c4.13-1.14 7.84-2.08 8.25-2.08s.26 1.24-.33 2.75-1.99 4.78-3.11 7.25l-4.54 10-5.97 13.5c-1.9 4.4-3.27 8.45-3.03 9s3.53 2.52 7.33 4.37 10.28 4.84 14.4 6.63l13 5.77 10 4.5 24 10.74 26.75 12.12c3.99 1.86 7.47 3.38 7.75 3.38s4.89 2.05 10.25 4.55 10.65 4.8 11.75 5.1c1.45.4 2.62-.31 4.25-2.55 1.24-1.71 2.25-3.33 2.25-3.6 0-.28 1.4-3.54 3.11-7.25l9.4-20.75 9-20 4.1-9.25 2.89-6.75c.83-1.92 1.39-4.26 1.25-5.2-.16-1.12-4.37-3.53-12.25-7.05-6.6-2.95-12.85-5.22-13.88-5.05-1.36.22-3.52 4.04-7.81 13.8l-9.37 20.75c-1.89 3.99-4 7.26-4.69 7.28-.69.01-5.64-2.01-11-4.5s-9.75-4.98-9.75-5.53 1.18-3.59 2.62-6.75l5.87-13.25c1.78-4.13 4.32-9.66 5.63-12.3 2.11-4.24 2.21-4.96.88-6.16-.83-.75-6.67-3.66-13-6.48s-12.38-4.99-13.46-4.84c-1.08.16-2.74 1.86-3.7 3.78s-3.84 8.22-6.39 14l-6.55 14.75c-1.05 2.34-2.36 4.25-2.91 4.25s-4.94-1.84-9.75-4.09l-9.03-4.25c-.15-.09 1.76-4.55 4.25-9.91s4.53-9.97 4.53-10.25 1.35-3.42 3-7c2.5-5.42 3.54-6.66 6.25-7.45 1.79-.52 6.17-1.67 9.75-2.55 4.62-1.14 7.22-1.32 9-.63 1.38.53 3.53.67 4.79.3s2.5-1.46 2.75-2.42c.3-1.16 2.72-2.42 7.21-3.73 3.71-1.09 7.54-1.99 8.5-2s1.97-.47 2.25-1.02 2.19-1.17 4.25-1.37 8.03-1.53 13.25-2.95l20.5-5.69 12.75-3.55c1.09-.28 1.75.13 1.75 1.06 0 .83.9 1.95 2 2.5 1.78.89 2 .67 2-2 0-2.77.41-3.11 5.25-4.45l22.75-6 28.5-7.58 20-5.41 21-5.56c6.6-1.75 12.19-3.36 12.42-3.59s1-.41 1.72-.41z" class="C"/><path d="M1300.39 1788.89c.61.54 4.48 1.13 16.11 1.61l-4 1.83c-2.2 1.01-5.35 2.08-7 2.38-2.39.44-3.46.02-5.25-2.08-1.24-1.45-1.96-3.1-1.61-3.68.43-.69 1.02-.71 1.75-.06zm-165.14-13.92c.69-.02 1.81 1.11 2.5 2.5 1 2.02 1 2.66 0 3.18-.69.36-1.82-.2-2.52-1.25s-1.26-2.46-1.25-3.15.58-1.26 1.27-1.28zm-2.75-10.97c.83 0 2.65.56 4.05 1.25s2.41 1.92 2.23 2.75c-.17.83-1.21 1.64-2.3 1.8-1.09.17-2.79-.51-3.77-1.5s-1.77-2.36-1.75-3.05.71-1.25 1.53-1.25zm-32.08-16.08l1.79 3.04c.98 1.67 1.8 3.38 1.81 3.79s1.7 3.35 3.75 6.52c2.05 3.18 4.63 6.01 5.73 6.31 1.1.29 3.24.06 4.75-.52 2.24-.86 3.05-.74 4.37.69 1.51 1.63 1.41 1.94-1.5 4.5-2.52 2.22-4.09 2.75-8.12 2.75-4.43 0-5.44-.43-8.86-3.75-2.12-2.06-4.37-4.76-5-6s-1.22-4.16-1.31-6.5.45-5.73 1.21-7.54l1.38-3.29zm366.76-13.01c1.04.32 1.72 1.04 1.52 1.59s-1.56 1.11-3.03 1.25c-1.69.16-2.75-.27-2.87-1.17-.11-.78.41-1.61 1.15-1.84s2.2-.16 3.23.17zm-361.68-4.82c.55-.03 1.5.27 2.1.67.61.4 1.6 1.63 2.21 2.73.82 1.48.81 2.33-.05 3.25-.64.69-1.86 1.24-2.71 1.22-.85-.01-2.35-.8-3.33-1.75s-1.86-2.47-1.95-3.39.49-1.89 1.28-2.17c.8-.28 1.9-.53 2.45-.57zm-80.03-21.43c.84.32 1.45 1.95 1.48 3.94.03 2.37-.41 3.39-1.45 3.39-.83 0-1.95-1.24-2.51-2.75-.68-1.86-.68-3.13.02-3.94.56-.65 1.67-.94 2.46-.64zm328.53-9.22c.83.22 3.08.7 5 1.05 2.11.39 3.1.99 2.5 1.51-.55.47-3.24 1-5.98 1.18-3.88.25-4.99-.01-5.03-1.18-.03-.83.41-1.83.98-2.23s1.71-.55 2.53-.32zm-228.41-122.7c2.15.2 10.21 1.21 17.91 2.24l23 2.99c4.95.62 12.6 2.05 17 3.19 4.97 1.28 10.05 3.44 13.41 5.7 2.98 2 7.64 6.11 10.35 9.14 2.72 3.03 6.21 8.2 7.77 11.5s3.3 8.03 3.87 10.5 1.05 8.66 1.06 13.75c.02 7.17-.49 10.66-2.25 15.5-1.25 3.44-3.58 8.5-5.17 11.25-1.6 2.75-5.42 7.47-8.5 10.5s-8.29 6.92-11.58 8.65-8.45 3.69-11.47 4.37c-3.51.78-9.12 1-15.5.62l-23.5-1.63.01 3.25c0 1.79-.42 5.72-.94 8.75s-1.43 9.44-3.06 23l-3.75.25c-2.06.14-5.78-.04-8.25-.4l-13.25-1.75c-7.1-.89-8.94-1.48-9.75-3.1-.55-1.1-.78-3.13-.5-4.5.47-2.33.23-2.5-3.5-2.5-3 0-4.25-.5-5-2-.71-1.42-.63-2.45.25-3.54.69-.85 2.04-1.52 3-1.5s2.65.49 3.75 1.04 2.19.89 2.42.75.8-4.19 1.25-9.01c.82-8.66.8-8.76-1.42-8.75-1.47.01-2.26-.6-2.27-1.74-.01-1.12 1.06-2.02 3-2.5 2.59-.64 3.02-1.22 3.03-4 0-1.79.44-5.72.97-8.75s1.45-10 2.06-15.5l2.09-17.5 1.92-13.5c.51-3.3 1.14-8.25 1.41-11 .26-2.75 1.17-10.17 2-16.5.84-6.33 1.49-12.26 1.46-13.18s.57-2.3 1.34-3.06c.88-.86 2.88-1.24 5.32-1.01zm94.8 97.25c4.33 0 5.62.34 5.62 1.5 0 1.17-1.13 1.45-5.17 1.25-3.03-.15-5.36-.77-5.62-1.5-.32-.9 1.11-1.25 5.17-1.25zm-142.91-9.33c.79.3 1.46.95 1.48 1.44.03.49-.4 1.12-.95 1.39-.55.28-1.67.28-2.5 0-1.09-.36-1.22-.89-.48-1.94.56-.79 1.66-1.19 2.45-.89zm654.53-52.69c.83-.01 2.33.56 3.34 1.26 1.71 1.18 1.57 1.46-2 3.91-2.79 1.91-4.32 2.4-5.59 1.75-.96-.49-1.81-1.54-1.88-2.33s.94-2.15 2.25-3.01 3.06-1.57 3.88-1.57zm-4.44-22.15c.66.66 1.14 2.1 1.07 3.2s-.58 2.01-1.13 2.02-1.03-1.43-1.07-3.2c-.05-2.49.2-2.94 1.13-2.02zm-967.75-2.83c.93-.01 3.72.71 6.2 1.58 3.7 1.31 5.16 1.39 8.18.41 2.03-.65 5.29-.91 7.25-.58 2.24.38 3.57 1.16 3.57 2.1 0 .83-1.24 1.99-2.75 2.59-1.75.69-6.56.87-13.25.47-5.77-.34-10.87-.94-11.33-1.34-.45-.4-.54-1.73-.2-2.97.35-1.24 1.39-2.26 2.33-2.26zm512.36-1.99c1.01 0 2.73.45 3.83 1 1.51.75 1.97 1.92 1.87 4.75-.07 2.06.11 5.33.39 7.25s.78 5.97 1.11 9 .86 9.1 1.17 13.5.72 8.22.91 8.5.61 5.79.94 12.25.79 12.09 1.01 12.5.7 5.25 1.05 10.75.96 12.92 2.05 23l7-.21c3.85-.12 14.2-.85 23-1.62 8.8-.78 16.45-1.25 17-1.04.55.2 1.54 4.08 2.19 8.62.75 5.22 1.75 8.62 2.71 9.26.84.55 1.54 1.56 1.56 2.25s-.75 1.5-1.71 1.8c-1.54.49-1.66 1.37-1 7.5.56 5.18.43 7.12-.5 7.6-.69.36-4.63.81-8.75 1-4.13.19-9.75.77-12.5 1.29s-16.25 1.88-30 3.02l-28.25 2.06c-2.24-.01-3.4-.56-3.73-1.76-.27-.96-.97-7.83-1.57-15.25l-1.77-19.66c-.38-3.39-.91-6.33-1.18-6.54l-6-4.43c-3.03-2.23-6.51-4.57-7.75-5.21s-3.38-1.16-4.75-1.16c-1.83 0-2.5-.53-2.5-2 0-1.6.66-1.99 3.25-1.97 1.79.02 6.4 1.55 10.25 3.41s7.07 3.31 7.16 3.22-.51-8.03-1.33-17.66l-1.81-23c-.18-3.03-1.04-12.92-1.92-22l-2.14-20c-.33-2.11-.03-4.22.75-5.32 1-1.4 3.03-1.92 8.79-2.27l12.84-.77c2.94-.18 5.6-.62 5.92-.98s1.4-.66 2.41-.66zm454.08-7.02c.69-.01 1.78.55 2.44 1.25.65.7.99 1.83.75 2.52s-1.34 1.25-2.44 1.25c-1.47 0-2-.67-2-2.5 0-1.38.56-2.51 1.25-2.52zm-553 120.25c.96.42 5.8.77 10.75.77s9.67.22 10.5.5 1.5 1.17 1.5 2-1.01 2.01-2.25 2.62c-1.24.62-5.51 1.07-9.5 1s-9.16-.84-11.5-1.72-5.27-2.11-6.53-2.75c-1.25-.64-2.27-1.49-2.25-1.91.02-.41 1.72-.87 3.78-1.02s4.54.08 5.5.5z" class="D E"/><path d="M1159.84 1613.6c4.23.37 9.46 1.54 11.66 2.61s4.56 1.68 5.25 1.36 2.6.1 4.25.92c1.65.83 4.12 3.41 5.48 5.75s2.49 5.38 2.49 6.75c.01 2.11-.45 2.5-2.97 2.5-1.72 0-2.99.53-2.99 1.25 0 .69 1.36 1.81 3.02 2.5 1.77.73 2.91 1.87 2.74 2.75-.16.83-1.4 1.63-2.77 1.78s-3.5.49-4.74.75c-1.66.35-2.12.99-1.75 2.47.29 1.17 1.33 2 2.5 2 1.11 0 2 .67 2 1.5s-.42 1.5-.93 1.5-1.72.79-2.69 1.75c-1.06 1.05-3.78 1.91-6.82 2.14-2.78.21-9.56-.19-15.06-.9s-10.32-1.56-10.7-1.89c-.39-.33-.3-4.2.19-8.6s1.4-11.15 2.01-15 1.14-8.35 1.19-10c.04-1.65.28-3.35.53-3.78s3.9-.48 8.12-.11z" class="C"/><path d="M1383.33 1566.63c.64.19 4.46 13.3 8.49 29.11l7.84 31.76c.28 1.65 1.17 5.47 1.98 8.5l8.91 34.75 7.45 31c.01 1.2-1.34 2.15-4.25 3.01-2.34.69-9.43 2.56-15.76 4.14-9.64 2.41-11.82 2.67-13.5 1.6-1.44-.91-2.76-4.32-4.71-12.14l-3.17-13.37c-.25-1.38-1.65-7-3.11-12.5l-13.08-51.5-10.43-43.75c0-1.24.79-2.57 1.75-2.95.96-.39 8.2-2.35 16.08-4.36s14.86-3.5 15.5-3.31zm359.98-29.21c.45.17.75 1.15.67 2.19s-1.57 3.34-3.32 5.1c-1.74 1.77-3.51 3.01-3.92 2.75s-.41-1.29 0-2.29 1.88-3.23 3.25-4.94c1.38-1.71 2.87-2.98 3.32-2.81zM999.73 1534c.97 0 6.04 1.6 11.27 3.55 5.22 1.96 11.86 4.66 14.75 6 4.06 1.89 5.25 2.96 5.25 4.7 0 1.24-1.33 5.63-2.94 9.75-2.25 5.76-2.66 7.76-1.75 8.62.65.62 2.54 1.55 4.19 2.09 1.74.56 4.36.62 6.25.13 1.79-.46 4.04-1.98 5-3.38s2.88-2.94 4.25-3.42c1.88-.66 3.86-.26 8 1.62 3.03 1.37 5.82 3.02 6.2 3.67.43.71 1.36-.4 2.36-2.83.91-2.2 2.17-4.33 2.8-4.73s2.04-.48 3.14-.19c1.1.3 2.9.92 4 1.38s4.7 1.83 8 3.04 8.47 3.21 11.5 4.45c3.58 1.47 5.61 2.92 5.81 4.15.17 1.04-4.03 13.15-9.33 26.9l-16.04 41.5c-3.52 9.08-7.87 18.72-9.67 21.43s-5.3 6.94-7.77 9.39-6.75 5.88-9.5 7.63-7.47 4.17-10.5 5.39-6.2 2.2-7.05 2.19-1.98.41-2.5.94c-.61.61-4.58.58-10.95-.08-5.5-.57-12.47-1.99-15.5-3.14-3.03-1.16-7.3-3.12-9.5-4.35-2.2-1.24-6.76-5.09-10.13-8.56s-7.51-9.01-9.2-12.31-3.76-8.92-4.61-12.5-1.53-9.65-1.52-13.5.62-9.47 1.35-12.5 3.22-10.45 5.54-16.5l5.04-13c.46-1.1 2.2-5.6 3.87-10l9.65-25.5 7.54-19.75c.51-1.24 1.72-2.25 2.69-2.25z" class="D"/><path d="M1059.43 1570.37c.06.18-1.41 4.56-3.26 9.73l-5.69 15.4-6.52 17-8.1 21c-3.13 7.99-4.56 10.43-7.14 12.12-1.78 1.16-4.8 2.58-6.73 3.15-1.92.57-5.08.72-7 .33s-4.96-1.69-6.75-2.9-3.99-3.66-4.9-5.45-1.68-5.5-1.72-8.25c-.04-2.85.84-7.37 2.05-10.5l9.93-25.5 5.64-1.5c3.1-.83 6.22-2.06 6.94-2.74 1.06-1.01.84-1.71-1.2-3.78-1.38-1.4-2.95-2.53-3.5-2.53-.55.01-1.58-.32-2.3-.72-1.02-.58-1.05-1.36-.13-3.73.64-1.65 1.68-4 2.3-5.22 1.12-2.21 1.13-2.21 4.88 1.25 2.06 1.91 4.31 3.47 5 3.47s6.88-2.08 13.75-4.64c6.88-2.55 12.91-5.03 13.42-5.49.5-.47.96-.7 1.02-.51z" class="C"/><path d="M1023.46 1635.2c2.3.23 3.1.84 3.29 2.55.16 1.42-.49 2.62-1.75 3.25-1.1.55-2.9.78-4 .5-1.21-.3-2.07-1.42-2.17-2.83-.09-1.28.23-2.65.71-3.05.48-.39 2.25-.58 3.92-.42zm473.04-106.78a99.82 99.82 0 0 1 21.69 3.08l-.49 4-.87 5.5-4.36 13.25c-2.19 6.46-4.43 11.91-4.98 12.11s-3.47.01-6.5-.42-7.3-.52-9.5-.22c-2.2.31-6.03 1.62-8.5 2.91s-6.31 4.04-8.52 6.1-5.12 6-6.47 8.75c-1.67 3.41-2.58 7.23-2.85 12-.36 6.29-.05 7.76 3.01 14.5 1.99 4.38 5.1 9.16 7.48 11.5 2.24 2.2 6.05 4.98 8.46 6.19 2.41 1.2 6.86 2.5 9.89 2.88 3.35.42 7.45.22 10.5-.52 2.75-.67 7.47-2.9 10.5-4.95 3.21-2.18 6.95-5.93 9-9.03 3.18-4.81 3.78-5.25 6.5-4.78 1.65.28 8.96 2.81 16.25 5.61 9.98 3.84 13.37 5.59 13.75 7.1.3 1.2-1.21 5.24-3.75 10.07-2.34 4.44-6.15 9.95-8.48 12.25-2.91 2.88-4.24 5.04-4.25 6.93-.01 1.54-.68 2.97-1.52 3.25-.83.28-1.95.28-2.5 0s-4.71 1.48-9.25 3.9-10.72 5.11-13.75 5.97c-3.31.95-10.07 1.64-17 1.75-6.37.1-13.51-.36-16-1.02-2.47-.66-6.97-2.16-10-3.34s-7.75-3.5-10.5-5.16-7.39-5.06-10.32-7.56-7.03-6.8-9.11-9.55c-2.09-2.75-5.4-7.92-7.37-11.5s-4.59-10.33-5.84-15c-1.68-6.33-2.25-11.19-2.23-19 .02-6.6.67-12.91 1.74-17 .94-3.58 3.59-10.33 5.89-15 3.27-6.66 5.92-10.24 12.21-16.51 5.74-5.72 10.31-9.21 16.03-12.2 4.4-2.31 10.92-4.87 14.5-5.7 4.36-1.01 10.13-1.39 17.5-1.17zm-416-8.29c.55-.08 2.13.64 6 3.34l-4 .63c-2.2.35-4.79.47-5.75.27s-1.75-1.04-1.75-1.86c0-.83 1.01-1.66 2.25-1.86l3.25-.51zm112-7.78c.55.17 1 1.17 1 2.22s-.79 2.02-1.75 2.17-2.09-.45-2.5-1.32c-.47-1-.19-1.92.75-2.48.83-.49 1.95-.75 2.5-.58zm593.9-1.37c.61-.01 2 .64 3.1 1.44 1.6 1.17 1.78 1.82.9 3.27-.61.99-2.07 1.92-3.25 2.06-1.72.2-2.05.75-1.65 2.75.38 1.89-.05 2.77-1.75 3.61-1.24.61-3.94.83-6 .5s-3.76-1.17-3.77-1.86.53-1.81 1.2-2.5 2.36-1.26 3.77-1.27c1.4-.01 3.22-.44 4.05-.96 1.2-.75 1.25-1.21.26-2.23-.99-1.03-.9-1.65.4-3.04.9-.96 2.13-1.76 2.74-1.77zm-385.33-6.98c1.06 0 2.12.34 2.36.75s.13 1.32-.25 2.03c-.38.7-1.96 1.38-3.51 1.5-1.56.12-3.02-.11-3.25-.53-.23-.41.28-1.42 1.15-2.25.86-.83 2.44-1.5 3.5-1.5zm-438.19-10c1.16 0 2.34.45 2.62 1s.95.78 1.5.5 1-.05 1 .5-1.43.89-3.17.75c-1.75-.14-3.37-.81-3.62-1.5-.26-.75.41-1.25 1.67-1.25zm127.62-2c.28 0 1.4.45 2.5 1s2 1.67 2 2.5-.56 1.51-1.25 1.52-1.82-.55-2.52-1.25-1.26-1.83-1.25-2.52.24-1.25.52-1.25zm760.5-5c1.33 0 2 .67 2 2s-.67 2-2 2-2-.67-2-2 .67-2 2-2zm-267.5-27.99c.55 0 5.28 2.09 10.5 4.65l19.5 9.37 28 13.47 24 11.51 28 13.4 24.5 12.05c1.38.79 2.61 1.79 2.73 2.23.13.44-.1 1.26-.5 1.82s-5.01 4.63-10.23 9.04c-5.22 4.42-10.63 8.8-12 9.74-1.38.94-3.29 1.71-4.25 1.71s-5.01-1.59-9-3.53-7.59-3.51-8-3.5-5.99 4.41-12.39 9.77l-20 16.5c-4.6 3.71-8.59 7.2-8.86 7.75-.28.55.24 3.81 1.15 7.25s1.86 7.83 2.11 9.75c.4 3.02.01 3.88-2.9 6.32-1.85 1.55-6.01 5.15-9.23 8-3.23 2.85-7.39 6.19-9.25 7.43s-3.83 2.25-4.38 2.25-1.45-1.01-1.99-2.25c-.55-1.24-6.17-20.59-12.5-43l-12.53-45.5c-.56-2.61-1.45-5.65-1.98-6.75s-1.93-5.6-3.12-10l-3.1-12c-.52-2.2-1.62-6.03-2.44-8.5s-2.29-7.65-5.01-18.5l3.09-3.42c1.7-1.88 4.44-4.24 6.09-5.25s3.45-1.83 4-1.82z" class="D"/><path d="M1630.27 1517.88l13.73 6.83c.28.25-.88 1.65-2.56 3.12l-8.92 7.67c-3.23 2.75-6.33 5-6.9 5s-2.74-6.08-4.82-13.5-3.78-13.95-3.77-14.5 5.96 1.87 13.24 5.38z" class="C"/><path d="M1877.63 1418c.72 0 1.16 1.14 1.05 2.75-.13 2.05-.76 2.81-2.43 3-1.54.17-2.31-.32-2.45-1.55-.11-.99.43-2.34 1.2-3s1.95-1.2 2.63-1.2zm-182.25-87.37c1.16.37 7.85 4.88 14.86 10.03 7.96 5.83 12.75 10 12.74 11.1-.01.96-1.47 3.62-3.25 5.9s-4.14 5.41-5.24 6.96c-1.1 1.54-2.79 3.61-3.75 4.6s-1.76 2.13-1.78 2.54-1.14 2.21-2.5 4-2.25 3.92-1.97 4.75 2.64 2.94 5.25 4.7 11.09 7.95 18.84 13.75l31.92 23.55c9.81 7.15 19.58 14.58 21.72 16.5s3.64 4.06 3.33 4.75-4.72 6.71-9.81 13.38-9.59 12.3-10 12.5-2.54-.64-4.73-1.88-11.04-7.42-19.66-13.75l-17.29-13c-.89-.83-3.4-2.73-5.59-4.24a254.92 254.92 0 0 1-6.96-5l-14-10.36c-6.05-4.46-12.25-8.84-16.51-11.4l-9.75 13c-6.75 9-10.37 13.01-11.75 13.03-1.1.01-5.26-2.69-9.25-6-3.99-3.32-7.7-6.03-8.25-6.03s-1-.45-1-1-1.24-1.64-2.75-2.42-3.76-2.35-5-3.5c-1.92-1.78-2.08-2.41-1.07-4.33.65-1.24 3.46-5.27 6.25-8.95l16.57-22.35 24.89-33.57c11.63-15.57 13.66-17.83 15.5-17.24zm65.29 54.37c.73 0 1.63.79 2 1.75.43 1.11.16 1.9-.75 2.17-.79.23-1.64.23-1.89 0s-.51-1.2-.57-2.17c-.06-.96.48-1.75 1.2-1.75zm37.62-8.04c1.21-.02 2.76.65 3.45 1.5 1 1.24 1 1.89 0 3.29-.69.96-1.7 2.03-2.25 2.38s-2.02.35-3.27 0-2.46-1.08-2.69-1.63.25-2.01 1.07-3.25 2.48-2.27 3.69-2.29zm-49.32-20.96c1.11 0 2.3.56 2.64 1.25s-.27 2.38-1.36 3.75c-1.09 1.38-2.71 2.5-3.62 2.5-.9 0-1.64-.34-1.64-.75s.22-1.42.5-2.25l.98-3c.26-.83 1.39-1.5 2.5-1.5zm140.21-14.81c2.81 1.34 3.87 2.47 3.85 4.08-.02 2.1-.32 2.19-5.28 1.58-3.47-.43-6.62-.18-9.26.73-2.2.76-5.46 2.97-7.25 4.9-2.43 2.64-4.32 3.66-7.5 4.08-2.34.3-5.38.64-6.75.75-1.38.11-2.64-.25-2.81-.8s2.08-1.54 5-2.21c4.27-.97 6.09-2.08 9.31-5.67 2.2-2.46 5.13-5.02 6.5-5.7 1.38-.68 4.26-1.76 6.41-2.41 3.34-1.01 4.47-.91 7.78.67zm-125.76 56.12c.59.19 1.18 1.33 1.32 2.52.18 1.59-.29 2.17-1.75 2.17-1.21 0-2.07-.72-2.17-1.83-.09-1.01.22-2.14.68-2.52a2.29 2.29 0 0 1 1.92-.34zM1690.1 1305c1.29 0 1.88.71 1.88 2.25-.01 1.24.71 4.5 1.6 7.25.88 2.75 1.33 5.67.99 6.5-.47 1.16-1.13.79-2.85-1.58-1.23-1.69-3.13-4.94-4.23-7.21-1.7-3.51-1.8-4.35-.64-5.67.75-.85 2.21-1.54 3.25-1.54z" class="D E"/><path d="M2154.5 1152.16c1.1-.04 3.67 1.6 5.71 3.64 2.27 2.27 3.71 4.67 3.72 6.21.01 1.38 1.04 3.55 2.29 4.83 1.69 1.73 3.05 2.22 5.28 1.88 2.51-.38 3.78.3 7.79 4.17 2.63 2.54 4.78 5.07 4.77 5.62s-5.31 3.66-11.79 6.92c-6.47 3.26-14.25 7.36-17.27 9.12-3.03 1.76-6.63 3.54-8 3.95-1.38.41-3.3 1.48-4.28 2.38s-1.77 1.18-1.77.63c.01-.67-.23-.67-.72 0-.4.55-3.21 2.27-6.23 3.83l-22 11.39-27.75 14.42c-6.42 3.34-12.54 5.86-14.25 5.86-2.27 0-3.24.61-4 2.5-.55 1.38-1.79 2.7-2.75 2.94s-2.31 1.14-3 2c-1.04 1.29-.7 2.37 1.95 6.31 1.76 2.61 7.16 10.04 12 16.5s8.8 12.2 8.8 12.75-2.59 1.72-5.75 2.59c-3.18.88-7.65 3.12-10 5-2.34 1.87-4.03 3.86-3.75 4.41s2.64.99 5.25.97 7.22-.9 10.25-1.97c3.03-1.06 6.85-1.97 8.5-2.01 2.45-.06 3.54.71 5.93 4.22 1.61 2.36 4.65 6.43 6.75 9.04s3.82 5.2 3.82 5.75-.79.7-1.75.32c-.96-.37-1.97-.93-2.25-1.25s-1.96-1.59-3.75-2.82c-1.79-1.24-4.58-2.36-6.21-2.5s-3.54.32-4.25 1.01c-1.05 1.02-.37 2.05 8.55 9.74l-1.67 4.25c-.92 2.34-1.67 6.28-1.67 8.75s.48 5.74 2.15 10l2.22-2.5c1.22-1.38 3.29-5.88 4.58-10l2.39-8c.02-.28.84-1.4 1.83-2.5s1.99-1.78 2.24-1.5c.24.28 8.34 11.08 17.99 24s17.57 23.95 17.59 24.5-3.46 2.05-7.73 3.34l-9.27 2.85c-.82.28-6 1.75-11.5 3.27l-22.5 6.51-23 6.7-19.5 5.35c-4.95 1.32-11.47 3.31-14.5 4.44-3.03 1.12-6.4 2.03-7.5 2.03-1.1-.01-4.93.91-8.5 2.04s-7.76 2.6-9.29 3.26-2.77 1.88-2.75 2.7c.02.83 3.6 8.7 7.95 17.5l11.86 24.5 15.23 32.5 18.18 38.5c3.8 7.97 6.77 14.6 6.62 14.73-.16.13-4.11.68-8.79 1.23s-13.68 1.45-20 2.01l-46.5 4-47.5 4.04c-6.88.58-13.85 1.42-15.5 1.86-2.35.63-2.97 1.33-2.87 3.21.07 1.33 2.25 10.51 4.83 20.41l5.49 22c.44 2.2 1.95 8.5 3.36 14l8.72 34.5 7.94 32 2.4 10.25c.42 1.87.22 2.74-.63 2.72-.69-.02-6.2-.65-12.25-1.41s-11.34-1.19-11.75-.97-2.66-.02-5-.53c-2.34-.52-7.74-1.19-12-1.5s-8.31-.78-9-1.05-5.97-.92-11.75-1.44-16.13-1.61-23-2.42l-25-2.71c-8.36-.83-12.75-1.69-13.25-2.59-.41-.74-2.21-2.06-4-2.93-3.07-1.5-3.4-1.47-6 .5-1.51 1.15-3.76 2.09-5 2.09-2.13 0-2.26.43-2.41 7.75-.09 4.26.29 14.72.85 23.25.55 8.53 1.15 20.9 1.34 27.5l1.38 33.5 2.59 43.03-3.15-1.26c-2.65-1.06-3.41-1.02-4.79.24-.9.83-1.64 1.95-1.64 2.5s.74 1.67 1.64 2.5c1.37 1.25 2.12 1.29 4.54.25 2.57-1.11 2.9-1.05 2.93.5.02.96-.21 2.09-.5 2.5s-4.92-.78-10.28-2.65-18.97-6.32-30.25-9.9l-27.5-8.63-23-7.24-29-9.34c-8.96-2.92-13.54-3.96-14.75-3.36-1.25.63-2.04 2.93-2.78 8.12l-2 13.5-1.9 12.5-2 13.5-2.08 14-4.01 27.25-3.92 26c-.51 3.03-1.47 9.55-2.14 14.5s-1.57 9.45-2.01 10c-.5.63-2 .21-4.1-1.15-1.82-1.18-6.24-3.7-9.81-5.6l-10-5.44c-1.92-1.1-9.13-5.05-16-8.78l-13.5-7.51c-.55-.4-5.5-3.09-11-5.99s-11.13-6.33-12.5-7.64c-1.38-1.3-3.17-2.36-4-2.36-.83.01-10.61-4.95-21.75-11.02s-21-10.92-21.92-10.78c-1.14.17-2.88 3.59-5.48 10.75l-6.28 17.5-6.4 18-9.11 25.5-6.72 18.5c-.85 2.2-2.82 7.82-4.39 12.5-1.56 4.68-4.63 13.22-6.82 19s-4.42 10.5-4.95 10.5-5.18-3.7-10.32-8.22L1459 1948.2l-21.5-17.74c-6.05-4.89-15.32-12.74-20.61-17.43-5.28-4.7-13.61-11.8-18.5-15.78l-17.68-14.77-2.61 3.25c-1.43 1.79-7.06 10.56-12.51 19.5l-16.89 28.25-24.35 41.25c-9.55 16.09-17.92 29.24-18.61 29.23s-2.15-1.3-3.25-2.88c-1.1-1.57-5.26-6.85-9.24-11.73l-41.25-51.37c-18.71-23.38-34.69-42.61-35.51-42.75s-3.64 2.11-6.25 4.99l-16.76 18.25-15.4 17.01c-1.87 2.2-7.27 8.25-11.99 13.45l-17.1 18.58-13.24 14.55-10.24 11.42c-3.03 3.3-5.69 5.78-5.91 5.5s-3.91-7.25-8.2-15.5-8.38-15.56-9.1-16.25-1.3-1.81-1.29-2.5-1.17-3.5-2.64-6.25l-9.87-19-18.05-35-13.47-25.5c-1.45-2.47-3.39-4.61-4.32-4.75-.92-.14-17.77 11.65-37.43 26.2l-37.75 27.99c-1.1.84-7.51 5.59-14.25 10.55-7.05 5.19-13.23 9.01-14.55 9.01-1.27 0-2.85.56-3.52 1.25s-1.21 2.04-1.2 3-1.33 2.43-2.98 3.25c-2.33 1.17-3.11 1.22-3.51.25-.28-.69-1.82-5.97-3.43-11.75l-6.06-21-6.15-21-3.87-13.5-3.01-10.5-3.57-13-2.43-9c-.55-1.92-2.51-8.22-4.35-14s-3.63-11.74-4.62-16l5.25 2.73c4.09 2.13 6.46 2.69 10.75 2.54 3.03-.1 6.08-.77 6.79-1.48s1.27-1.85 1.25-2.54-.99-2.49-2.14-4c-1.71-2.24-1.89-3.17-1-5 .6-1.24 1.11-3.49 1.13-5 .02-1.71-1.43-4.64-3.86-7.75-2.14-2.75-4.41-6.01-5.04-7.25-.87-1.72-.85-2.86.11-4.83.69-1.42 2.26-3.22 3.5-4s2.25-2.32 2.25-3.42-.9-2.45-2-3c-1.21-.6-2.89-.65-4.25-.13-1.24.48-3.71 2.28-5.5 4s-3.25 3.91-3.25 4.88c0 .96 1.12 3.44 2.5 5.5s2.94 5.66 3.48 8 .99 6.16 1 8.5c.02 3.42-.41 4.47-2.23 5.37-1.24.62-3.6.91-5.25.65s-3.79-.76-4.75-1.12c-1.09-.41-2.41.06-3.5 1.25-.96 1.05-4.67 3.25-8.25 4.9l-18.5 8.71-20.25 9.6-16.5 7.74-34.75 16.49c-14.58 6.95-27.06 12.64-27.75 12.65-.72.01-1.47-1.77-1.78-4.24-.29-2.34-.74-7.63-1-11.75-.26-4.13-.69-9.3-.96-11.5s-.71-7.83-.98-12.5-1.18-15.47-2.04-24l-2.1-25c-.3-5.22-.74-9.84-.97-10.25s-.67-5.36-.97-11-.92-12.72-1.38-15.75-.89-6.96-.95-8.75-.57-4.15-1.12-5.25c-.6-1.19-1.51-1.72-2.25-1.3-.69.39-3.05 1-5.25 1.37s-27.63 6.59-56.5 13.83l-62.72 15.88c-5.62 1.49-10.57 2.35-11 1.89-.43-.45 1.17-18.23 3.56-39.5l6.22-56.18 3.38-30.5c1.18-10.23 1.24-13.28.28-14.32-.94-1.02-3.62-1.17-11.72-.66l-19 .97-19.5.9-22.5 1.18-19 1-20 .9-21.25 1.01c-4.81.28-8.74.17-8.74-.24.01-.41 2.82-9.6 6.25-20.42s6.69-20.12 7.24-20.68 7.3-2.65 15-4.66l36-9.65 31-8.33 18.5-4.93 16.5-4.55c3.85-1.08 7.56-1.97 8.25-1.99s4.29 3.68 8 8.22 9.52 11.17 12.9 14.75 7.82 8.53 9.86 11 11.65 12.38 21.36 22c9.71 9.63 22.87 22.22 29.25 28s15.38 13.67 19.99 17.56c4.61 3.88 11.25 9.28 14.76 12 5.99 4.66 6.33 5.13 5.75 8.19-.39 2.03-.05 4.37.88 6.25.83 1.65 2.17 3 3 3s2.04-1.24 2.7-2.75 1.33-2.97 1.49-3.25 3.55 2.03 7.55 5.11c4 3.09 8.61 6.43 10.26 7.43s4.13 2.81 5.5 4.02c1.38 1.21 6.1 4.67 10.5 7.69s15.42 10.19 24.5 15.92l26 15.99c5.23 3.06 15.58 8.84 23 12.85l20 10.5 17 8.24 16.5 7.73c3.3 1.49 10.28 4.47 15.5 6.63l11.5 4.76 4.5 1.92c1.38.6 6.78 2.73 12 4.72 5.22 2 18.72 6.7 30 10.45s25.22 8.16 31 9.79l20 5.48 14 3.58 11 2.58c3.58.84 11 2.4 16.5 3.48s16.97 3.11 25.5 4.52l21.5 3.58c3.3.56 7.58 1.07 9.5 1.13a45.39 45.39 0 0 1 7 .93c1.92.45 8.9 1.32 15.5 1.94 9.22.86 12.58 1.58 14.5 3.09 1.38 1.08 3.63 1.95 5 1.94 1.38-.01 3.51-.71 4.75-1.53 1.74-1.17 4.35-1.41 11.5-1.06l32.5 1.25c21.17.73 23.25.96 23.25 2.55 0 .96.67 3.1 1.5 4.75s1.84 3.02 2.25 3.04 1.3-.54 1.98-1.25 1.58-3.03 2-5.16 1.11-4.04 1.52-4.25 6.49-.63 13.5-.93l20.25-.9c4.13-.19 12.67-.84 19-1.45 6.33-.6 14.2-1.54 17.5-2.08s11.4-1.67 18-2.51 18.08-2.61 25.5-3.94l25.5-4.9 21.5-4.64c5.22-1.18 16.7-4.13 25.5-6.55l25.5-7.34 22-7.13c6.88-2.31 21.12-7.64 50.82-19.51l3.09 2.75c2.88 2.56 3.39 2.68 7.34 1.69 2.37-.59 5.69-2.47 7.52-4.25 1.8-1.76 3.27-3.87 3.27-4.69 0-.83-.47-1.95-1.05-2.5-.71-.68.64-1.76 4.23-3.37 2.91-1.3 12.03-5.74 20.28-9.85l25.5-13.03c5.78-3.05 10.95-5.88 11.5-6.29s2.8-1.76 5-2.99l8.5-4.75c2.47-1.38 9.22-5.46 15-9.07s16.58-10.64 24-15.63 19.35-13.32 26.5-18.51 19.75-14.88 28-21.53l18-14.73 9-7.85c3.3-2.86 12.26-11.1 19.91-18.29l15-14.18c.6-.6 8.56-8.93 17.7-18.5 9.13-9.57 19.47-20.78 22.98-24.91l8.7-10c1.28-1.38 4.89-5.87 8.02-9.99s6.74-8.62 8.01-10 3.07-3.75 4-5.27 2.03-2.76 2.44-2.75.73-.55.71-1.24 1.78-3.28 4-5.75 4.04-4.84 4.04-5.25.59-1.31 1.32-2c.72-.69 4.25-5.3 7.83-10.25s10.48-15.08 15.33-22.5l14.31-22.5 12.18-20.5a810.15 810.15 0 0 0 13.03-23.5l9.55-18.5 8.29-17c2.79-5.78 6.42-13.88 8.06-18l5.6-14c1.44-3.58 3.82-8.97 5.29-12s5-12.25 7.84-20.5l7.19-20.5c1.12-3.03 4.61-14.72 7.75-26l9.96-37.5c2.33-9.35 5.91-25.55 7.94-36s4-19.32 4.37-19.71 13.5-4.14 29.17-8.35l30-8.44c.82-.44 3.07-1.07 5-1.41 1.93-.33 5.07-1.01 7-1.51l15.5-4.06c11.66-3.06 12.1-3.1 15.5-1.47 1.93.93 4.74 2.08 6.25 2.56 2.29.73 3 .5 4.26-1.37.83-1.24 1.4-3.41 1.26-4.83-.23-2.39.22-2.69 6.24-4.14 3.57-.86 7.39-1.59 8.49-1.63z" class="C"/><path d="M1491.12 1946.04c1.1.57 1.97 1.92 1.94 3s-.73 2.19-1.56 2.46c-.83.28-2.19.16-3.04-.25s-1.75-1.31-2-2 .24-1.92 1.1-2.75c1.17-1.12 2.06-1.24 3.56-.46zm-222.37-8.05c.41-.01 1.32.55 2.02 1.25s1.26 1.6 1.25 2.02c-.01.41-.92.75-2.02.75-1.33 0-2-.67-2-2 0-1.1.34-2.01.75-2.02zm-283.64-26.98c1.59 0 2.9.34 2.9.75.01.41-.53 1.31-1.2 2s-2.14 1.26-3.27 1.28-2.38-.32-2.79-.75-.25-1.34.36-2.03 2.4-1.25 3.99-1.25zm-53.31-43.99c.94 0 3.5.54 9.7 2.37l-5.5.75c-3.03.41-5.89.44-6.36.06-.47-.37-.56-1.24-.2-1.93s1.42-1.25 2.36-1.24zm8.95-23.91c.69-.05 1.23.24 1.21.65s-.81 1.3-1.75 1.97-2.72 1.23-3.96 1.25c-1.4.02-2.05-.43-1.73-1.19.28-.67 1.52-1.53 2.75-1.9s2.8-.72 3.48-.78zm634.4-1.1c1.02 0 2.75.45 3.85 1s2.63 2.24 3.4 3.75 1.49 3.88 1.61 5.25c.12 1.38.16 3.29.1 4.25-.09 1.4-1.06 1.76-4.86 1.79-3.35.03-5.49-.56-7.25-2-2.47-2.02-2.48-2.06-.5-3.56 1.1-.83 2.79-1.51 3.75-1.5 1.11.01 1.65-.62 1.48-1.73-.22-1.4-1.13-1.7-4.5-1.5-2.33.14-4.27-.17-4.32-.68s1.14-1.86 2.65-3 3.58-2.07 4.6-2.07zm-651.43-4.82c1.42.17 3.52 1.55 4.68 3.07 1.42 1.86 1.78 3.1 1.1 3.83-.7.75-2.12.15-4.75-2-2.06-1.69-3.72-3.56-3.68-4.14.04-.59 1.23-.92 2.65-.75zm66.1-21.23c2.57-.02 5.26.54 5.96 1.25.71.71 1.16 2.42 1 3.79-.22 1.96-.93 2.57-3.28 2.84-1.65.19-4.69-.15-6.75-.75s-3.97-1.76-4.25-2.59.21-2.17 1.07-3c.92-.88 3.51-1.52 6.25-1.54zm636.75-17.96c1.34 0 3.78.9 5.43 2 1.84 1.22 3.01 2.87 3.02 4.25.01 1.24-.53 2.81-1.2 3.5s-2.14 1.26-3.27 1.28-2.81-.77-3.73-1.75-2.1-2.91-2.61-4.28c-.51-1.38-.74-3.06-.5-3.75.23-.69 1.52-1.25 2.86-1.25zm-11.09-7a11.23 11.23 0 0 1 3.02.5c.83.28 1.5 1.17 1.5 2s-.79 1.93-1.75 2.47c-1.19.65-2.36.57-3.65-.25-1.22-.78-1.68-1.84-1.27-2.97.34-.96 1.31-1.75 2.15-1.75zm15.07-2c1.35 0 2.68.45 2.95 1 .28.55-.29 1.41-1.25 1.92a3.92 3.92 0 0 1-3.5 0c-.96-.5-1.5-1.37-1.2-1.92s1.65-1 3-1zM777 1773c1.1 0 2.01.56 2.03 1.25s-.32 1.56-.75 1.95c-.43.38-1.34.5-2.03.25s-1.25-1.12-1.25-1.95.89-1.5 2-1.5zm996.28-13.76c1.53.14 2.76.71 2.75 1.26s-1.49 1.06-3.28 1.12c-1.79.07-3.7-.1-4.25-.38-.56-.28-.35-.88.5-1.38.83-.49 2.75-.77 4.28-.63zm25.77-4.24c1.62 0 3.18.45 3.45 1 .28.55-.29 1.28-1.25 1.62s-2.76.34-4 0-2-1.07-1.7-1.62 1.88-1 3.5-1zm-1029.7-1.81c1.43.21 2.26 1.15 2.48 2.81.18 1.41-.36 3.04-1.25 3.75-1.3 1.03-1.93.9-3.57-.75-1.62-1.62-1.79-2.39-.9-4.06.7-1.31 1.88-1.95 3.25-1.75zm923.3-11.16c3.16.02 6.17.81 8.62 2.25 2.07 1.22 3.76 2.55 3.75 2.97-.01.41-.47.75-1.02.75s-3.36-.9-6.25-2-6.04-2-7-2-2.02-.45-2.35-1c-.37-.61 1.27-.99 4.25-.97zm80.9-27.03c1.9 0 3.45.45 3.45 1s-1.8 1-4 1c-2.37 0-3.78-.41-3.45-1 .3-.55 2.1-1 4-1zm15.62-16c1.01 0 1.83.67 1.83 1.5s-.89 1.5-2 1.5c-1.1 0-2.21-.34-2.48-.75-.26-.41-.19-1.09.17-1.5.35-.41 1.47-.75 2.48-.75zm-69.89-1.02c.67-.01 1.79.55 2.49 1.25s1.24 1.94 1.22 2.77c-.03.83.75 2.25 1.73 3.16s4.03 1.99 6.78 2.39 5.9 1.38 7 2.18c1.8 1.31 1.29 1.39-5 .82l-9.75-1.09c-1.79-.3-3.61-1.77-5.2-4.21-1.84-2.81-2.21-4.19-1.47-5.5.54-.96 1.53-1.76 2.2-1.77zm-956.78.09c2.53-.05 6.3 1.02 10.25 2.92 3.44 1.65 6.48 3.45 6.75 4s-.29 1.72-1.25 2.59c-1 .91-2.61 1.35-3.75 1.03-1.1-.31-4.92-.86-8.5-1.23s-7.29-1.05-8.25-1.53c-.98-.48-1.84-2.15-1.95-3.78-.12-1.79.36-3.11 1.25-3.42.8-.28 3.25-.54 5.45-.59zm1082.45-38.03c2.77-.04 3.2.2 2.18 1.2-.7.69-3.6 1.36-11.63 1.75l3-1.45c1.65-.8 4.55-1.47 6.45-1.5zm-1181.9-1.05c.52 0 2.09.56 3.48 1.25s2.52 1.81 2.5 2.5-1.04 1.26-2.28 1.27-3.11-.55-4.15-1.25c-1.09-.73-1.6-1.8-1.2-2.52.38-.69 1.13-1.25 1.65-1.25zm1249.31-8.04c.63-.02 1.7.65 2.39 1.5 1 1.24 1 1.67 0 2.16-.69.34-2.26.34-3.5 0-1.8-.49-2.03-.92-1.14-2.12.61-.83 1.62-1.52 2.25-1.54zm-88.03-17.78c1.19.18 2.17.77 2.17 1.32s-1.01 1.11-2.25 1.25c-1.51.17-2.22-.27-2.17-1.32.05-1.03.83-1.46 2.25-1.25zm-1283.86-46.39c1.2.25 2.27.73 2.36 1.08s-1.07 1.2-2.58 1.9-3.54 1.04-4.5.75-1.83-.98-1.93-1.55.86-1.39 2.14-1.83 3.31-.6 4.51-.35zm1425.14-85.79c.76 0 1.84.9 2.39 2 .58 1.15.68 3.7.25 6.02-.41 2.21-.97 4.03-1.25 4.04s-1.56-.78-2.85-1.77-2.4-2.92-2.45-4.29c-.05-1.38.49-3.29 1.22-4.25.72-.96 1.94-1.75 2.7-1.75zm-7.56-45c1.07 0 3.15 1.24 4.61 2.75 2.27 2.34 2.56 3.3 2 6.5-.63 3.58-.52 3.77 2.34 4.25 2.27.38 3.55 1.53 5.27 4.75 1.59 2.98 3.61 4.92 6.75 6.49 2.46 1.23 4.25 2.28 3.98 2.33l-2.5.44c-1.1.19-3.46-.29-5.25-1.08s-4.33-3.12-5.65-5.18-3.34-4.54-4.5-5.5-2.1-2.42-2.1-3.25-1.8-3.53-4-6-3.75-4.95-3.45-5.5 1.43-1 2.5-1zm116.38-92c2.21 0 3.56.48 3.53 1.25-.02.69-1.03 2.05-2.25 3.03s-2.66 1.62-3.21 1.42-1.15-1.56-1.32-3.03c-.3-2.46-.04-2.67 3.25-2.67zm35.37-20.04c.94-.02 2.26.65 2.95 1.5 1.03 1.27.94 1.72-.5 2.51-1.19.65-2.36.57-3.65-.25-1.09-.7-1.6-1.75-1.2-2.47.38-.69 1.46-1.27 2.4-1.29zm21.87-171.96c1.11 0 1.84.7 1.83 1.75-.01.96-.69 1.75-1.5 1.75s-1.63-.79-1.83-1.75c-.23-1.16.27-1.75 1.5-1.75zm10.64-3c2.42 1.91 3.94 3.93 3.84 5.08-.09 1.1-.9 1.91-1.91 1.9-.96-.01-2.76-1.58-4-3.5s-2.18-4.2-2.09-5.07c.12-1.22 1.06-.87 4.16 1.58z" class="D"/><path d="M716.52 774.22c5.45.22 8.47.98 13.5 3.42 4.13 2 8.04 4.91 10.77 8 2.85 3.22 4.99 7.04 6.39 11.36 1.52 4.71 1.96 8.02 1.59 12-.28 3.02-2.05 9.1-3.94 13.5s-4.08 8.13-4.88 8.3c-.8.16-9.1-3.13-18.45-7.31l-28-12.65c-6.05-2.77-11.37-5.34-11.82-5.69-.45-.36 1.35-5.11 4-10.57 3.22-6.63 5.98-10.86 8.32-12.74 1.92-1.55 6.2-3.96 9.5-5.36 4.86-2.05 7.33-2.48 13.02-2.26zm526.38-121.85c15.18.18 32.78.85 39.1 1.47 6.33.63 18.47 2.31 27 3.73 8.53 1.43 21.58 4.15 29 6.05s20.59 5.69 29.25 8.42c8.66 2.72 15.76 5.29 15.77 5.7s-2.13 1.31-4.75 1.99l-11.77 3.15-19 5.12-22.5 5.99-20.5 5.46-17 4.56-12.5 3.42-18.5 4.98-23 6.06-16.5 4.52-14.5 4.02-13.5 3.63-14.5 3.86-17 4.49-34 9.08-42.5 11.4-26.5 7.06-17 4.43-24 6.49L976 787.6l-32 8.49c-6.33 1.65-11.9 2.86-12.38 2.7-.48-.17.87-2.31 3-4.76s7.9-8.75 12.82-14 13.47-13.76 19-18.91c5.53-5.16 14.16-12.81 19.17-17s13.79-10.96 19.5-15.04 10.5-7.79 10.64-8.25.7-.84 1.25-.84 4.71-2.4 9.25-5.32c4.54-2.93 10.5-6.61 13.25-8.17 2.75-1.57 9.95-5.38 16-8.47s15.5-7.7 21-10.25 16.53-7.09 24.5-10.08c7.97-3 21.03-7.28 29-9.52l20.75-5.62c4.51-1.12 6.95-1.28 8.75-.55 1.38.55 2.72 1 3 1s1.29-.84 2.25-1.87c1.25-1.33 5.35-2.49 14.25-4.02 6.88-1.18 17.67-2.6 24-3.15s11.68-1.21 11.9-1.46c.22-.26 12.82-.31 28-.13z" class="C"/><path d="M988.91 748.22c.87.17 1.59.93 1.59 1.68 0 .76-.77 1.88-1.72 2.49-1.28.82-2.05.8-3-.1-1.04-.98-1.01-1.51.13-2.79.78-.87 2.13-1.45 3-1.28z" class="D"/><path d="M2163.75 506.08c.69-.05 1.7 1.38 2.24 3.17l2.5 9 3.01 11.25 2.93 10.75 3.44 12.75 4.53 17 4.11 15.5 4.67 17.5 5.89 22 4.87 18 6.14 23 6.67 25c1.43 5.23 2.63 11.3 2.68 13.5.04 2.2.84 5.13 1.76 6.5.92 1.38 3.09 7.9 4.81 14.5l10.14 38 7.38 27.5c.32 1.27-.2 1.23-3.31-.26-2.03-.97-4.59-1.75-5.69-1.74s-3.13.29-4.5.61c-2.5.59-2.5.59 1 2.8 1.93 1.22 5.53 3.24 8 4.5s5.3 3.03 6.28 3.94 1.76 2.33 1.73 3.15c-.03.83 1.04 4.88 2.37 9 1.34 4.13 3.15 10.99 4.02 15.25.88 4.26 2.04 7.86 2.58 8 .57.14.35 1.51-.53 3.25-.84 1.65-1.5 3.56-1.49 4.25.02.69.93 1.48 2.03 1.75s2.27 1.29 2.59 2.25c.33.96 1.23 4.11 2 7 .85 3.18 1.11 6.44.66 8.27-.58 2.36-.42 3.02.75 3 .97-.01 2.12 2.03 3.24 5.73.96 3.16 3.52 12.73 5.7 21.25l6.57 25 4.61 17 5.51 20.5 5.51 20.5 5 19 6.85 25.5 6.52 24 4.56 17.5c1.05 4.13 1.91 8.06 1.92 8.75.01.71-2.7 1.92-6.23 2.8l-13.5 3.5-14.5 3.9-11.75 3.14c-2.47.65-4.93 1.58-5.45 2.05s-1.99.86-3.25.86-10.74 2.25-21.05 4.99l-22.25 6-20 5.45-20.5 5.42c-2.2.53-6.7 1.72-10 2.65l-13 3.5-15 3.98-11.5 3.03c-1.93.48-3.62.79-3.77.68-.15-.1 1.31-1.43 3.25-2.94 2.36-1.84 3.52-3.58 3.52-5.25 0-1.82-1.7-3.98-6.25-7.94-3.44-2.99-7.6-5.94-9.25-6.54-2.11-.77-3.82-.79-5.75-.06-1.57.6-3.99 3.07-5.66 5.79-1.61 2.63-2.62 5.37-2.25 6.14.36.76 1.56 1.87 2.66 2.46s4.25 1.32 12 2.15l-.21 9-10.39 2.65-31.39 8.35-28 7.52-12.5 3.34-28.5 7.64-30 7.95-12.5 3.37-13.5 3.68-19.5 5.17-26 7.01-18 4.97c-1.92.54-5.08 1.34-7 1.79-1.92.44-4.85 1.35-6.5 2.02s-5.03 1.58-7.5 2.02c-2.47.45-11.47 2.67-20 4.94l-24.5 6.54-19 5.04-20 5.44-18 4.92-21.5 5.7-18.75 5.02-11 3.01-14.75 3.93-14.5 3.86-17 4.54-16.5 4.56c-2.75.84-6.37 1.52-8.05 1.53s-3.48.43-4 .95c-.52.51-4.44 1.86-8.7 3l-15.25 4.06-15.25 4.08-30.25 8.11-29 7.81-18.5 5.02-19.5 5.05-14 3.48c-3.58.91-9.09 2.51-12.25 3.55s-6.31 1.89-7 1.88-5.53 1.37-10.75 3.07c-5.22 1.69-11.08 3.3-13 3.58-1.92.27-3.72.67-4 .88s-6.58 1.94-14 3.85l-19.25 5.06-11.25 3.08-11.25 3.04-20.75 5.5-26 6.96-22 5.93-22.5 5.96c-6.33 1.66-12.51 2.82-13.75 2.57-1.36-.28-2.95.26-4 1.35-.96 1-3.55 2.17-5.75 2.6s-11.42 2.81-20.5 5.29l-21.5 5.82-14.5 3.84-17.5 4.68-16.5 4.43-18.5 4.97-17.5 4.72-16.5 4.38-20 5.43-16.5 4.74c-3.03.92-7.3 1.99-9.5 2.38s-6.47 1.4-9.5 2.25l-39 10.53-45.5 12.2-19 5.12-20 5.29-24.5 6.55-18.5 5.07-26 6.91-28.5 7.58-20 5.39-29.5 7.94c-10.45 2.82-20.24 5.12-21.75 5.11s-3.76.62-5 1.39-5.85 2.32-10.25 3.44l-13.75 3.6-11.25 3.06-11 3-10.75 2.97-12.25 3.57c-3.85 1.16-9.25 2.45-12 2.87s-5.45 1.02-6 1.33-6.4 2.01-13 3.77l-17 4.57-24.5 6.45-32 8.6-23.5 6.38-16.75 4.42-11.5 3.13-20.75 5.51-22 5.89-16.5 4.56c-5.23 1.44-9.95 2.88-10.5 3.2s-3.02.92-5.5 1.34-8.55 1.89-13.5 3.26l-20.5 5.55-22.5 5.98-21 5.61-17.5 4.69-20.5 5.5-18.5 4.99-11 2.97-7.25 1.93c-1.4.37-2.07-.68-3.37-5.28l-3.93-14.75-4.95-19-8.05-30-8.41-31-8.1-30.5-12.54-47-10.41-39-6.61-25-6.51-24-5.98-22-7.04-26.5-8.42-31.5-6.45-24-5.49-20.5-5.52-20.5-7.53-28-6.45-23.5c-.5-1.65-2.56-9.3-4.57-17l-5.44-21-6.01-22.5-7.62-28.5c-1.87-7.15-3.27-13.39-3.12-13.88.15-.48 2.52-1.52 5.27-2.31s6.8-1.83 9-2.31 8.05-1.99 13-3.34l20-5.48 27-7.24 26.5-7.02 16-4.33 24-6.63 22-5.92c1.93-.45 8.9-2.26 15.5-4.02l19-5.04 14-3.77 17.5-4.7 26-7.01 20.5-5.51c2.75-.69 9.5-2.5 15-4.02l22.5-6 24.5-6.55 22-5.94 30-8 46-12.38 40-10.7 25-6.65 18-4.78 14.5-3.89c4.13-1.14 10.42-2.76 14-3.61s10.1-2.64 14.5-3.99 9.58-2.71 11.5-3.02c1.92-.32 5.3-1.19 7.5-1.93s9.4-2.77 16-4.52l17.25-4.6 11-3.01 14.75-3.91 19-4.99 26.5-7.12 23.5-6.43 16.5-4.43 26-6.88 47-12.63 39.5-10.57 14.5-3.85 37-9.95 34.5-9.14c2.22-.52 4.36-.03 8.25 1.88 3.09 1.52 6.59 2.48 8.5 2.33 2.33-.18 3.25-.74 3.25-2 0-.96-.29-1.64-.65-1.5-.35.14-1.59-.65-2.75-1.75-1.69-1.61-1.86-2.26-.85-3.29.69-.71 2.15-1.28 3.25-1.26s4.92-.84 8.5-1.91 10.1-2.86 14.5-3.98l21-5.63 24-6.44 21-5.53 15-4.05 22-5.83 22.5-5.92 14.5-4.01 15-4.16 17-4.48 41-10.95 39-10.5 21-5.58 20-5.49c4.4-1.28 14.53-3.99 22.5-6.01l21-5.46 16-4.43 51-13.75 44.75-11.47c1.79-.21 3.47-.82 3.75-1.37s1.85-1 3.5-1 3.22-.45 3.5-1 1.96-1.18 3.75-1.39 6.63-1.29 10.75-2.39l19-5.05 30.5-8.16 26.5-7.14 16.5-4.34 35.5-9.48 33.5-9.05 31.5-8.5 37.5-10.03 26-6.88 28-7.62c8.25-2.29 16.35-4.38 18-4.63 1.65-.26 3.9-.88 5-1.38s5.6-1.85 10-3.01l19-4.96 24.5-6.48 23-6.15 23.75-6.44c7.84-2.16 14.7-3.92 15.25-3.92s2.24-.52 3.75-1.15 3.65-1.31 4.75-1.51 7.18-1.71 13.5-3.36l61-16.41 50.75-13.49z" class="C"/><path d="M501.55 1545c2.45 0 4.45.34 4.44.75 0 .41-1.24 1.32-2.75 2.01s-3.53 1.26-4.49 1.25-1.98-.46-2.25-1.01-.25-1.45.05-2 2.55-1 5-1zm-125.3-1.54c.69.25 1.96 1.49 2.84 2.75.87 1.26 1.84 3.42 2.15 4.79.31 1.38.05 3.97-.59 5.77-.63 1.8-1.71 3.26-2.4 3.25-.77-.01-1.35-1.74-1.5-4.52l-.56-7.35c-.17-1.57-.51-3.37-.75-4s.12-.94.81-.69zM473.5 1526c1.38 0 2.78.56 3.11 1.25.34.69-.09 1.92-.95 2.75-.93.89-2.19 1.2-3.11.75-.85-.41-1.55-1.65-1.55-2.75 0-1.47.67-2 2.5-2zm1643.46-939.71c1.99.17 2.71 1.07 3.78 4.71.73 2.48 3.16 11.48 5.41 20l4.9 19.5c.45 2.2 1.48 6.48 2.3 9.5s2.16 7.52 2.98 10 3.35 11.7 5.62 20.5l5 18.5c.48 1.38 2.6 8.94 4.7 16.81 3.74 13.97 3.91 14.35 7.33 16 2.17 1.05 3.5 2.41 3.5 3.58 0 1.04-.9 2.39-2 3s-2.1 1.11-2.22 1.11 1.38 6.3 3.33 14 3.97 14.45 4.49 15 .93 2.01.92 3.25 2.2 10.46 4.91 20.5l10.52 39.25 7.07 26a128.86 128.86 0 0 1 2.58 11c.61 3.3 1.68 7.58 2.39 9.5s2.47 7.77 3.9 13l6.6 24.5 6.1 23c1.16 4.4 2.5 9.13 2.97 10.5.47 1.38 1.1 4.19 1.4 6.25s.99 3.75 1.54 3.75 1-.67 1-1.5.68-1.72 1.5-2 2.63-.5 4-.5c1.38 0 3.4.45 4.5 1s2.45 2.46 2.99 4.25c.55 1.79 1.33 2.92 1.75 2.51s1.34-.18 2.05.5 1.27 1.58 1.25 1.99-2.07 1.65-4.54 2.75-5.51 2.01-6.75 2.02-2.8.35-3.47.75c-.93.56-.61 2.99 1.34 10.23l4.39 16.5 3.56 13.5 4.08 14.75c1.93 6.76 2.76 8.34 4.6 8.77 1.24.28 4.28 2.54 6.75 5.01 3.22 3.22 4 4.49 2.75 4.48-.96-.01-4-2.04-11.75-9.01l-4.75 1.6c-2.61.88-6.1 1.97-7.75 2.43l-8.5 2.39c-3.18.9-6.13 2.46-7 3.69-1.28 1.83-2.15 2.05-6 1.54-3.59-.48-9.05.61-27 5.36l-30.5 8.1-14.5 3.91-20 5.39-31.5 8.48-35 9.46-29 7.57c-6.6 1.64-15.15 3.91-19 5.06-3.85 1.14-11.05 3.16-16 4.48l-16.5 4.45c-4.13 1.12-8.51 2.06-9.75 2.07s-3.71.66-5.5 1.43-10.22 3.3-18.75 5.61l-21.5 5.61c-3.3.77-7.13 1.8-8.5 2.29-1.38.49-6.1 1.83-10.5 2.99l-25 6.67-28 7.42-20.5 5.42-18.5 5.07-24 6.47-24 6.38-16.5 4.46-21 5.6-26.5 7.07-24 6.45-16.5 4.44-36 9.66-37.5 10.13c-3.85 1.08-7.9 2.12-9 2.3s-4.47 1.02-7.5 1.85l-13 3.61-20.5 5.49-22.5 6.09-18.5 5.05-24 6.34-20.5 5.43-22.5 6.05-28.5 7.72-26.5 7.07-40.5 10.84-74 19.88-52.5 14.01-12 3.14-11 2.97-11 3.01-11.5 2.99c-1.92.46-8.67 2.25-15 3.97l-30 8.09-38.5 10.38-32 8.6-18.5 4.97-26 6.99-39.5 10.58-28 7.49c-4.4 1.16-9.58 2.71-11.5 3.45s-5.98 1.88-9 2.54-9.77 2.45-15 3.98-12.88 3.55-17 4.5c-4.13.94-11.55 2.79-16.5 4.11l-18.5 4.92c-5.23 1.39-11.52 3.21-14 4.05s-7.88 2.45-12 3.58c-4.13 1.13-11.1 2.83-15.5 3.79s-14.08 3.35-21.5 5.31l-23 6.17-45 12.15-41 11.01-35.5 9.51-37.5 10.06-24 6.42-30 7.95-22.5 6.08-19.5 5.31-22.5 5.96-25.5 6.72-15 3.91-6 1.55c-2.48.63-5.4 1.51-6.5 1.95s-6.73 2-12.5 3.47l-12 2.97c-.82.16-5.1 1.26-9.5 2.45s-9.24 2.58-10.75 3.1c-2.08.71-3.12.58-4.25-.56-.82-.83-2.22-4.09-3.1-7.25l-8-29.75-10.38-39-5.14-20c-.64-2.75-1.96-7.7-2.95-11s-2.77-9.6-3.95-14l-4.49-17-3.97-15-3.07-11.25-3.04-11-2.96-10.75-3.73-14-3.63-14.5c-.7-3.03-1.73-7.08-2.3-9s-1.48-4.63-2.03-6c-.54-1.38-1.61-5.42-2.38-9-.76-3.58-2.25-9.42-3.31-13s-3.14-11.22-4.64-17l-5.15-19.5-10.79-40-12.02-45-6.58-25-6.43-24.5c-1.92-7.42-3.49-14.06-3.48-14.75s2.38-1.9 5.27-2.7l11.25-3.09 9.25-2.55 6.5-1.82 14.75-3.98 20.5-5.48 19-5.1 19.5-5.19 12.5-3.33 10.5-2.84 26.5-7.15 28.5-7.68 16.5-4.44 18-4.83 33.5-8.93 41.5-11.13 30-8 31-8.31 25.5-6.68c3.02-.68 6.63-1.71 8-2.28 1.38-.57 4.3-1.38 6.5-1.8s7.92-1.82 12.72-3.1 8.73-2.22 8.75-2.08.82-.16 1.78-.66 6.92-2.27 13.25-3.95l30.5-8.11c10.45-2.79 19.56-5.06 20.25-5.05s2.04-.4 3-.92c.96-.51 6.48-2.15 12.25-3.63l17.5-4.64 20.5-5.47c7.42-1.94 14.51-3.93 15.75-4.43 1.24-.49 3.15-1.8 4.25-2.9 1.62-1.62 2.48-1.81 4.5-1 1.91.76 4.81.39 12.25-1.56l17.25-4.57 13-3.51 12.5-3.34 16.5-4.43 26-6.97 26-6.93 17.5-4.7 16.5-4.46 16.5-4.48 17.5-4.54c5.22-1.31 11.97-3.25 15-4.32l8.5-3c1.65-.58 6.15-1.49 10-2.02s9.25-1.67 12-2.54l10-2.98 15-4.09 19.5-5.24 16.5-4.47 18.5-4.93 19-5.03 13-3.51 13-3.49 10.5-2.84 12.5-3.39 25-6.62 24.5-6.63 18-4.9 22-5.79 28-7.46 24-6.55 16-4.65c3.85-1.17 9.03-2.49 11.5-2.94s11.47-2.86 20-5.37 17.97-4.85 21-5.21 6.17-1.01 7-1.45 3.08-1.07 5-1.4 4.85-1.26 6.5-2.06 7.95-2.79 14-4.42l17.5-4.62 23.5-6.01 23-6.03 13.5-3.67 11-2.86c1.92-.47 10.03-2.63 18-4.79l32-8.61 28-7.5 20.5-5.51 24.5-6.55 33.5-9.01 30-8 17-4.52 10-2.64c2.2-.54 12.1-3.2 22-5.92l25.5-6.94 21-5.6 15-3.89c.83-.16 4.65-1.19 8.5-2.3s9.47-2.57 12.5-3.24 7.08-1.78 9-2.46 5.97-1.79 9-2.48c3.03-.68 7.3-1.83 9.5-2.54 2.2-.72 9.4-2.73 16-4.47l19-5.01 12.5-3.36 22-5.96 40-10.65 28-7.58c2.47-.75 10.8-3 18.5-4.99l24.5-6.42 18.5-5.04c4.4-1.23 10.47-2.82 13.5-3.52s7.97-2.44 11-3.87c3.31-1.56 7.89-2.76 11.5-3.02 3.3-.23 7.13-.89 8.5-1.47 1.38-.57 3.61-.95 4.96-.83zm-505.1 630.92c.81.16 1.62.85 1.8 1.53.2.76-.66 1.25-2.17 1.25-1.38 0-2.58-.38-2.67-.83-.09-.46.22-1.15.7-1.53.48-.39 1.53-.57 2.33-.42zm109.25-6.22c1.04 0 1.89.34 1.89.75s-1.35 2.44-3 4.5c-1.67 2.08-3.9 3.75-5.01 3.75-1.1 0-2.06-.59-2.12-1.31-.07-.72 1.34-2.75 3.12-4.5s4.09-3.19 5.12-3.19zm20.45-26c.79 0 1.43.22 1.43.5s-.67 1.85-1.5 3.5-2.51 3.49-3.75 4.08c-1.24.6-2.58.71-2.99.25s.64-2.52 2.32-4.58 3.7-3.75 4.49-3.75zm268.41-43.43c1.35 1.33 1.36 1.6.03 2.43-1.02.63-1.98.45-3-.57-1.32-1.32-1.32-1.61-.03-2.43 1-.63 1.97-.44 3 .57zm-1807.02-23.57c1.35 0 1.79.71 1.68 2.74-.08 1.55-.79 2.88-1.64 3.06-.82.17-1.76-.5-2.09-1.49-.32-.99-.41-2.37-.18-3.06.22-.69 1.22-1.25 2.23-1.25zm1954.17-16.93c1.03.51 1.65 1.38 1.37 1.93s-1.4 1-2.5 1-2.34-.5-2.75-1.11-.13-1.48.63-1.93 2.22-.4 3.25.11zm-1963.29-2.05c.37.01 1.34.44 2.17.96 1.03.65 1.58 2.97 1.75 7.48.14 3.6.59 7.06 1 7.7.5.77.12 1.03-1.13.75-1.04-.23-2.73-1.99-3.75-3.91-1.03-1.92-1.87-4.96-1.87-6.75s.27-3.92.59-4.75.88-1.49 1.25-1.48zm1954.08-15.05c.32-.02 1.26 1.33 2.08 3.01s1.16 3.27.75 3.54-1.65-.07-2.75-.76-2.08-1.96-2.17-2.83.21-1.88.67-2.25 1.1-.68 1.42-.71zm87.76-7.39c2.1.38 4.72 1.17 5.82 1.74 1.86.97 1.8 1.1-1 1.83-1.89.49-3.9.34-5.43-.42-1.33-.67-2.6-1.8-2.82-2.52-.3-1.01.5-1.15 3.43-.62zm-44.58-.53c1.07.54 1.68 1.62 1.4 2.46-.28.83-1.63 1.5-3 1.5-1.38 0-2.79-.56-3.15-1.25s.14-1.8 1.1-2.46c1.19-.82 2.36-.9 3.65-.25zm-97.6-1.04c.82 0 2.16 1.01 2.96 2.25s1.25 2.59 1 3-1.6.19-2.99-.5-2.52-2.04-2.5-3 .7-1.75 1.53-1.75zm157.05-6c1.35 0 3.59.56 4.98 1.25s2.52 1.59 2.5 2-2.28.75-5.03.75-5.22-.45-5.5-1-.25-1.45.05-2 1.65-1 3-1zm-110.07-.57c1.66.34 4.15 1.72 5.52 3.06 2.04 1.99 2.22 2.56 1 3.07-.82.35-3.53-.13-6-1.05-3.66-1.36-4.41-2.05-4.02-3.69.39-1.66 1.01-1.91 3.5-1.4zm162.07-7.43c.8 0 3.03 1.58 4.95 3.5 1.93 1.92 3.5 3.95 3.5 4.5s-.68 1.22-1.5 1.5-2.96-.68-4.75-2.13-3.53-3.36-3.87-4.25-.43-1.96-.2-2.37 1.08-.75 1.87-.75zm-2118.3-1.97c.41-.02.75.64.75 1.47s-.23 2.17-.5 3-1.4 1.5-2.5 1.5-2.1-.74-2.23-1.64.66-2.24 1.75-2.97 2.32-1.34 2.73-1.36zm2024-1.04c2.08-.01 5.76 1.53 10.25 4.27 4.25 2.6 7.13 5.06 7.32 6.26.18 1.09-.27 2.52-1 3.17-1.04.94-3.01.35-9.32-2.8-4.4-2.2-8.58-4.54-9.29-5.19-.71-.66-1.27-2.21-1.25-3.45.04-1.86.61-2.25 3.29-2.26zM244.69 1054c.72 0 1.3.56 1.31 1.25 0 .69-.67 2.26-1.5 3.5s-1.96 2.25-2.51 2.25-1-.67-1-1.5.54-2.4 1.2-3.5 1.78-2 2.5-2zm-58.93-11.36c.7 1.02 1.25 2.31 1.23 2.86s-.46 1.67-.98 2.5-1.53 1.52-2.23 1.53c-.71.02-1.62-.43-2.02-1s-.77-1.79-.82-2.71.73-2.44 1.73-3.36c1.71-1.58 1.9-1.57 3.09.18zm80.98-4.61c.69-.02 1.26.76 1.27 1.72s-.53 2.31-1.2 3-2.48 1.25-4.02 1.25-2.9-.41-3.03-.92c-.13-.5 1.11-1.84 2.75-2.97s3.54-2.07 4.23-2.08zm2009.55-4.04c1.21 0 3.21.67 4.45 1.5s2.25 1.96 2.25 2.51c0 .66-1.29.64-3.75-.05-2.06-.58-4.31-1.25-5-1.5s-1-.9-.7-1.45 1.54-1 2.75-1.01zm-17.98-13.81c2.8.28 3.21.71 3.43 3.56.14 1.79-.09 3.25-.5 3.25s-1.97-1.01-3.46-2.25-2.7-2.84-2.68-3.56c.02-.87 1.1-1.21 3.21-1zm39.18-1.18c1.1-.04 2.81.73 3.8 1.71s1.66 2.68 1.49 3.78c-.21 1.34-1.52 2.33-3.98 3-2.67.73-4.36.66-6.24-.25-1.42-.69-2.65-2.14-2.75-3.22-.12-1.27.86-2.5 2.75-3.46 1.61-.82 3.83-1.52 4.93-1.56zm-54.25-29.98c1.09-.02 1.75.72 1.75 1.97 0 1.37-.86 2.19-2.75 2.59-1.51.33-3.2.1-3.75-.5-.68-.75-.37-1.56 1-2.56 1.1-.81 2.79-1.49 3.75-1.5zm18.13-6c1.17.02 4.26 1.37 6.87 3s5.2 2.97 5.75 2.97.79.56.52 1.25c-.26.69-1.27 1.51-2.25 1.82s-2.56 2.23-3.52 4.25-2.31 3.69-3 3.69c-.69.01-2.15.27-3.25.58-1.5.42-2.16-.02-2.65-1.76-.36-1.28-.17-3.68.42-5.33.75-2.1.76-4.13.03-6.75-.97-3.49-.89-3.75 1.08-3.72zm-1668.65-.03c1.25 0 2.44.56 2.64 1.25s-.02 2.04-.5 3c-.54 1.09-2 1.75-3.86 1.75-1.94 0-3.23-.62-3.65-1.75s.01-2.19 1.22-3c1.03-.69 2.9-1.25 4.15-1.25zm1691.45-10.02c.73-.01 1.89.55 2.59 1.25s1.26 2.05 1.25 3.02c-.01 1.22-.7 1.67-2.27 1.5-1.63-.18-2.34-1.01-2.57-3-.21-1.77.15-2.76 1-2.77zm-35.56-.98c1.86 0 3.39.45 3.39 1s-1.01 1.68-2.25 2.51-3.04 1.5-4 1.5-1.97-.46-2.25-1.01 0-1.67.61-2.5 2.64-1.5 4.5-1.5zm14.54-10c1.57 0 3.52.67 4.35 1.5.82.83 1.28 2.06 1.01 2.75s-2.18 1.58-4.25 1.99-5 .74-6.51.75c-1.68.01-2.79-.55-2.85-1.42-.05-.79 1.14-2.36 2.65-3.5s4.03-2.07 5.6-2.07zm-3.73-33.74c2.06 1 2.06 1.03-.42 2.92-1.38 1.05-3.74 1.89-5.25 1.87s-2.84-.64-2.96-1.36c-.11-.73 1.31-2.02 3.17-2.88 2.47-1.14 3.93-1.29 5.46-.55zm-27.92-23.26c1.38 0 2.84.5 3.25 1.11s.08 1.46-.75 1.89c-.82.43-2.29.61-3.25.39s-1.75-1.07-1.75-1.89c0-.93.94-1.5 2.5-1.5zm-19.64-7.98c.9.01 2.31.42 3.14.91.82.49 1.23 1.5.9 2.23-.33.74-1.45 1.64-2.5 2.01s-2.8.08-3.9-.64c-1.72-1.13-1.81-1.54-.64-2.92.75-.88 2.1-1.6 3-1.59zm31.64-2.25c1.1.26 2.62.99 3.38 1.61s1.8 2.25 2.31 3.63 1.13 3.51 1.37 4.75c.27 1.36-.05 2.26-.81 2.27-.69.01-2.6-1.36-4.25-3.05s-4.77-4.29-10.85-8.47l3.42-.61c1.88-.33 4.32-.39 5.42-.13zm-18.75-5.7c.69-.04 1.47.61 1.75 1.43.28.83-.06 2.21-.75 3.07-.71.89-2.33 1.43-3.74 1.25-1.37-.18-2.63-1-2.8-1.82-.17-.83.72-2.03 1.99-2.68s2.87-1.21 3.55-1.25zm31.48-18.04c.7.01 2.08.8 3.06 1.75s1.77 2.51 1.75 3.47c-.02 1.07-.81 1.75-2.03 1.75-1.1 0-2.29-.56-2.66-1.25-.36-.69-.82-2.26-1.02-3.5-.22-1.36.14-2.24.91-2.22zm-25.48-12.91c1.24-.06 3.37.9 4.75 2.14 1.6 1.44 2.59 3.51 2.75 5.75.22 2.98-.04 3.47-1.75 3.27-1.1-.13-4.93-.41-8.5-.63s-7.74-.9-9.25-1.52c-1.51-.61-2.77-1.9-2.79-2.87-.02-.96.54-2.28 1.25-2.93s3.54-1.61 6.29-2.14 6.01-1.01 7.25-1.07zm-1340.64-5.06c1.04.52 2.34 1.84 2.89 2.94s1 2.9 1 4c0 1.52-.67 2-2.75 2-1.51 0-5.9.65-9.75 1.45s-7.23 1.22-7.5.94 1.75-2.58 4.5-5.11 6.06-5.18 7.36-5.89c1.6-.87 2.98-.98 4.25-.34zm1347.64-14.94c1.38-.07 2.25.46 2.25 1.38 0 1.08-1.11 1.5-4 1.5-2.2 0-4.11-.42-4.24-.93s.65-1.13 1.75-1.38a29.51 29.51 0 0 1 4.24-.57zm7.7-4.13c.58-.01 1.6.55 2.28 1.25.97 1 .97 1.54 0 2.56-.67.71-2.24 1.27-3.48 1.25s-2.34-.63-2.45-1.34c-.11-.72.43-1.84 1.2-2.5s1.87-1.21 2.45-1.22zM1102.5 833c1.38 0 3.17.23 4 .5s1.52 1.06 1.54 1.75-.8 2.38-3.72 6.25l-2.16-2.25c-1.19-1.24-2.16-3.15-2.16-4.25 0-1.47.67-2 2.5-2zm1139.08-5c.78 0 1.64.67 1.92 1.5s.05 1.73-.5 2-1.68.27-2.5 0c-.85-.28-1.25-1.15-.92-2 .32-.83 1.22-1.5 2-1.5zm-50.08-35.97c1.1-.03 3.01.63 4.25 1.46s2.25 2.18 2.25 3.01-1.01 2.01-2.25 2.62c-1.24.62-4.18 1.18-6.54 1.25-2.86.09-4.58-.37-5.16-1.37-.48-.83-.58-2.12-.21-2.89.37-.76 1.79-1.98 3.16-2.71 1.38-.73 3.4-1.34 4.5-1.37zm-6.75-12.97c3.06-.06 3.25.14 3.25 3.44 0 2.63-.56 3.77-2.25 4.61-1.24.61-3.71.84-5.5.5s-3.67-1.4-4.18-2.36-.57-2.29-.13-2.95 1.87-1.64 3.18-2.19c1.31-.54 3.84-1.01 5.63-1.05zm24.8-12.06c.8 0 1.74.79 2.1 1.75s.25 2.38-.25 3.15-1.35 1.56-1.9 1.77-1.8-.2-2.77-.9c-1.62-1.16-1.64-1.45-.2-3.52.86-1.24 2.22-2.25 3.02-2.25zm-768.96-58c1.33 0 3.54 1.13 4.92 2.5 1.38 1.38 2.35 3.06 2.17 3.75s-1.42 1.39-2.75 1.56c-1.53.2-3.43-.63-5.17-2.25-1.64-1.52-2.51-3.17-2.17-4.06.32-.83 1.67-1.5 3-1.5zm161.17-22.92c.14-.04 1.49.55 3 1.32s3.65 2.34 4.75 3.5c1.25 1.32 1.72 2.66 1.25 3.6-.41.83-1.88 1.5-3.25 1.5-1.44 0-3.77-1.27-5.5-3-1.65-1.65-3.09-3.64-3.2-4.42s.45-1.64 1.25-1.92l1.7-.58zm585-9.13c2-.03 3.5.93 5.5 3.5 2.22 2.86 2.46 3.64 1.25 4.05-.82.27-3.3-.17-5.5-1-3.2-1.2-4-2-4-4 0-2.05.5-2.51 2.75-2.55zm-495.6-3.95c.47 0 .85 1.8.85 4 0 2.67-.5 4.17-1.5 4.5-.83.27-1.95.27-2.5 0s-1.08-1.48-1.18-2.67.64-2.99 1.65-4 2.21-1.83 2.68-1.83zm477.64-2.81c.85.17 1.7.87 1.88 1.56s-.36 1.59-1.2 2-2.02.3-2.61-.25-.74-1.59-.35-2.31c.4-.72 1.42-1.17 2.27-1zm-300.91-35.18c.9.01 2.3.41 3.13.89s1.16 1.37.75 1.98-1.65 1.11-2.75 1.11c-1.21 0-2.15-.79-2.38-2-.25-1.34.16-1.99 1.25-1.98zm14.36-5.85c1.24.18 2.37 1.12 2.51 2.08.19 1.28-.34 1.68-1.98 1.5-1.29-.14-2.35-1.03-2.51-2.08-.2-1.39.27-1.75 1.98-1.5zm-775.48 737.86c.69-.02 1.25.42 1.25.97s-1.46 2.24-3.25 3.75c-2.34 1.98-4.35 2.75-7.17 2.75-2.15 0-4.08-.45-4.28-1s1.56-1.54 3.92-2.2 5.18-1.89 6.28-2.72 2.56-1.53 3.25-1.55z" class="D E"/><path d="M464 1079.05c4.13-.04 11.33.65 16 1.53 4.67.89 10.75 2.51 13.5 3.61s8.04 3.98 11.75 6.4c4.62 3.01 6.75 5.04 6.75 6.4 0 1.26 1.02 2.39 2.75 3.06 1.51.58 3.79 2.27 5.07 3.75 1.27 1.48 4.41 6.07 6.97 10.19 2.56 4.13 6.33 11.78 8.37 17 2.05 5.22 4.84 13.78 6.2 19l14.16 53 14.1 53 4.92 18.5 8.04 29.5 7.03 27.5c.81 3.85 1.9 11.28 2.41 16.5.6 6.13.58 12.51-.07 18-.55 4.67-1.94 11.42-3.08 15s-3.09 8.53-4.34 11-4.58 7.31-7.4 10.75-7.95 8.31-11.38 10.82c-3.44 2.51-9.85 6.3-14.25 8.43-4.4 2.12-11.38 4.98-15.5 6.34-4.13 1.37-12 3.68-17.5 5.14l-17 4.59c-3.85 1.06-7.34 1.93-7.75 1.93s-.35-.79.13-1.75.66-2.42.4-3.25c-.27-.83.01-2.51.62-3.75.87-1.76.78-2.57-.4-3.75-.83-.83-2.17-1.5-3-1.5-.82 0-2.4.9-3.5 2-1.7 1.7-1.84 2.49-.97 5.25.57 1.79 1.68 3.92 2.47 4.75.8.83 1.46 1.84 1.47 2.25s-.99 1-2.22 1.3c-1.24.3-4.73 1.22-7.75 2.05l-19 5.05-18.31 4.7c-4.07.98-4.94.92-5.64-.34-.45-.83-2.23-6.9-3.94-13.5l-5.69-21.5-4.47-16.5-4.81-18-6.51-24.5-7.03-26.5-7.96-29.5-8.56-32-6.63-25-3.95-14.5-6.52-24c-2.84-10.45-5.51-19.45-5.95-20-.43-.55-1.07-3.59-1.41-6.75s-1.07-5.97-1.62-6.25-1.01-1.51-1.01-2.75c-.01-1.24-.44-3.6-.97-5.25-.52-1.65-2.97-10.65-5.44-20l-7.07-27c-1.42-5.5-2.34-10.56-2.04-11.25s2.9-1.74 11.04-3.43l2.75 3.59c1.88 2.45 3.44 3.51 4.92 3.34 1.61-.19 2.58-1.47 3.75-4.96.87-2.59 2.03-5.11 2.58-5.61s2.8-1.36 5-1.92l16-4.2 21-5.58 15-4.06c3.3-.92 10.95-2.71 17-3.98s14.38-2.35 18.5-2.39z" class="C"/><path d="M475.55 1423c.8 0 1.68.56 1.96 1.25s.56 2.83.63 4.75l-.01 5.25c-.07.96-.8 1.75-1.63 1.75s-2.18-1.46-3.02-3.25c-.83-1.79-1.38-4.15-1.22-5.25s.64-2.56 1.06-3.25 1.42-1.25 2.22-1.25zm4.5-15c2.54 0 2.85.28 2.2 2.02-.41 1.11-1.42 2.25-2.25 2.53s-2.11-.07-2.86-.77-1.06-1.84-.7-2.53 1.99-1.25 3.61-1.25zm6.45-6c2.3 0 2.5.37 2.5 4.5 0 2.47-.34 4.49-.75 4.47-.41-.01-1.55-.8-2.53-1.75s-1.77-2.96-1.75-4.47c.03-2.26.48-2.75 2.53-2.75zm-30.75-269.88c3.64-.07 7.81.52 10 1.42 2.06.85 5.47 3.21 7.57 5.25s5.11 6.4 6.67 9.7c1.57 3.3 4.01 10.28 5.43 15.5l9.16 34 9.96 37.5 16.52 61.5c12.2 45.06 13.14 49.17 13.28 58 .11 7.35-.25 10.23-1.6 12.75-.96 1.79-3.21 4.63-5 6.31s-5.27 4.11-7.75 5.39-10.8 4.01-18.5 6.08l-16.5 4.21c-1.38.25-3.05-.14-3.73-.89-.68-.74-2.84-7.2-4.8-14.35l-5.58-20.5-6.56-24.5-8-30-4.88-18.25-2.86-10.5-4.1-15.25c-1.47-5.5-2.77-10.9-2.88-12s-.73-3.35-1.38-5-2.79-9.3-4.77-17l-3.95-14.5c-.2-.28-1.06-3.88-1.93-8-.86-4.13-1.97-8.4-2.47-9.5-.49-1.1-3.42-11.45-6.5-23s-5.6-21.9-5.59-23c.01-1.74 2.23-2.6 17.26-6.63 10.86-2.91 19.57-4.67 23.5-4.75zm62.84 11.38c.8 1.1 1.44 2.79 1.43 3.75s-.47 1.75-1.02 1.75-1.49-1.01-2.09-2.25-.79-2.92-.43-3.75c.55-1.25.9-1.17 2.1.5zm-3.34 38.54c.41-.02.98.63 1.25 1.46s-.06 2.21-.75 3.08c-.81 1.02-2.49 1.49-4.75 1.32-1.92-.15-3.84-.41-4.25-.58s1.16-1.42 3.5-2.77 4.59-2.48 5-2.5z" class="D E"/><path d="M726.39 1006.31c2.88.19 2.92.28 7.76 18.19l8.28 31 5.6 21 2.96 11 6.26 23.5 6.18 23 1.52 5.5 3.37 12.5 4.17 15.5 4.07 15.5 5.99 22.5 6.09 22.5 4.31 16 4 15 3.07 11c.46 1.38 1.3 4.97 1.86 8s1.5 8.88 2.1 13c.84 5.85.75 10.13-.4 19.5-.87 7.06-2.74 15.81-4.54 21.25-2.08 6.27-4.47 11.1-7.43 15-2.4 3.16-6.12 7.34-8.25 9.29s-7.93 6.2-12.88 9.46-12.83 7.34-17.5 9.07-12.33 4.09-17 5.25c-4.67 1.15-12.55 2.56-17.5 3.13-6.27.72-11.58.71-17.5-.03-4.67-.58-10.75-1.64-13.5-2.34s-8.38-3.02-12.5-5.15c-5.4-2.79-9.89-6.26-16.04-12.4-5.41-5.4-10.26-11.46-13.22-16.53-2.58-4.4-5.63-10.47-6.78-13.5s-2.94-7.97-3.96-11c-1.03-3.03-3.03-10-4.46-15.5s-2.99-10.9-3.46-12-1.4-4.7-2.07-8-1.58-6.9-2.04-8-1.54-4.92-2.41-8.5l-3.46-13.5-5.05-19-10.13-38-11.5-43-7.56-28.5-5.86-21.5-5.83-21.5-6.16-23c-3.04-11.04-3.09-11.55-1.32-12.77 1.01-.7 3.08-1.26 4.59-1.25s2.98-.43 3.25-.98 1.96-1.15 3.75-1.34 8.65-1.81 15.25-3.6l19-5.11c3.85-1.02 7.29-1.53 7.65-1.15.36.39 2.33 7 4.39 14.7l7.61 28.5 6.41 24 5.59 20.5 5.39 20 3.83 14.5 3.64 13.5 7.59 28.5 7.88 28.5c1.35 4.4 3.63 12.95 5.07 19l4.43 17.5 6.54 24.5c2.6 9.9 5.98 20.7 7.52 24 1.54 3.31 4.73 7.83 7.13 10.08 3.02 2.84 6.17 4.62 10.34 5.83 5.23 1.53 6.83 1.59 12.5.52 3.58-.68 8.41-2.07 10.75-3.08 2.34-1.02 6.1-3.54 8.37-5.6s4.97-5.44 6-7.5c1.34-2.67 1.88-5.91 1.88-11.25 0-5.65-1.1-11.75-4.48-24.75l-7.98-30.25-7.08-26.5-5.1-19-2.25-8.5c-.4-1.65-1-3.45-1.34-4s-.86-2.35-1.17-4-2.99-12.22-5.95-23.5l-16.51-62-16.23-60c-2.81-10.17-4.95-19.13-4.75-19.89.22-.86 5.88-2.89 14.85-5.32l18-4.93 8.5-2.37c2.75-.75 6.3-1.28 7.89-1.17zm165.11-41.2c4.95-.07 11.7.33 15 .9s9.15 2.22 13 3.67 8.58 3.62 10.5 4.82c1.92 1.19 6.2 4.65 9.5 7.69 3.3 3.03 8.28 8.84 11.08 12.91 2.79 4.07 6.45 10.32 8.13 13.9s3.97 9.2 5.08 12.5c1.12 3.3 3.25 10.5 4.74 16l5.5 20c1.54 5.5 4 14.95 5.48 21s2.93 13.7 3.22 17c.3 3.3.88 6.67 1.28 7.5.41.83.33 6.9-.18 13.5s-1.86 15.15-3.01 19-3.84 9.92-5.99 13.5-5.83 8.53-8.19 11-5.86 5.85-7.77 7.5-4.35 3.48-5.42 4.07l-5.44 3c-1.92 1.06-3.72 2.15-4 2.43s-2.08 1.09-4 1.8c-1.92.72-8 2.81-13.5 4.66s-12.47 3.95-15.5 4.67c-3.02.72-8.2 2.23-11.5 3.34-4.39 1.48-6.08 2.56-6.29 4.02-.16 1.1 2.17 11.22 5.18 22.5l10.55 39.5 7.18 27 2.9 10.5c.45 1.38 2.27 7.9 4.04 14.5 1.78 6.6 3 12.67 2.73 13.5-.28.85-3.28 2.23-6.89 3.18l-12.89 3.26-11.5 2.7c-2.75.61-8.26 2.18-12.25 3.49s-8.15 2.38-9.25 2.38c-1.48 0-2.25-.98-2.94-3.75l-3.57-14.75c-1.44-6.05-3.45-13.47-4.46-16.5s-3.19-10.45-4.86-16.5l-8.18-30.5-7.02-26-3.85-14-4.51-17-10.51-39.5-11.91-44.5-4.49-17c-.31-1.38-2.21-8.58-4.22-16l-4.45-16.5-5.97-22.5-7-25.5c-1-3.3-2.88-10.36-4.18-15.69s-2.14-9.87-1.87-10.1c.27-.22 10.85-3.17 23.5-6.54l32.5-8.65 23-6.09c7.42-1.97 15.98-3.94 19-4.38s9.55-.86 14.5-.93z" class="C"/><path d="M865.39 1291.61c.61.17 1.45 1.01 1.86 1.85.45.92.15 2.14-.75 3.04-.83.83-2.17 1.28-3 1s-1.59-1.59-1.7-2.92.4-2.61 1.14-2.85 1.84-.29 2.45-.12zM929.48 1083c.89 0 1.54.93 1.56 2.25.02 1.24-.54 2.79-1.25 3.44-.81.74-1.86.86-2.79.32-1.25-.73-1.29-1.31-.27-3.44.68-1.41 1.92-2.57 2.75-2.57zm-45.23-65.92c2.61-.04 5.99.44 7.5 1.08s3.14 1.11 3.62 1.04 2.56 1.77 4.63 4.09c2.07 2.31 4.89 6.46 6.28 9.21s3.52 8.6 4.74 13l3.01 11 4.45 17 5.61 21c1.07 3.85 2.22 10.15 2.55 14 .34 4.02.12 8.81-.52 11.25-.63 2.4-2.75 6.01-4.87 8.3-2.06 2.23-4.31 4.03-5 4s-1.25.4-1.25.95-4.61 2.36-10.25 4.03l-13.25 3.98c-1.65.52-5.02 1.25-7.5 1.62s-4.81.26-5.2-.23c-.38-.49-2.01-5.62-3.62-11.4l-6.66-24.5-4.17-16.5c-.24-1.38-.87-3.96-1.4-5.75l-1.82-6.5-1.94-7.25-3.23-11.5-3.04-11c-.49-1.92-1.8-6.65-2.93-10.5-1.12-3.85-2.05-7.67-2.07-8.5-.01-.83.75-2.17 1.7-3s8.06-3.15 15.79-5.17c7.74-2.02 16.21-3.71 18.82-3.75zm-21.99-14.38c.52.23.91 1.63.86 3.11-.04 1.48-.42 3.01-.85 3.39s-1.34.5-2.03.25-1.34-1.76-1.45-3.37c-.12-1.73.36-3.1 1.16-3.36.75-.24 1.79-.25 2.3-.02z" class="D"/><path d="M1038 922.09c.97-.07 1.98 1.58 2.86 4.65l3.13 11.26 3.89 14.5 7.13 27 8.1 30c1.7 6.05 4.62 17.08 6.47 24.5s3.83 14.29 4.39 15.25 1.02 2.2 1.02 2.75-1.58 1-3.5 1c-2.8 0-3.7.5-4.5 2.5-.55 1.38-1 3.63-1 5 0 2.04.41 2.43 2.25 2.11 1.24-.22 3.6-.71 8.25-1.78l2.84 10.34c1.56 5.69 3.21 11.24 3.67 12.34s1.09 3.35 1.4 5 1.51 6.38 2.66 10.5l3.95 14.5 4.47 17 5.01 19 7.85 29 7.69 29c1.23 4.95 2.62 9.56 3.1 10.25.49.71.43 2.11-.14 3.25-.55 1.1-1 2.67-1 3.5s.89 1.5 2 1.5c1.1 0 2.41-.79 2.92-1.75a3.92 3.92 0 0 0 0-3.5c-.77-1.46-.3-1.91 2.83-2.71l17.25-4.58 18.5-4.97 15-4.02 20.5-5.5 12.75-3.39c2.01-.51 2.41 0 3.69 4.68l5.87 21.75 5.06 19.25c.57 2.46.29 2.84-2.62 3.64l-11.25 3.01-30 8.16c-12.1 3.33-23.92 6.36-26.27 6.74-3.12.51-4.26.36-4.25-.55.01-.69-3.47-2.85-7.73-4.81l-11.75-5.6c-2.2-1.12-5.91-3.57-12.5-8.84l-4.97 5.25c-2.74 2.89-4.87 5.38-4.75 5.55.12.16 2.13-.29 4.46-1 4.06-1.24 4.36-1.18 7 1.36 1.87 1.8 4.69 3.02 8.76 3.79 3.3.62 8.59 2.36 11.75 3.85s5.41 3.02 5 3.39-6.15 2.09-12.75 3.82l-19 4.97-19 5.02c-6.6 1.76-12.79 3.6-13.75 4.1s-2.2.91-2.75.91-1.47-1.69-2.04-3.75l-1.98-7.25-2.87-10.5c-1.06-3.85-2.2-8.46-2.52-10.25-.55-3.07-.42-3.25 2.42-3.25 1.65 0 3.22-.45 3.5-1s-.4-1.9-1.5-3-2.79-1.98-3.75-1.96-2.25-.54-2.85-1.25c-.61-.71-4.08-12.32-7.72-25.79l-9.23-34.5-5.41-20.5-6.4-24-5.51-20.5-4.59-17-5.03-19-4.01-15-3.49-13-3.36-12.5-6.63-24.5-8.18-30.5-5.87-22-4.85-18c-1.71-6.27-1.82-7.7-.69-8.75.74-.69 2.53-1.25 3.97-1.25s3.41-.44 4.37-.98 8.95-2.77 17.75-4.96l20.5-5.42c2.47-.79 5.17-1.49 6-1.54z" class="C"/><path d="M1158.16 1255.08c.36-.04.58.71.48 1.67s-.96 1.86-1.91 2-1.82-.39-1.93-1.17.45-1.64 1.25-1.92 1.75-.54 2.11-.58zm-22.5-29.08c1.83 0 3.33.45 3.33 1s-.9 1.45-2 2-2.9 1-4 1-2.08-.6-2.17-1.33.21-1.63.67-2 2.33-.67 4.17-.67zm-64.12-127c.8 0 2.01 1.13 2.7 2.51.83 1.68.92 2.85.25 3.52-.55.56-1.79.77-2.75.49-.96-.29-1.97-1.42-2.25-2.52s-.25-2.45.05-3 1.2-1 2-1zm7.45-13c1.1 0 2 .22 2 .5s.22 1.17.5 2c.36 1.07-.22 1.5-2 1.5-1.83 0-2.5-.53-2.5-2 0-1.33.67-2 2-2z" class="D"/><path d="M1220.97 873.39c2.28.1 2.69.93 5.27 10.61l5.79 21.5 6.6 24 4.24 15.87c.35 1.58.97 3.04 1.38 3.25s.75 1.51.75 2.88c0 1.38 2.03 10.04 4.51 19.25l8.4 31.25 8.07 30 7.11 26.5 5.88 22 5.88 22 6.16 23 4.98 18.5 4.46 16.5 3.53 13 6.38 24c3.06 11.55 5.24 21.33 4.85 21.74s-5.67 2.14-11.72 3.84l-17 4.54c-3.3.79-6.9 1.82-8 2.29s-5.6 1.62-10 2.55-8.28 1.32-8.61.87c-.34-.45-1.16-3.75-1.82-7.33-.67-3.58-2.33-10.33-3.69-15l-4.5-16-3.83-14.5-4.85-18.5-5.11-19.25-4.13-15.5-4.42-16.25-5.91-22-7.12-27-5.41-20-4.51-16.5-5.07-18.5-4.55-17-5.49-21-8.39-31.5-9.31-34.22c-2.34-8.37-4.03-15.44-3.76-15.72.28-.27 5.45-1.81 11.5-3.41l22.5-5.98c6.33-1.69 12.63-3.48 14-3.98 1.38-.5 3.61-.86 4.97-.8zm170.53-43.64l8 .74c1.1.14 3.13.59 4.5 1 1.38.41 5.76 2.27 9.75 4.13s10.51 5.88 14.5 8.95c4.13 3.17 9.57 8.66 12.62 12.75 2.96 3.95 6.78 9.88 8.5 13.18s3.81 7.8 4.64 10 1.77 4.45 2.09 5 1.61 4.83 2.86 9.5l4.07 15 3.63 13.69c1.01 3.95 1.61 7.44 1.34 7.75-.28.31-6.35 2.14-13.5 4.07l-25.19 6.75c-6.7 1.79-12.42 3.02-12.71 2.75-.29-.28-2.34-7.25-4.56-15.5l-5.17-19.5c-.63-2.47-2.6-7.65-4.39-11.5-2.24-4.83-4.76-8.34-8.12-11.3-2.68-2.36-6.44-4.72-8.37-5.24-1.92-.52-5.97-.94-9-.94s-7.53.61-10 1.36c-2.47.74-5.85 2.04-7.5 2.88s-5.14 3.83-7.75 6.64-5.09 6.35-5.5 7.86-.7 6.35-.65 10.75c.06 4.96.96 11.04 2.35 16l4.58 17 7.03 26.5 6.46 24 4.44 16.5 5.2 19.5 5.86 22 5.38 20 3.64 14c.87 3.58 1.95 7.4 2.41 8.5s2.09 6.95 3.64 13c1.54 6.05 4.04 13.47 5.56 16.5 1.51 3.03 4.24 7.13 6.05 9.13 2.27 2.5 5.01 4.13 8.8 5.26 3.03.9 7.3 1.62 9.5 1.61s6.25-.62 9-1.36c2.75-.73 6.8-2.25 9-3.37s5.83-4 8.07-6.4 4.66-6.17 5.37-8.37c.86-2.64 1.1-6.55.71-11.5-.32-4.13-1.28-9.86-2.12-12.75-1.45-4.94-1.43-5.21.21-4.62.96.35 2.76.8 4 1 1.61.27 2.26-.13 2.29-1.38.02-.96-.65-2.31-1.5-3s-2.78-1.01-4.29-.72c-2.73.53-2.77.45-5.49-9.75l-5.22-19.28c-1.37-4.95-2.5-9.56-2.51-10.25-.02-.69 2.33-1.87 5.22-2.62l13.25-3.49 20-5.49c6.6-1.86 12.5-3.1 13.1-2.76.61.34 1.35 1.74 1.65 3.12s1.54 6.1 2.74 10.5l5.65 21c1.9 7.15 4.37 17.95 5.48 24 1.62 8.76 1.93 13.55 1.52 23.5-.33 8.05-1.2 14.82-2.44 19-1.06 3.58-3.4 9.42-5.21 13s-4.94 8.75-6.95 11.5-7.01 7.53-11.1 10.63-10.59 7.2-14.44 9.13c-3.85 1.92-11.05 4.86-16 6.52s-11.47 3.56-14.5 4.21-7.08 1.59-9 2.08-7.55.9-12.5.91c-4.95 0-11.92-.46-15.5-1.03s-9.2-1.99-12.5-3.16-8.25-3.45-11-5.09c-2.75-1.63-6.56-4.15-8.46-5.59s-5.05-4.38-7-6.53l-4.59-5c-.58-.6-2.43-3.11-4.12-5.59-1.69-2.47-5.19-9-7.78-14.5l-5.63-11.75c-.51-.96-.92-2.88-.92-4.25 0-1.38-.34-2.67-.75-2.89-.41-.21-1.07-2.12-1.46-4.25s-1.65-7.24-2.79-11.36l-4.96-18.5-7.03-26.5-6.17-23-10-37-8.98-33a180.19 180.19 0 0 1-1.82-7c-.45-1.92-2.64-10.47-4.86-19s-4.33-17.97-4.68-21-1.12-7.75-1.71-10.5c-.79-3.68-.76-7.24.14-13.5.67-4.67 1.65-10.52 2.17-13 .53-2.48 1.92-6.98 3.1-10s4.01-8.42 6.31-12c2.29-3.58 6.15-8.47 8.58-10.88s7.11-6.21 10.41-8.44 9.15-5.51 13-7.29c3.85-1.77 10.6-4.43 15-5.9s9.13-2.81 10.5-2.98l10.67-1.29 13-1.47c2.66-.27 7.53-.27 10.83 0z" class="C"/><path d="M1479.33 1137.96c2.59-.03 4.64.54 5.42 1.5 1 1.24 1 1.86 0 3.1-.69.86-2.04 1.76-3 2s-2.76-.07-4-.71c-1.24-.63-2.55-1.64-2.91-2.25-.37-.61-.44-1.66-.17-2.35.28-.71 2.3-1.27 4.66-1.29zm-110.04-65c.5.3.64 1.11.31 1.79-.33.69-1.28 1.25-2.11 1.25s-1.72-.67-2-1.5c-.3-.89.19-1.62 1.19-1.79.93-.16 2.1-.05 2.61.25zm-16.55-49.91c2.24-.03 3.25.41 3.25 1.45 0 .83-1.91 2.45-4.25 3.61s-5.38 2.25-6.75 2.41c-1.38.17-3.29.57-4.25.89s-1.86.13-1.99-.42 2.23-2.56 5.25-4.45c3.21-2.02 6.83-3.46 8.74-3.49zM1335.21 861c.43 0 1.68.45 2.78 1s2 1.67 2 2.5-.67 1.73-1.5 2-2.29.52-3.25.54-2.42-.7-3.25-1.61c-1.34-1.48-1.29-1.8.47-3.04 1.09-.77 2.32-1.39 2.75-1.39z" class="D"/><path d="M1605.4 770.36c1.04.08 2.26.82 2.71 1.64.44.83 2.23 4.65 3.96 8.5L1619 796l6.39 14.25 5.24 11.5 4.38 9.75c.97 2.2 3.84 8.39 6.38 13.75s4.62 9.98 4.62 10.25 1.35 3.42 3 7l5.86 12.75 14.62 32.25 16.52 36.5 7.03 15.5 7.72 17 9.72 21.5 7.01 15.5 5.22 11.5 5.32 11.5c1.57 3.3 4.3 9.38 6.07 13.5l6.69 15 7.26 16 8.97 20-2.25.91c-1.24.5-5.85 1.85-10.25 2.99l-24.75 6.59-17.75 4.51c-.55 0-1.71-1.69-2.58-3.75s-3.25-7.35-5.3-11.75l-5.61-12-2.05-4.5c-.09-.28-.7-1.85-1.34-3.5-.65-1.65-3.11-7.5-5.49-13-3.06-7.1-4.87-10.1-6.23-10.33-1.05-.18-7.99 1.28-15.41 3.25l-24.5 6.61-19.25 5.25c-4.54 1.22-8.43 2.67-8.65 3.22s.02 4.6.52 9l1.88 18 2.46 23 1.52 14.25c.01.69-.66 1.25-1.48 1.25-.83 0-7.91 1.78-15.75 3.96l-23.5 6.5c-6.98 1.92-9.35 2.23-9.66 1.29-.23-.69-.7-2.83-1.04-4.75-.35-1.92-1.09-8.22-1.65-14l-1.48-16-1.96-21c-.82-8.53-1.78-16.85-2.12-18.5s-.75-5.47-.92-8.5c-.16-3.03-.59-8.2-.95-11.5s-.63-6.67-.61-7.5-.45-5.33-1.06-10-1.08-9.17-1.06-10-.6-7.8-1.39-15.5l-2.39-24-1.99-21-2.6-24.5c-.86-7.42-1.92-18.22-2.36-24l-1.43-17.5c-.35-3.85-.85-8.35-1.1-10s-1.1-9.52-1.9-17.5l-2.57-27-2.13-21c-.55-4.67-1.2-11.65-1.44-15.5s-.86-9.25-1.37-12-.81-6.13-.66-7.5c.23-2.14 1.14-2.74 6.18-4.12l16.91-4.63 29-7.71 22-6.01c2.2-.72 4.85-1.25 5.9-1.17z" class="C"/><path d="M1694.17 1089c1.01 0 2.06.45 2.33 1 .28.55-.06 1.41-.75 1.92-.78.57-1.9.48-2.99-.25-.96-.64-1.44-1.5-1.08-1.92.36-.41 1.48-.75 2.49-.75zm-112.03-240c.63 0 1.57 1.24 2.1 2.75s2.98 7.25 5.45 12.75l6.04 13.5 3.35 7.5 9.25 21 10.56 23.75 3.12 7.25s2.75 6.69 6.1 14.25l15.13 34.25 9.83 22c.44.83.49 2.08.12 2.8-.37.71-7.21 3.02-15.18 5.13l-24.25 6.45c-5.36 1.44-10.65 2.62-11.75 2.62s-2.2-.79-2.45-1.75-.91-5.35-1.46-9.75a516.58 516.58 0 0 1-1.75-16.5c-.41-4.67-.65-8.84-.54-9.25s-.21-2.89-.72-5.5c-.5-2.61-1.2-7.9-1.55-11.75s-.81-8.13-1.01-9.5c-.21-1.38-.64-4.75-.97-7.5s-.79-7.25-1.03-10a604.87 604.87 0 0 0-1.4-13.5l-1.55-12.5a257.73 257.73 0 0 1-1.13-9.5l-1.06-10-2.45-22.25c-1.06-9.76-1.94-19.77-1.94-22.25 0-2.7.46-4.5 1.14-4.5z" class="D"/><path d="M1856.36 703.33c1.21.11 2.32 1.57 3.19 4.17.73 2.2 2.96 10.3 4.94 18l5.13 19.5c.84 3.02 1.16 5.82.7 6.2-.45.39-6 2.05-12.33 3.7l-17 4.48-15.25 4.05-10.25 2.57c-.28 0-.89 1.01-1.36 2.25s-.5 3.38-.07 4.75c.44 1.38 2.46 8.8 4.49 16.5l7.5 28 5.95 22 7.55 28.5 6.41 24 4.13 14.5 4.58 16a221.36 221.36 0 0 1 2.8 11c.74 3.3 2.69 11.17 4.33 17.5l5.08 19 5.67 21 4.93 18.5 5.49 20.5 5.66 21a317.04 317.04 0 0 1 2.47 9.5c.51 2.2.59 4.35.16 4.78s-2.35.93-4.27 1.12-4.63.86-6 1.48c-1.38.62-7.67 2.51-14 4.19l-19 4.92-9.25 2.44c-1.2.39-2.02-.13-2.6-1.68-.47-1.24-1.14-3.49-1.5-5-.6-2.54-.28-2.9 4.1-4.72 2.61-1.09 5.65-2.91 6.75-4.06 1.73-1.8 1.79-2.22.5-3.01-.83-.51-2.17-.92-3-.92s-3.41.9-5.75 1.98c-2.34 1.09-4.45 1.64-4.69 1.23s-3.14-10.88-6.44-23.25c-3.3-12.38-5.79-22.72-5.53-23s2.14.03 4.19.68 4.17 1 4.72.79c.55-.22 1.31-.97 1.7-1.68.38-.71.16-2.12-.5-3.14-.9-1.4-2.54-1.89-12.1-2.15l-1.33-4.5c-.73-2.47-3.08-11.25-5.23-19.5l-5.37-19.5c-.81-2.47-1.77-6.08-2.12-8-.36-1.92-1.02-4.4-1.48-5.5s-1.52-4.92-2.36-8.5a421.02 421.02 0 0 0-3.61-14l-6.51-24.5-7.48-28-5.08-18.5-5.44-20.5-5.57-21-5.19-19.5c-1.67-6.33-3.44-12.51-3.93-13.75s-1.68-2.53-2.64-2.88-6.25.55-11.75 2l-17.25 4.63-14.5 4.03c-3.99 1.12-8.67 2.35-10.41 2.75-3.03.69-3.2.56-4.25-3.28l-3.17-11.5-3.92-14.5-3.35-12.5c-.83-3.02-1.2-5.78-.83-6.13.37-.34 7.88-2.54 16.68-4.89l26.5-7.21 16-4.42a258.56 258.56 0 0 1 9.5-2.33c2.2-.47 8.05-2.03 13-3.45 4.95-1.43 10.01-2.59 11.25-2.59s3.71-.66 5.5-1.46c1.79-.81 5.95-2.18 9.25-3.04l19-5.01 27.5-7.38c7.97-2.17 15.34-3.86 16.36-3.77z" class="C"/><path d="M1876.75 1056.67l4.64.79c1.73.35 2.84 1.17 2.75 2.06-.1 1.07-1.4 1.48-4.64 1.48-2.47 0-5.51.41-6.75.92-1.24.5-2.85.62-3.57.25-.73-.37-1.17-1.57-.99-2.67.23-1.38 1.34-2.16 3.58-2.52 1.78-.29 4.03-.43 4.99-.31zM1848 1046c1.1 0 3.14.56 4.53 1.25s2.52 1.81 2.5 2.5-1.04 1.26-2.28 1.28-3.24-.77-4.46-1.75-2.23-2.12-2.25-2.53.86-.75 1.96-.75zm12.16-66.93c1.08.55 1.93 1.88 1.9 2.96s-.73 2.19-1.56 2.46c-.83.28-2.19.16-3.04-.25s-1.77-1.42-2.05-2.25.23-2.05 1.14-2.71c1.15-.85 2.24-.91 3.61-.21zM1814.12 887c1.04 0 1.89.67 1.89 1.5s-1.01 1.99-2.25 2.58c-1.56.75-2.56.76-3.25.04-.67-.7-.55-1.55.36-2.58.75-.85 2.21-1.54 3.25-1.54zm-27.11-76.88c.28-.06 1.63.46 3 1.17 1.38.7 4.4 1.94 6.73 2.74 2.33.81 4.43 2.14 4.68 2.97s-.31 2.27-1.23 3.21-3.03 2-4.68 2.35c-2.56.55-3.1.3-3.7-1.71-.39-1.29-2.19-3.22-4-4.28s-3.63-2.41-4.03-3-.85-1.38-.99-1.75.64-.88 1.73-1.13l2.49-.57zm16-58.18c1.38-.02 3.17.69 4 1.56 1.34 1.42 1.29 1.58-.5 1.51-1.1-.04-2.9-.74-4-1.56-1.95-1.45-1.94-1.49.5-1.51z" class="D"/><path d="M2045.25 652.07c.41-.04 1.19.95 1.73 2.18.54 1.24 1.92 5.85 3.07 10.25l4.54 18 3.52 13.5c.84 2.75.78 3.66-.27 4.26-.74.42-2.47 1.03-3.85 1.36s-6.32 1.89-11 3.46c-4.68 1.58-10.53 3.29-13 3.82s-7.2 1.68-10.5 2.57l-9 2.47-24 6.47-21.25 5.61c-.14-.01-.67.77-1.18 1.73-.63 1.18-.28 4.17 1.09 9.25l5.5 20.5 4.83 18.5c.74 3.02 2.27 8.88 3.41 13l4.18 15.5 2.94 10.5a61.87 61.87 0 0 1 1.41 5.25c.32 1.51 1.26 2.98 2.08 3.25s7.46-1.13 14.75-3.12 14.15-3.99 15.25-4.45 6.05-1.81 11-3l22-5.62c7.15-1.9 13.11-3.31 13.25-3.14s1.18 3.69 2.32 7.82l3.55 13 3.59 13c1.16 4.13 2.15 9.24 2.29 15.22l-10.5 2.74-33.5 8.95-26.75 7.14c-3.2.8-3.75 1.35-3.75 3.69 0 1.51.9 5.9 2.01 9.75a455.79 455.79 0 0 1 3.61 13.5c.88 3.58 3.13 12.13 5 19l5.52 20.5 5 18.5 3.87 14.25c.73 2.75 1.52 3.75 2.99 3.75 1.1 0 8.86-1.82 17.25-4.05l33.25-9.12 20-5.37c1.1-.16 7.06-1.68 13.25-3.38 6.19-1.69 11.43-2.74 11.66-2.33s1.84 5.92 3.59 12.25 3.56 13.3 4.03 15.5 1.77 6.7 2.89 10 2.04 7.01 2.05 8.25c.02 1.87-.86 2.5-5.23 3.7l-18.25 4.92-31.5 8.49-28 7.6-22.5 5.97-28.5 7.62c-8.53 2.33-16.18 4-17 3.73-.92-.31-2.6-4.5-4.36-10.89l-4.69-16.89-3.96-14.5-3.49-13-4.81-18-9.06-34.25-5.62-22.25c0-.55 1.13-.78 2.5-.5 1.38.28 4.07.28 6 0 2.22-.32 3.5-1.05 3.5-2 0-.83-1.46-2.23-3.25-3.12-2.19-1.09-4.48-1.42-7-1-3.66.6-3.77.53-4.72-3.13l-4.04-15.25-5.57-21.5c-1.37-5.5-3.58-13.6-4.9-18s-4.44-15.65-6.94-25l-13.11-49-10.94-41-5.04-19c-1.47-5.5-3.08-10.79-3.58-11.75s-.9-2.65-.9-3.75.34-2.19.75-2.42 7.72-2.27 16.25-4.52l26.5-7.05 27.5-7.35 30.5-8.17 31.5-8.56 18.25-4.86z" class="C"/><path d="M2078.25 1006.08c.41-.04 1.43.6 2.25 1.42.82.83 1.5 1.95 1.5 2.5s-.9 1.22-2 1.5-2.7-.06-3.54-.75c-.85-.69-1.61-1.78-1.7-2.42s.5-1.39 1.29-1.67c.8-.28 1.79-.54 2.2-.58zM2063.67 995c.73 0 1.34.56 1.36 1.25.01.69-1 2.26-2.25 3.49-1.81 1.79-2.53 1.99-3.52 1s-.8-1.7.92-3.49c1.19-1.24 2.76-2.25 3.49-2.25zm-90.5-60c1.17 0 1.83.73 1.83 2 0 1.47-.67 2-2.5 2-1.38 0-2.57-.6-2.67-1.33-.09-.73.21-1.63.67-2s1.66-.67 2.67-.67zm-47.58-214.66c1.93.64 4.28 2.38 5.22 3.87s1.37 3.06.96 3.5-3.22-.22-6.25-1.46-5.6-2.84-5.71-3.55c-.11-.72.36-1.8 1.03-2.41.9-.81 2.17-.8 4.75.05z" class="D"/><path d="M1241.24 304.57l36.26.89c7.7.36 16.92 1.08 20.5 1.59s12.8 1.4 20.5 1.99c7.7.58 21.42 2.15 30.5 3.48s22.35 3.52 29.5 4.87a910.21 910.21 0 0 1 26.5 5.5l25.5 6.15 15 3.94 8.5 2.5c3.03.91 10.9 3.41 17.5 5.54l20.5 6.84c4.67 1.63 16.6 6.19 26.5 10.13s18.9 7.37 20 7.61 2.65.99 3.44 1.67c.79.67 6.19 3.27 12 5.77s20.69 9.76 33.06 16.13l25.66 13.45 15.5 9.32c6.79 4.1 18.64 11.56 26.34 16.58s20.08 13.56 27.5 18.98 20.03 15.02 28 21.34l20.98 17.07 10.46 9.08c2.19 1.92 9.62 8.74 16.52 15.14s16.38 15.62 21.07 20.5l19 20.19c5.76 6.23 10.47 11.86 10.47 12.5s-2.03 1.69-4.5 2.32l-14.5 3.88-20.5 5.53-18.5 4.99-22.5 5.97-22.5 6-16.5 4.52-31.5 8.49-37.5 10.01-20 5.3a255.56 255.56 0 0 0-11.75 3.57c-3.44 1.15-6.25 1.86-6.25 1.59s-1.91.18-4.25 1.02-5.83 1.52-7.75 1.53c-2.8.01-5.21-1.32-12-6.62l-10.5-7.98c-1.23-.83-1.71-1.86-1.25-2.65.41-.71 3.56-4.86 7-9.22s6.7-8.09 7.25-8.29 4.6 2.33 9 5.62l10 7.54 7.75 6.06c4.03 3.15 6.24 4.28 7.4 3.75.91-.41 3.83-3.56 6.5-7s4.85-6.48 4.85-6.75 1.35-1.96 3.01-3.75c1.65-1.79 3-4.26 3-5.5-.01-1.61-2.06-3.81-7.26-7.77l-15.46-11.75c-4.51-3.42-8.22-6.68-8.24-7.23s2.65-4.38 5.94-8.5c3.29-4.13 6.32-7.63 6.74-7.78s4.59 2.71 9.27 6.36c4.67 3.65 9.53 7.15 10.78 7.78s2.26 1.37 2.23 1.64 3 2.85 6.72 5.73c3.72 2.87 7.44 5.25 8.27 5.29s4.2-3.38 7.5-7.58l7.07-8.79c.59-.63 1.82-2.27 2.75-3.64 1.37-2.04 1.45-2.81.43-4.15-.69-.91-3.95-3.83-7.25-6.5l-12-9.44-11.1-8.5-18-13.97-14.14-10.75c-.69-.38-1.92-.23-2.75.32-1.01.67-2.23.65-3.75-.09-1.79-.87-2.56-.75-3.75.56-1.34 1.47-1.32 1.78.21 2.84.94.65 1.73 1.53 1.75 1.94s-.97 2.2-2.21 3.98-5.06 6.84-8.5 11.25l-7.5 9.51c-.69.82-8 10.28-16.25 21.04l-18.5 24.27c-1.92 2.6-6.55 8.66-10.28 13.46l-11.21 14.24c-2.44 3.02-4.45 6.06-4.47 6.75s.97 2.15 2.21 3.26c1.24 1.1 8 6.39 15.02 11.75s12.42 10.02 12 10.37c-.42.34-6.84 2.29-14.27 4.33l-21.5 5.68c-4.45 1.1-9.44 1.73-11.25 1.42-2.46-.42-3.48-.13-4.17 1.2-.64 1.21-5.1 2.83-28.09 8.75l-12.24-6.01c-6.73-3.3-16.97-7.98-22.74-10.39l-13.5-5.64c-1.65-.69-8.63-3.13-15.5-5.43-6.88-2.29-14.75-4.78-17.5-5.53l-13-3.57c-4.4-1.21-9.58-2.54-11.5-2.95l-11-2.34c-4.13-.88-11.78-2.27-17-3.09s-11.97-1.77-15-2.11l-9-1.06-11.5-1.28c-4.4-.46-21.05-.86-37-.88s-33.5.37-39 .87-14.95 1.61-21 2.46-18.65 3.08-28 4.95-23.53 5.2-31.5 7.39-20.58 6.08-28 8.65l-16.75 6.05-6.5 2.8-9.75 4.1c-3.58 1.49-12.35 5.66-19.5 9.27s-15.81 8.29-19.25 10.4-6.47 3.83-6.75 3.83-6.24 3.64-13.25 8.09-12.86 8.5-13 9-.7.91-1.25.91-5.16 3.02-10.25 6.71-14.2 10.81-20.25 15.82-15.72 13.52-21.5 18.93c-5.78 5.4-15.38 15.05-21.35 21.43s-14.11 15.66-18.08 20.61c-3.98 4.95-10.59 13.5-14.7 19s-9.65 13.38-12.31 17.5l-4.95 7.71c-.06.12-5.51 1.75-12.11 3.63l-24 6.6-13.5 3.78c-.83.33-2.85.76-4.5.97s-5.92 1.08-9.5 1.95-8.98 2.44-12 3.49l-8.25 2.89c-1.51.54-2.96.64-3.22.23s.26-2.1 1.15-3.75 2.68-6.15 3.98-10c1.87-5.54 2.36-9.08 2.34-17-.02-6.34-.71-12.74-1.9-17.5-1.03-4.13-3.46-10.65-5.4-14.5s-6.17-10.15-9.41-14-8.79-9.08-12.34-11.63-8.25-5.54-10.45-6.64c-2.2-1.11-7.6-3.19-12-4.63-6.94-2.26-9.72-2.61-21-2.62-11.2-.01-14.07.33-20.75 2.5-4.26 1.39-9.89 3.6-12.5 4.93s-5.76 3.35-7 4.5-2.24 1.75-2.24 1.34c.01-.41-2.28 1.5-5.09 4.25s-6.99 7.92-9.29 11.5-4.72 7.63-5.37 9c-.65 1.38-5.43 11.95-10.63 23.5-5.19 11.55-9.15 21.57-8.79 22.28.36.7 6.51 3.9 13.66 7.1l17.5 7.88 18.5 8.31 21.5 9.61c4.13 1.85 7.73 3.55 8 3.79.27.23-1.52.86-4 1.39s-8.1 1.96-12.5 3.18l-18.5 4.99-28 7.48-24 6.45-24.5 6.51-28.5 7.68-24 6.51-26 6.88-14.25 3.87c-.96.32-1.94.25-2.18-.16s.87-6.83 2.45-14.25 4.51-19.8 6.5-27.5 5.2-19.4 7.14-26c1.93-6.6 6.01-19.42 9.06-28.5s7.99-22.8 10.98-30.5l6.97-17.5 2.38-5.5c.46-1.1 4.52-10.1 9.01-20s11.34-24.08 15.21-31.5 9.37-17.55 12.22-22.5l7.71-13.5c1.39-2.48 4.89-8.33 7.77-13l12.37-19.5c3.92-6.05 11.63-17.3 17.13-25l16.52-22.53c3.59-4.69 10.12-12.96 14.52-18.36 4.4-5.41 12.73-15.04 18.5-21.42l18.84-20.64c4.59-4.98 14.94-15.28 23-22.9s19.16-17.79 24.66-22.6 18.33-15.4 28.5-23.54 20.08-15.81 22-17.05 4.62-3.2 5.98-4.36 2.6-2.11 2.75-2.11 4.66-3.02 10.02-6.72c5.36-3.69 9.86-7.07 10-7.5s.81-.78 1.5-.79c.69 0 3.27-1.37 5.75-3.04s11.48-7.24 20-12.38l23-13.48c4.13-2.28 16.73-8.76 28-14.4l29-14.08c4.67-2.1 11.88-5.16 16-6.8 4.13-1.64 9.53-3.89 12-5l7.5-3.25c1.65-.68 5.25-2.04 8-3.03l13-4.55c4.4-1.51 9.35-3.32 11-4.01s3.67-1.35 4.5-1.47 5.55-1.44 10.5-2.95l13.5-4.24c2.47-.83 7.65-2.36 11.5-3.4s13.3-3.45 21-5.35 20.75-4.79 29-6.43l26.5-5.03c6.33-1.13 18.7-3.02 27.5-4.21 8.8-1.18 20.28-2.53 25.5-2.99s18-1.26 28.39-1.79c10.39-.52 19.05-1.14 19.24-1.37.2-.23 10.37-.31 22.61-.19z" class="C"/><path d="M997.9 608.35c1.32.08 2.89.92 3.5 1.86.77 1.19.79 2.55.08 4.5-.79 2.17-1.73 2.84-4.25 3.04-2.41.19-3.62-.32-4.74-2-.83-1.24-1.51-2.92-1.5-3.75 0-.83 1.02-2.02 2.26-2.65s3.33-1.08 4.65-1zm-224.97-17.34c.86 0 4.08 2.14 7.15 4.75s9.37 7.74 14 11.4l20.42 16.35 21.29 17.34c5.11 4.21 11.15 10.13 13.41 13.15 2.27 3.02 5.17 7.75 6.44 10.5s3.04 8.38 3.92 12.5c1.12 5.23 1.41 9.77.98 15-.34 4.13-1.19 9.08-1.88 11s-2.43 5.75-3.86 8.5-3.89 6.63-5.46 8.63c-1.57 1.99-4.65 5.03-6.85 6.74l-5 3.96c-.55.47-3.36 2.05-6.25 3.51-2.89 1.47-8.06 3.33-11.5 4.15s-8.5 1.48-11.25 1.48-8.6-.92-13-2.04-10.48-3.42-13.5-5.1c-3.02-1.69-8.65-5.54-12.5-8.56l-10.5-8.44-9-7.41c-3.02-2.45-6.4-4.44-7.5-4.42s-2.57-.53-3.27-1.23-1.26-1.94-1.25-2.77-.77-2-1.73-2.62-6.25-4.78-11.75-9.26l-13.75-11.13c-2.06-1.64-3.74-3.78-3.73-4.74s2.6-4.75 5.75-8.42 7.53-9.16 9.73-12.21c2.47-3.42 4.76-5.56 6-5.6 1.1-.04 3.8 1.45 6 3.3s16.6 13.48 32 25.84l30.5 24.13c1.38.91 4.52 1.95 7 2.33 3.64.55 5.43.22 9.38-1.72 2.73-1.35 5.65-3.72 6.64-5.4.97-1.65 2.07-4.35 2.44-6s.22-4.8-.34-7-2.05-5.32-3.31-6.93c-1.27-1.61-13.29-11.74-26.72-22.5L759.39 626c-5.03-3.95-8.26-7.21-8.24-8.3.02-.99 2.58-4.99 5.69-8.88l7.57-9.7a79.83 79.83 0 0 1 4.43-5.37c1.38-1.51 3.22-2.75 4.08-2.74zM883 510.14c2.48-.07 7.42.46 11 1.2 3.58.73 9.18 2.64 12.46 4.25 3.33 1.63 9.22 6 13.37 9.92 5.16 4.87 8.41 8.98 10.68 13.5 1.8 3.58 3.83 8.52 4.52 11s1.24 8.77 1.24 14-.31 10.63-.69 12c-.37 1.38-1.67 4.75-2.88 7.5s-2.75 5.67-3.41 6.5c-.67.83-2.26 3.08-3.54 5s-7.03 7.17-12.78 11.66-10.46 8.63-10.46 9.21c0 .57.67 2 1.5 3.16.83 1.17 5.21 6.92 9.75 12.79 4.74 6.13 8.25 11.63 8.25 12.92 0 1.72-3.03 4.51-12.75 11.78-7.01 5.24-13.2 9.53-13.75 9.54-.55 0-4.41-4.4-8.57-9.78L868.36 632l-20.18-26.5-20.85-27.5-14-18.75c-1.28-1.79-2.21-4.01-2.07-4.94s4.14-4.64 8.88-8.25l18.75-14.31c5.56-4.26 10.57-7.75 11.12-7.75s1.11-.38 1.25-.84 2.27-2.4 4.75-4.3 7.51-4.37 11.19-5.49 7.73-2.27 9-2.56 4.33-.59 6.81-.67z" class="D"/><path d="M888 541.55c2.54.24 6.14 1.52 8.25 2.94 2.06 1.38 4.82 4.2 6.14 6.26 1.31 2.06 2.66 5.89 3 8.5.49 3.81.13 5.79-1.83 10-2.03 4.36-4.07 6.48-21.56 19.75l-2.58-2.75c-1.42-1.51-6.51-7.92-11.31-14.25l-9.4-12.5c-.37-.55.12-1.9 1.08-3s2.49-2.45 3.4-3 4.5-3.07 7.99-5.6 7.69-5.09 9.34-5.69 5.02-.9 7.5-.66z" class="C"/><path d="M873.8 559.03c.39.02 1.48.58 2.44 1.25s1.44 1.56 1.08 1.97-1.48.75-2.49.75-2.06-.45-2.33-1-.25-1.45.05-2 .86-.99 1.25-.97zM1621.67 489c.18 0 1.11.27 2.07.61.95.33 1.63 1.23 1.5 2s-1.36 1.39-2.73 1.39c-1.38 0-2.58-.6-2.67-1.33s.21-1.63.67-2 .98-.67 1.17-.67zm-659.38-32.45c.67.22 2.87 3.9 4.89 8.18l8.34 17.77 6.68 14.5 4.02 9 5.27 11.5 8.49 18.5c2.87 6.33 5.51 11.86 5.87 12.31s5.83-1.52 12.15-4.37l20-9.11c4.67-2.16 9.4-3.8 10.5-3.63 1.11.17 2.79 1.87 3.77 3.8.97 1.92 3.95 8.23 6.62 14s4.97 11.17 5.1 12 .19 2.06.13 2.75c-.07.69-2.71 2.53-5.87 4.09s-6.88 3.2-8.25 3.64c-1.38.44-7.9 3.38-14.5 6.53l-15.5 7.29-16 7.19c-6.88 3.09-13.15 5.49-13.94 5.32s-2.46-2.33-3.71-4.8c-1.25-2.48-4.13-8.55-6.4-13.5l-6.15-13.5-6.03-13-7.51-16.5-6.91-15.5c-1.88-4.13-3.86-8.29-4.39-9.25s-3.94-8.39-7.58-16.5l-8.51-18.75c-1.05-2.2-1.89-4.23-1.88-4.5.02-.27.36-1.05.76-1.73s7.17-4.13 15.03-7.68 14.83-6.26 15.5-6.04zm7.01-12.59c.66-.02 1.77.54 2.46 1.25 1.02 1.04 1.02 1.53 0 2.53-1 .98-1.66.98-3.16 0-1.09-.71-1.6-1.76-1.2-2.48.38-.69 1.24-1.27 1.9-1.29zm481.06-10.99c.63-.02 7.33 2.91 14.89 6.5l14.25 6.53c.28 0 6.69 2.94 14.25 6.53l14 6.5c.14-.02 5.31 2.4 11.5 5.36l18.16 8.44c6.08 2.68 6.89 3.35 6.75 5.61-.09 1.41-2.85 8.3-6.15 15.31l-6.89 14.25c-.49.83-1.96 1.43-3.26 1.34s-7.31-2.45-13.36-5.25l-12.75-6.09c-.96-.55-2.42-1-3.25-1s-1.9 1.01-2.4 2.25c-.49 1.24-2.69 6.08-4.87 10.75l-7.71 16.5-8.02 17-6.78 14.5-5.2 11.5-5.26 11.5c-1.4 3.02-3.16 6.29-3.91 7.25-1.12 1.44-1.84 1.56-4.11.67-1.51-.59-5-2.12-7.75-3.4l-12.75-5.92c-4.62-2.15-7.75-4.21-7.75-5.1 0-.83 2.31-6.56 5.13-12.75l13.57-29.25 10.8-23 6.98-15c2.55-5.5 4.83-11.01 5.07-12.25s-.01-2.25-.56-2.25-7.08-2.92-14.5-6.5-13.72-6.95-14-7.5.14-2.46.93-4.25l4.36-9.75 5.24-11.5c1.27-2.75 2.73-5.56 3.25-6.25s1.46-1.26 2.08-1.28zM1076 415.1c2.28-.12 2.71.57 4.88 7.64l4.17 13.77 3.36 11.5 8.16 29 8.18 29 1.86 6.5c.15.55.73 2.35 1.3 4s2.79 9.52 4.95 17.5c2.15 7.98 3.74 15.06 3.54 15.75-.21.69-3.41 2.09-7.13 3.12l-14.25 4c-4.13 1.17-8.51 2.13-9.75 2.13s-2.66-.79-3.16-1.75-1.81-5.13-2.92-9.25c-1.11-4.13-4.31-15.38-7.11-25l-6.2-21.5-1.87-6.5-1.89-6.5-9.37-33.31c-5.91-21.02-7.96-29.72-7.25-30.74.55-.79 4.15-2.29 8-3.35l13.5-3.89c3.58-1.08 7.63-2.03 9-2.1zm271.91-8.61c3.07.38 6.7 1.21 8.05 1.85 1.93.91 2.87 2.69 4.32 8.16l2.75 10.5c.49 1.92 1.63 7.1 2.52 11.5l2.59 12 2.41 9.75c.8 3.16 1.38 6.09 1.29 6.5s.13 1.42.48 2.25 2.46 9.15 4.68 18.5l5.61 23.5c.86 3.58 1.73 7.63 1.93 9 .2 1.38 1.9 8.58 3.77 16s3.69 15.41 4.04 17.75c.52 3.49.32 4.37-1.12 4.91-.96.36-6.47-.33-12.25-1.53l-15.38-3.41c-2.69-.67-5.14-1.9-5.46-2.72-.32-.83-1.49-5.09-2.62-9.47-1.89-7.38-2.26-8.02-5.04-8.67-1.65-.39-5.47-1.21-8.5-1.82l-23-4.5c-13.56-2.62-17.8-3.12-18.85-2.21-.74.65-3.44 4.23-10.65 14.73l-5-.66c-2.75-.36-10.17-1.64-16.5-2.84-9.71-1.84-11.54-2.48-11.78-4.12-.17-1.16 4.48-8.77 11.55-18.94l23.7-34 19.76-28.5 16.58-24.08 11.6-16.35c2.91-3.76 2.92-3.76 8.5-3.08z" class="D"/><path d="M1339.09 470.22c.38.7 1.91 6.68 3.4 13.28 1.5 6.6 2.78 12.67 2.86 13.5s-.53 1.44-1.36 1.37-6-.93-11.5-1.9-10.33-2.04-10.74-2.37 1.48-3.75 4.2-7.6l8.7-12.28c2.5-3.5 3.99-4.85 4.44-4z" class="C"/><path d="M1042.83 404.97c.37-.02 1.35 1.18 2.17 2.65.83 1.47 1.34 3.62 1.15 4.78-.19 1.15-.87 2.68-1.5 3.39s-1.49 1.27-1.9 1.25-1.02-1.06-1.34-2.29c-.33-1.24-.29-3.94.08-6s.97-3.76 1.34-3.78zm151.17-7.39c5.78.07 12.08.47 14 .88s6.42 2.15 10 3.87 6.61 3.48 6.75 3.9.7.54 1.25.27 1-.05 1 .5.45 1 1 1 2.36 1.01 4.02 2.25 3.01 3.04 3 4-2.16 4.41-4.77 7.66l-10 12.5c-2.89 3.62-5.92 6.59-6.75 6.59s-3.86-1.19-6.75-2.64c-4.06-2.04-6.83-2.66-12.25-2.75-3.85-.06-8.58.21-10.5.6s-6.31 2.75-9.75 5.25c-4.94 3.59-6.82 5.74-8.95 10.29-2.3 4.88-2.71 7.11-2.75 14.75-.03 6.51.46 10.24 1.79 13.5 1.01 2.48 3.48 6.64 5.5 9.25 2.01 2.61 5.91 5.99 8.66 7.5 4.47 2.45 6 2.74 14.5 2.72 7.68-.02 10.27-.42 13.5-2.12 2.2-1.15 5.46-3.28 7.25-4.72s3.59-2.64 4-2.66 3.67 2.47 7.25 5.54l12.75 11.04c3.44 3 6.27 6.03 6.29 6.71.02.69-3.02 4.17-6.76 7.75-3.77 3.61-9.91 8.13-13.79 10.17-3.85 2.02-10.59 4.55-14.99 5.63-5.7 1.4-10.44 1.87-16.5 1.62-4.67-.19-10.75-.88-13.5-1.54s-7.92-2.51-11.5-4.11-8.97-4.77-12-7.04-7.63-6.4-10.23-9.18-4.74-5.62-4.75-6.3c-.01-.69-.36-1.25-.77-1.25s-1.93-1.91-3.37-4.25-3.4-6.5-4.36-9.25c-.95-2.75-2.1-5.9-2.54-7-.45-1.1-1.3-4.14-1.89-6.75-.6-2.61-1.08-9.02-1.08-14.25s.49-11.86 1.09-14.75 1.75-7.27 2.56-9.75 3.06-7.42 5.01-11 5.64-8.93 8.19-11.9 7.34-7.44 10.64-9.94 9.6-6.07 14-7.93c4.4-1.87 9.8-3.7 12-4.09 2.2-.38 8.72-.63 14.5-.56zM1445.6 385c.77 0 2.3 1.35 3.4 3s2 3.23 2 3.5-.9.95-2 1.5c-1.46.73-2.47.61-3.75-.45-1.16-.96-1.63-2.49-1.4-4.5.2-1.78.93-3.05 1.75-3.05zm-379.55-17c.53 0 1.22 2.36 1.53 5.25s.23 7.05-.17 9.25-1.62 5.58-2.71 7.5-2.6 4.06-3.34 4.75c-.75.69-1.37.91-1.38.5s.62-2.33 1.42-4.25c.79-1.92 1.72-6.42 2.07-10 .35-3.57.85-7.96 1.12-9.75s.93-3.25 1.46-3.25zm71.25-39.22c.48.4.05 2.02-.96 3.6-1.01 1.59-3.08 3.5-4.59 4.25-1.74.86-2.93 1-3.25.37-.28-.55.22-1.96 1.09-3.14.88-1.18 2.77-2.97 4.21-3.97s3.01-1.5 3.5-1.11z" class="D"/><path d="M1178.25 108.03c.41-.01 4.91 5.23 10 11.65l26.53 33.25 22.74 28.57c3 3.85 10.75 13.48 17.22 21.41 6.47 7.92 12.32 14.56 13.01 14.75s5.19-4.04 10-9.41l16.82-18.25c4.44-4.68 9.09-9.85 10.32-11.5 1.24-1.65 5.72-6.6 9.97-11s8.99-9.57 10.55-11.5c1.55-1.93 6.71-7.76 11.46-12.97l14.73-16 9-9.81c1.6-1.8 3.13-3.27 3.41-3.26s1.29 1.37 2.25 3.03 1.75 3.24 1.75 3.51c0 .28-1.13.72-2.5 1-1.38.28-2.72 1.18-3 2s.4 2.4 1.5 3.5c1.24 1.24 3.33 2 5.5 2 3.38 0 3.64.27 7.61 8.25l9.37 18.25 14 27c4.81 9.35 9.33 17.68 10.06 18.5.72.82 1.32 1.73 1.32 2s.42 1.63.94 3c.52 1.38 2.61 5.88 4.65 10 2.04 4.13 4.01 7.73 4.38 8s2.25 3.53 4.17 7.24 4.06 6.97 4.75 7.25 2.71-.47 4.5-1.68c1.79-1.2 10.22-7.36 18.75-13.69l24.5-18.14 27-19.98 27.5-20.33 10.79-8.08c.86-.73 1.6-.76 2.22-.1.51.55 3.61 10.45 6.89 22l12.96 45 12.07 41.5 6.32 21.75c.68 2.34 1.8 4.47 2.49 4.75s5.19-1.35 10-3.62l17.75-8.37 20.5-9.74 15-7.05c1.92-.86 8.67-4.02 15-7.02l22-10.41 18.5-8.74c4.74-2.25 8.71-3.54 9.75-3.17 1.45.52 1.75 1.87 1.75 7.87 0 3.99.41 10.85.91 15.25s1.43 14.07 2.06 21.5l2.15 23.5c.55 5.5 1.18 13.6 1.41 18s.88 10.25 1.44 13c.57 2.75.99 6.35.94 8s.17 5.7.48 9l1.05 11.5c.26 3.02.5 6.96.52 8.75.03 2.22.6 3.41 1.79 3.74.96.27 24.92-5.34 53.25-12.47l57-14.61c3.03-.91 7.75-1.99 10.5-2.41s7.25-1.4 10-2.19 5.56-1.29 6.25-1.12 1.03 1.1.76 2.06-.98 6.93-1.56 13.25l-1.51 16.5c-.24 2.75-.88 8.15-1.43 12-.54 3.85-1.7 13.3-2.56 21l-2.43 21c-.47 3.85-.64 7.45-.38 8s.02 2.8-.54 5-1.52 8.95-2.14 15l-1.85 18c-.4 3.85-.58 7.56-.42 8.25.22.92 3.67 1.25 13.05 1.23 7.01-.01 17.03-.48 22.25-1.04s14.67-1.01 21-.99 15.78-.4 21-.93 16.93-1.24 26-1.58l20.5-.94c2.2-.17 7-.47 10.67-.66s6.96-.12 7.32.16c.36.27-.46 4.1-1.81 8.5l-6.32 20.37c-3.28 10.52-4.23 12.52-6.36 13.35-1.38.53-6.55 2.02-11.5 3.3l-20.5 5.49-18.5 5.06-10 2.78c-2.29.68-3.77.44-6.25-.98-1.95-1.12-3.89-1.57-4.86-1.12-.89.41-1.81 1.88-2.06 3.25-.41 2.26-1.48 2.77-11.14 5.26l-39.69 10.63-3.03-3.2c-1.66-1.76-4.06-4.55-5.32-6.2s-7.1-8.33-12.97-14.84c-5.88-6.51-17.88-19.12-26.68-28.01l-24-23.59-12.5-11.51c-2.47-2.25-8.78-7.7-14-12.11-5.22-4.42-11.3-9.36-13.5-10.99s-5.13-4.01-6.5-5.28c-1.38-1.28-9.25-7.39-17.5-13.57l-22-16.23c-3.85-2.74-12.85-8.82-20-13.52-7.15-4.69-20.2-12.82-29-18.06l-27.5-15.83c-6.33-3.47-19.15-10.06-28.5-14.64-9.35-4.59-17.56-8.34-18.25-8.33s-1.25-.44-1.25-.99-.45-1-1-1-6.51-2.43-13.25-5.39a674 674 0 0 0-25.25-10.38l-17-6.24c-2.2-.69-4.45-1.59-5-2s-8.2-3.16-17-6.11-16.67-6.09-17.5-6.98c-.9-.97-3.1-1.61-5.5-1.61-2.2 0-5.58-.47-7.5-1.05s-6.88-1.99-11-3.14l-21.5-5.67-18.5-4.5-15-2.98-16-3.05-17.5-2.94c-6.6-1.07-13.35-2.36-15-2.86-1.65-.51-7.72-1.23-13.5-1.61l-13.5-.96-14-1.37c-6.05-.61-17.3-1.38-25-1.71s-26.83-.55-42.5-.48l-38.5.48a678.1 678.1 0 0 0-19 .97c-4.95.34-13.95 1.1-20 1.68s-18.65 2.14-28 3.47l-23 3.46-14.5 2.49c-4.67.79-12.55 2.37-17.5 3.51l-13 2.96-8 1.88c-2.2.55-7.38 1.74-11.5 2.66-4.13.92-13.8 3.46-21.5 5.65s-20.97 6.21-29.5 8.95l-22.5 7.52-20 7.57c-7.15 2.76-19.97 7.98-28.5 11.6s-26.08 11.87-39 18.34l-30 15.39-12 6.72c-3.02 1.71-12.02 7.15-20 12.1s-14.61 9.37-14.75 9.82-.7.82-1.25.82-5.16 2.78-10.25 6.18-14.2 9.76-20.25 14.14l-11.5 8.57c-.27.34-2.08 1.7-4 3.03s-8.67 6.5-15 11.5l-14 11.2c-1.38 1.16-6.24 5.44-10.81 9.5l-13 11.39c-2.58 2.2-12.28 11.42-21.55 20.5s-23.45 23.7-31.51 32.5l-17.64 19.61-7.14 8.5c-2.28 2.69-7.23 8.74-11 13.44l-8.85 11.35a204.88 204.88 0 0 1-4.87 6.45c-1.58 2.01-7.03 9.5-12.12 16.65s-14.26 20.76-20.38 30.25l-11.13 17.75c0 .27-1.28 2.41-2.84 4.75s-6.32 10.55-10.57 18.25l-9.19 16.5c-.8 1.38-5.91 11.5-11.34 22.5s-12.57 26.08-15.86 33.5-6.82 15.92-7.84 18.88-2.2 5.55-2.61 5.75-.75 1.27-.75 2.37c0 1.17-.83 2.21-2 2.5-1.6.4-1.92 1.16-1.62 3.75.21 1.79-.19 4.38-.89 5.75-.7 1.38-4.53 12.17-8.52 24l-9.17 28c-1.06 3.58-2.98 10.55-4.28 15.5l-4.05 15c-.93 3.3-2.51 9.83-3.51 14.5l-3.42 15.5c-.88 3.85-2.92 13.53-4.55 21.5s-3.08 14.54-3.22 14.6c-.14.05-4.99 1.33-10.76 2.84l-16 4.26c-3.02.83-6.17 1.77-7 2.08s-5.55 1.56-10.5 2.77-10.35 2.67-12 3.25c-1.65.57-6.38 1.79-10.5 2.71-4.13.92-8.85 2.08-10.5 2.58s-6.15 1.75-10 2.79L355 954l-17 4.66c-7.42 2.12-8.75 2.25-10.5 1.03-1.1-.77-5.82-4.95-10.5-9.29l-13-12.09c-2.48-2.31-4.27-4.39-4-4.63s5.9-3.25 12.5-6.68l23-11.98 29-15.09 30-15.66 21.26-11.04c5.53-2.82 9.25-5.33 9.23-6.22-.01-.83-3.88-6.67-8.6-13l-10.97-14.5c-1.32-1.65-5.44-7.21-9.16-12.35l-23.63-32-19.94-27.15c-1.69-2.48-4.78-6.52-6.86-9-2.09-2.48-3.8-5.06-3.81-5.75-.01-.7 3.16-2.16 7.23-3.32l16.75-4.95 43-12.58 38-10.98 16.5-4.81c7.41-2.17 12.46-4.21 13.21-5.32.98-1.45.86-2.46-.65-5.29-1.02-1.92-3.93-7.89-6.46-13.25l-4.58-10c.01-.14-3.4-7.45-7.59-16.25l-11.42-24-7.91-16.75c-2.26-4.81-4.1-9.2-4.1-9.75s-.45-1-1-1-1-.67-1-1.5-2.48-6.56-5.52-12.75l-6.5-13c-.54-.96-.98-2.54-.99-3.5-.01-1.39 1.26-1.92 6.25-2.58 3.44-.46 9.64-1.03 13.76-1.26 4.13-.24 10.42-.91 14-1.5s10.1-1.26 14.5-1.5l14.5-.97 25-2.08 24-1.98c3.02-.23 10.63-.98 16.89-1.65 6.27-.67 11.57-1.67 11.79-2.22s-2.99-14.73-7.14-31.5l-8.99-35.5c-.8-2.75-3.78-14.67-6.62-26.5l-8.06-32.5c-1.59-6.05-2.78-11.12-2.64-11.27s5.66.25 12.26.9l16.5 1.48c2.48.17 7.65.75 11.5 1.28 3.85.54 12.17 1.47 18.5 2.08l28.5 3.05 27.5 3.01 17.75 2.02c3.99.53 7.7.73 8.25.46s1-3.99.99-8.25-.48-15.4-1.06-24.75l-1.42-26-1.53-33-1.49-30c-.19-3.3-.39-9.15-.44-13s.14-7.11.43-7.25 5.13 1.28 10.77 3.15l23.75 7.54 31 9.69 23 7.34 23 7.36 20 6.12c1.38.3 3.08.21 3.8-.21.71-.42 1.7-3.91 2.18-7.76.49-3.85 1.59-11.27 2.44-16.5l3.14-20 3.96-25 2.68-17.5c.22-2.23.81-3 2.3-3 1.23 0 2.12-.77 2.32-2 .18-1.1-.41-2.68-1.29-3.5-.89-.82-1.6-2.63-1.59-4 .02-1.38.44-3.85.93-5.5.5-1.65 1.43-6.82 2.08-11.5s1.71-11.54 2.36-15.26c.72-4.11 1.67-6.75 2.44-6.75.69 0 3.39 1.02 6 2.26s4.98 2.5 5.25 2.81 3.65 2.28 7.5 4.39l14.5 7.84c4.13 2.2 8.63 4.79 10 5.75 1.38.96 7.9 4.65 14.5 8.21l16.5 8.78 6 3.1c.83.43 10.28 5.64 21 11.58s20.37 10.8 21.43 10.8c1.55 0 2.7-2.17 5.85-11l8.88-25 8.83-24.5 11.54-32 10.92-30.5c1.8-4.95 3.67-9.13 4.16-9.29s7.53 5.35 15.64 12.25 15.09 12.54 15.5 12.54 1.92 1.24 3.34 2.75c1.43 1.51 5.93 5.44 10 8.73s10.22 8.57 13.66 11.75 7.39 6.34 8.78 7.03 2.51 1.48 2.49 1.75 3.45 3.42 7.72 6.98l8.26 7.06c.28.31 5.56 4.71 11.75 9.77s11.81 8.97 12.5 8.7 2.6-2.74 4.25-5.49l11.21-18.76c4.51-7.57 8.11-14.02 8-14.33s.64-1.44 1.68-2.5 3.72-5.08 5.97-8.93 3.99-7.34 3.87-7.75.11-.75.53-.74c.41 0 1.88-2.13 3.25-4.75 1.38-2.62 2.81-4.98 3.18-5.26.37-.27 2.85-4.2 5.5-8.72l15.32-25.72c5.78-9.63 10.84-17.51 11.25-17.53z" class="C"/><path d="M522 693.58c.45.34.64 2.93.42 5.77-.23 2.91-1.21 6.24-2.27 7.65-1.03 1.38-2.27 2.27-2.76 2s-.81-1.4-.72-2.5c.1-1.1.77-4.02 1.51-6.5.73-2.48 1.7-5.07 2.16-5.77s1.2-.99 1.65-.65zm4.14-10.58c1.44 0 1.54.29.55 1.63-.66.9-2.32 2.03-3.7 2.51-1.38.49-2.61.65-2.75.37s.74-1.41 1.95-2.51 2.98-2 3.95-2zm-27.84-25.82c1.59.23 2.2 1.01 2.2 2.82 0 1.85-.58 2.56-2.25 2.75-1.4.16-2.48-.41-2.86-1.5-.33-.96-.31-2.34.05-3.07s1.65-1.18 2.86-1zm4.95-69.1c1.51-.04 3.03.48 3.37 1.17s.34 2.26 0 3.5-1.63 2.75-2.87 3.36-3.38.87-4.75.57c-1.38-.3-2.8-1.36-3.17-2.36s-.15-2.56.5-3.46 1.85-1.88 2.67-2.17c.83-.29 2.74-.57 4.25-.62zM1848.58 530c.23 0 1.32.45 2.42 1s2 1.9 2 3-.45 2.23-1 2.5-1.93-.29-3.06-1.25c-1.32-1.12-1.83-2.38-1.42-3.5.35-.96.83-1.75 1.06-1.75zm69.15-7.82c1.65.19 2.77.93 2.77 1.82 0 .93-.94 1.5-2.49 1.5-1.64 0-2.58-.62-2.77-1.82-.22-1.45.28-1.76 2.49-1.5zm11.38-16.18c.49 0 1.56.67 2.39 1.5s1.5 2.17 1.5 3-.79 1.51-1.75 1.52-2.65-.62-3.75-1.39c-1.72-1.21-1.81-1.64-.64-3.02.75-.88 1.76-1.61 2.25-1.61zm32-3c1.04 0 1.89.45 1.89 1s-1.1 2.13-2.45 3.5c-1.35 1.38-3.6 2.5-5 2.5s-2.59-.27-2.64-.6 1.35-1.9 3.11-3.5 4.06-2.9 5.1-2.9zm-607-350c3.96 0 5.98.71 10.64 3.75l6.75 4.44c.61.42.21 1.51-1 2.79-1.1 1.15-2.79 2.08-3.75 2.06s-3.89-1.62-6.5-3.56-5.09-3.52-5.5-3.5-2.33-.64-4.25-1.47c-2.85-1.22-3.29-1.78-2.39-3 .72-.98 2.82-1.5 6-1.5z" class="D"/></svg>