<svg width="124" height="31" viewBox="0 0 124 31" fill="none" xmlns="http://www.w3.org/2000/svg">
<path d="M16.1939 9.89951V9.953C17.2024 10.118 17.9755 11.0163 17.9755 12.0965C17.9755 13.1765 17.2024 14.0748 16.1939 14.2398V14.3072H12.8508V23.7961L15.5307 26.5449L15.5285 17.04L15.8629 17.0395C18.5185 17.0375 20.679 14.82 20.679 12.0965C20.679 9.39555 18.5367 7.17835 15.9035 7.15377L15.839 7.15336H10.0205L12.6982 9.89951H16.1939Z" fill="#fff"/>
<path d="M15.1133 2.11222C22.3106 2.11222 28.1663 8.11765 28.1663 15.4995C28.1663 22.8814 22.3106 28.887 15.1133 28.887C7.91569 28.887 2.06022 22.8814 2.06022 15.4995C2.06022 8.11765 7.91569 2.11222 15.1133 2.11222ZM15.1133 31C23.4467 31 30.2265 24.0464 30.2265 15.4995C30.2265 6.95264 23.4467 -0.000812531 15.1133 -0.000812531C6.77978 -0.000812531 0 6.95264 0 15.4995C0 24.0464 6.77978 31 15.1133 31Z" fill="#fff"/>
<path d="M51.222 12.6527C50.4078 13.3804 49.2483 13.7438 47.7432 13.7438H43.6907V5.45023H47.5211C50.8024 5.45023 52.4434 6.81034 52.4434 9.53055C52.4434 10.8846 52.0363 11.9251 51.222 12.6527ZM54.0718 4.12179C52.6037 2.75525 50.636 2.07204 48.1689 2.07204H39.9712V28.623H43.6907V17.1222H46.4293C48.872 17.1222 50.747 16.8535 52.0548 16.3155C53.3624 15.7778 54.3924 14.9143 55.1451 13.725C55.8975 12.5358 56.2738 11.1692 56.2738 9.6256C56.2738 7.32283 55.54 5.48817 54.0718 4.12179Z" fill="#fff"/>
<path d="M81.6423 18.5663L80.4393 17.8643C79.5261 17.346 78.8875 16.9035 78.5245 16.536C78.1614 16.169 77.9799 15.7825 77.9799 15.3768C77.9799 14.9083 78.1802 14.5314 78.5813 14.2463C78.982 13.9615 79.5093 13.8188 80.1635 13.8188C80.9409 13.8188 81.8551 14.0522 82.9053 14.5165L85.0669 12.2994V12.2625C83.3153 11.3012 81.6067 10.8202 79.9411 10.8202C78.3374 10.8202 77.0268 11.2441 76.0093 12.0917C74.9915 12.9395 74.4825 14.0341 74.4825 15.3751C74.4825 16.4125 74.8182 17.371 75.4907 18.2503C76.1633 19.1298 77.5847 20.1895 79.7564 21.4292C80.8419 22.0621 81.5481 22.5458 81.8751 22.8811C82.2018 23.2165 82.3655 23.6373 82.3655 24.1432C82.3655 24.6365 82.1126 25.0608 81.6067 25.4148C81.1006 25.7691 80.4963 25.9461 79.793 25.9461C79.1147 25.9461 78.2787 25.7343 77.2859 25.3103C76.9963 25.187 76.7092 25.0512 76.4236 24.9055L74.3716 27.0105V27.3697C75.5677 27.9644 76.5611 28.3725 77.3506 28.5937C78.1399 28.8148 79.0404 28.9258 80.0523 28.9258C81.7668 28.9258 83.1704 28.4674 84.262 27.5504C85.3536 26.6335 85.8997 25.46 85.8997 24.0307C85.8997 22.0323 84.4802 20.2109 81.6423 18.5663Z" fill="#fff"/>
<path d="M105.015 18.1277C105.25 16.7487 105.753 15.6859 106.524 14.9391C107.294 14.1929 108.284 13.8195 109.494 13.8195C110.702 13.8195 111.665 14.1929 112.38 14.9391C113.096 15.6859 113.497 16.7487 113.583 18.1277H105.015ZM109.494 10.8209C107.149 10.8209 105.244 11.653 103.776 13.3165C102.308 14.9805 101.574 17.1408 101.574 19.7979C101.574 21.5695 101.922 23.1284 102.619 24.4762C103.316 25.8235 104.244 26.8958 105.404 27.6927C106.563 28.49 108.081 28.8887 109.956 28.8887C111.326 28.8887 112.519 28.7365 113.537 28.4331C114.555 28.1295 115.582 27.6233 116.618 26.9148V23.5365C114.743 24.9538 112.695 25.6621 110.475 25.6621C108.883 25.6621 107.584 25.1686 106.579 24.1819C105.573 23.195 105.028 21.8664 104.941 20.1963H116.914V19.7598C116.914 17.0398 116.241 14.8698 114.897 13.2501C113.552 11.6307 111.751 10.8209 109.494 10.8209Z" fill="#fff"/>
<path d="M120.633 6.02757V28.623H124.001V2.57342L120.633 6.02757Z" fill="#fff"/>
<path d="M93.7275 22.8196V14.2742H99.1121V11.1617H93.7275V7.5559L89.245 12.0726L87.3989 13.9328V14.2742H90.3597V18.0034V22.0177C90.3597 23.5993 90.4303 24.6716 90.5725 25.2343C90.7142 25.7975 90.8899 26.2532 91.0998 26.6009C91.3095 26.9491 91.5746 27.2621 91.8955 27.5404C92.9194 28.4639 94.2023 28.9258 95.7445 28.9258C97.2742 28.9258 98.6866 28.5526 99.982 27.806V24.5796C98.6373 25.4023 97.3605 25.8132 96.1516 25.8132C94.5354 25.8132 93.7275 24.8154 93.7275 22.8196Z" fill="#fff"/>
<path d="M63.4355 26.5155C62.7197 26.5155 62.1369 26.2878 61.6868 25.8322C61.2362 25.3768 61.0114 24.7886 61.0114 24.0674C61.0114 23.3587 61.2486 22.7673 61.7237 22.2928C62.1985 21.8184 63.0098 21.347 64.1571 20.879L66.4148 19.9869V24.0392V25.1678C66.1316 25.4467 65.8407 25.6817 65.5424 25.8738C64.8782 26.3016 64.1762 26.5155 63.4355 26.5155ZM69.7272 25.5477V18.127C69.7272 16.6595 69.6868 15.6629 69.607 15.1377C69.5265 14.6129 69.3386 14.0877 69.0425 13.5625C68.7463 13.0377 68.4132 12.6168 68.0433 12.3005C66.9328 11.3135 65.4586 10.8202 63.6205 10.8202C61.1656 10.8202 59.2842 11.6109 57.9766 13.1925V16.9691C59.716 15.0209 61.5047 14.0465 63.3429 14.0465C65.3906 14.0465 66.4148 15.0968 66.4148 17.1969V18.127L62.1032 19.6453C60.6844 20.1514 59.5894 20.8379 58.8187 21.7046C58.0475 22.5712 57.6621 23.5549 57.6621 24.6557C57.6621 25.8701 58.0568 26.8794 58.8463 27.6827C59.6358 28.4862 60.6228 28.8879 61.807 28.8879C63.423 28.8879 64.9466 28.3186 66.3779 27.1798C66.6096 28.2216 67.3174 28.7956 68.4979 28.905C68.6364 28.9179 68.7797 28.9258 68.9315 28.9258C69.4371 28.9258 69.9212 28.834 70.384 28.6506C70.8466 28.4674 71.4602 28.1223 72.2253 27.6163V25.5097C71.3615 26.1297 70.7261 26.4395 70.3193 26.4395C69.9244 26.4395 69.7272 26.1423 69.7272 25.5477Z" fill="#fff"/>
</svg>
