<?xml version="1.0" encoding="utf-8"?>
<!-- Generator: Adobe Illustrator 16.0.0, SVG Export Plug-In . SVG Version: 6.00 Build 0)  -->
<!DOCTYPE svg PUBLIC "-//W3C//DTD SVG 1.1//EN" "http://www.w3.org/Graphics/SVG/1.1/DTD/svg11.dtd">
<svg version="1.1" id="Layer_1" xmlns="http://www.w3.org/2000/svg" xmlns:xlink="http://www.w3.org/1999/xlink" x="0px" y="0px"
	 width="469.929px" height="612px" viewBox="71.036 90 469.929 612" enable-background="new 71.036 90 469.929 612"
	 xml:space="preserve">
<g>
	<path fill="#E9E9E0" d="M404.193,90H87.024c-8.831,0-15.989,7.158-15.989,21.048v580.023c0,3.771,7.158,10.929,15.989,10.929
		h437.951c8.83,0,15.989-7.158,15.989-10.929v-459.24c0-7.606-1.017-10.054-2.81-11.857L410.991,92.809
		C409.188,91.017,406.739,90,404.193,90z"/>
	<polygon fill="#D9D7CA" points="409.821,91.65 409.821,221.143 539.314,221.143 	"/>
	<path fill="#D75E72" d="M524.976,702H87.024c-8.831,0-15.989-7.158-15.989-15.988V516.214h469.928v169.798
		C540.964,694.842,533.806,702,524.976,702z"/>
	<g>
		<path fill="#FFFFFF" d="M178.802,669.214l38.545-109.974h17.781l38.261,109.974h-18.535l-7.923-22.862h-41.387l-8.065,22.862
			H178.802z M209.73,634.254h32.873l-16.284-47.518L209.73,634.254z"/>
		<path fill="#FFFFFF" d="M325.978,669.815L291.76,559.098h20.469l25.551,95.024l27.048-95.024h20.316l-35.856,110.718H325.978z"/>
		<path fill="#FFFFFF" d="M426.083,669.214h-18.229V559.098h18.229V669.214z"/>
	</g>
	<polygon fill="#C8BDB8" points="256.821,396 256.821,318.997 256.821,243 377.036,319.5 	"/>
</g>
</svg>
