<?xml version="1.0" encoding="utf-8"?>
<!-- Generator: Adobe Illustrator 16.0.0, SVG Export Plug-In . SVG Version: 6.00 Build 0)  -->
<!DOCTYPE svg PUBLIC "-//W3C//DTD SVG 1.1//EN" "http://www.w3.org/Graphics/SVG/1.1/DTD/svg11.dtd">
<svg version="1.1" id="Layer_1" xmlns="http://www.w3.org/2000/svg" xmlns:xlink="http://www.w3.org/1999/xlink" x="0px" y="0px"
	 width="469.929px" height="612px" viewBox="71.036 90 469.929 612" enable-background="new 71.036 90 469.929 612"
	 xml:space="preserve">
<g>
	<path fill="#E9E9E0" d="M404.193,90H87.024c-8.831,0-15.989,7.158-15.989,21.048v580.023c0,3.771,7.158,10.929,15.989,10.929
		h437.951c8.83,0,15.989-7.158,15.989-10.929v-459.24c0-7.606-1.017-10.054-2.81-11.857L410.991,92.809
		C409.188,91.017,406.739,90,404.193,90z"/>
	<polygon fill="#D9D7CA" points="409.821,91.65 409.821,221.143 539.314,221.143 	"/>
	<path fill="#8697CB" d="M202.179,232.071h-65.572c-6.032,0-10.928-4.896-10.928-10.929c0-6.032,4.896-10.928,10.928-10.928h65.572
		c6.032,0,10.928,4.896,10.928,10.928C213.107,227.175,208.211,232.071,202.179,232.071z"/>
	<path fill="#8697CB" d="M234.964,286.714h-98.357c-6.032,0-10.928-4.896-10.928-10.929s4.896-10.928,10.928-10.928h98.357
		c6.033,0,10.929,4.896,10.929,10.928S240.997,286.714,234.964,286.714z"/>
	<path fill="#8697CB" d="M278.679,286.714c-2.842,0-5.683-1.202-7.759-3.169c-1.967-2.076-3.169-4.918-3.169-7.759
		s1.202-5.683,3.169-7.759c4.043-4.043,11.475-4.043,15.519,0c1.967,2.077,3.169,4.918,3.169,7.759s-1.202,5.683-3.169,7.759
		C284.361,285.512,281.52,286.714,278.679,286.714z"/>
	<path fill="#8697CB" d="M409.821,286.714h-87.429c-6.032,0-10.929-4.896-10.929-10.929s4.896-10.928,10.929-10.928h87.429
		c6.032,0,10.929,4.896,10.929,10.928S415.854,286.714,409.821,286.714z"/>
	<path fill="#8697CB" d="M136.607,450.643c-2.841,0-5.683-1.202-7.759-3.169c-1.967-2.076-3.169-4.918-3.169-7.76
		c0-2.841,1.202-5.683,3.169-7.759c4.044-4.044,11.475-4.044,15.519,0c1.967,2.076,3.169,4.809,3.169,7.759
		c0,2.842-1.202,5.684-3.169,7.76C142.29,449.44,139.449,450.643,136.607,450.643z"/>
	<path fill="#8697CB" d="M267.75,450.643h-87.429c-6.032,0-10.928-4.896-10.928-10.929c0-6.032,4.896-10.928,10.928-10.928h87.429
		c6.033,0,10.929,4.896,10.929,10.928C278.679,445.747,273.783,450.643,267.75,450.643z"/>
	<path fill="#8697CB" d="M475.393,286.714h-21.856c-6.033,0-10.929-4.896-10.929-10.929s4.896-10.928,10.929-10.928h21.856
		c6.033,0,10.929,4.896,10.929,10.928S481.426,286.714,475.393,286.714z"/>
	<path fill="#8697CB" d="M377.036,341.357H136.607c-6.032,0-10.928-4.896-10.928-10.928c0-6.033,4.896-10.929,10.928-10.929h240.429
		c6.032,0,10.928,4.896,10.928,10.929C387.964,336.461,383.068,341.357,377.036,341.357z"/>
	<path fill="#8697CB" d="M475.393,341.357h-65.571c-6.032,0-10.929-4.896-10.929-10.928c0-6.033,4.896-10.929,10.929-10.929h65.571
		c6.033,0,10.929,4.896,10.929,10.929C486.321,336.461,481.426,341.357,475.393,341.357z"/>
	<path fill="#8697CB" d="M180.321,396h-43.714c-6.032,0-10.928-4.896-10.928-10.929c0-6.032,4.896-10.928,10.928-10.928h43.714
		c6.033,0,10.929,4.896,10.929,10.928C191.25,391.104,186.354,396,180.321,396z"/>
	<path fill="#8697CB" d="M333.321,396H224.036c-6.033,0-10.929-4.896-10.929-10.929c0-6.032,4.896-10.928,10.929-10.928h109.286
		c6.032,0,10.929,4.896,10.929,10.928C344.25,391.104,339.354,396,333.321,396z"/>
	<path fill="#8697CB" d="M475.393,396h-98.356c-6.033,0-10.929-4.896-10.929-10.929c0-6.032,4.896-10.928,10.929-10.928h98.356
		c6.033,0,10.929,4.896,10.929,10.928C486.321,391.104,481.426,396,475.393,396z"/>
	<path fill="#0096E6" d="M524.976,702H87.024c-8.831,0-15.989-7.158-15.989-15.988V516.214h469.928v169.798
		C540.964,694.842,533.806,702,524.976,702z"/>
	<g>
		<path fill="#FFFFFF" d="M256.821,611.096c0,9.061-0.973,16.809-2.918,23.234s-4.404,11.803-7.398,16.142s-6.35,7.748-10.087,10.24
			c-3.738,2.491-7.344,4.35-10.831,5.606c-3.486,1.246-6.677,2.044-9.563,2.394c-2.885,0.327-5.027,0.502-6.415,0.502h-41.682
			V559.098h33.158c9.267,0,17.409,1.476,24.425,4.404s12.852,6.853,17.485,11.727c4.634,4.874,8.087,10.437,10.382,16.655
			C255.674,598.113,256.821,604.518,256.821,611.096z M203.632,656.067c12.153,0,20.917-3.88,26.294-11.65
			c5.377-7.77,8.065-19.026,8.065-33.769c0-4.579-0.546-9.115-1.64-13.596c-1.104-4.48-3.213-8.535-6.349-12.174
			c-3.137-3.64-7.399-6.579-12.776-8.819c-5.376-2.24-12.349-3.366-20.917-3.366h-10.459v83.374H203.632L203.632,656.067z"/>
		<path fill="#FFFFFF" d="M365.834,613.632c0,9.268-1.169,17.431-3.508,24.502c-2.339,7.07-5.585,12.95-9.716,17.628
			c-4.131,4.688-8.962,8.218-14.491,10.611c-5.53,2.394-11.584,3.584-18.152,3.584s-12.623-1.19-18.152-3.584
			c-5.53-2.394-10.36-5.924-14.491-10.611c-4.131-4.688-7.377-10.558-9.716-17.628c-2.338-7.071-3.508-15.246-3.508-24.502
			c0-9.257,1.169-17.409,3.508-24.426c2.339-7.027,5.574-12.874,9.716-17.551c4.131-4.688,8.961-8.24,14.491-10.688
			c5.529-2.448,11.584-3.661,18.152-3.661s12.622,1.213,18.152,3.661c5.529,2.448,10.36,6,14.491,10.688s7.366,10.535,9.716,17.551
			C364.653,596.223,365.834,604.364,365.834,613.632z M319.508,655.324c3.683,0,7.191-0.722,10.535-2.164
			c3.333-1.442,6.327-3.814,8.961-7.093c2.634-3.289,4.711-7.595,6.197-12.929c1.486-5.333,2.283-11.824,2.393-19.496
			c-0.098-7.476-0.874-13.824-2.316-19.049c-1.442-5.234-3.432-9.54-5.978-12.928c-2.547-3.389-5.432-5.825-8.667-7.322
			c-3.234-1.498-6.645-2.24-10.24-2.24c-3.683,0-7.201,0.688-10.535,2.087c-3.344,1.398-6.327,3.76-8.961,7.093
			c-2.645,3.344-4.71,7.639-6.197,12.929c-1.486,5.289-2.295,11.748-2.393,19.42c0.098,7.475,0.874,13.847,2.317,19.125
			c1.442,5.278,3.431,9.584,5.978,12.929c2.546,3.344,5.432,5.77,8.667,7.321C312.514,654.548,315.923,655.324,319.508,655.324z"/>
		<path fill="#FFFFFF" d="M465.634,658.013c-4.088,3.978-8.721,6.973-13.891,8.961c-5.18,2-10.754,2.983-16.731,2.983
			c-6.579,0-12.622-1.19-18.152-3.584c-5.529-2.394-10.36-5.924-14.491-10.612c-4.131-4.688-7.377-10.557-9.716-17.627
			c-2.339-7.071-3.508-15.246-3.508-24.502c0-9.257,1.169-17.409,3.508-24.426c2.339-7.027,5.574-12.874,9.716-17.551
			c4.131-4.688,8.983-8.24,14.567-10.688c5.574-2.448,11.606-3.661,18.076-3.661c5.979,0,11.552,0.994,16.731,2.983
			c5.181,2,9.803,4.983,13.891,8.962l-12.404,11.06c-2.491-2.896-5.257-4.983-8.295-6.273c-3.038-1.289-6.196-1.945-9.485-1.945
			c-3.684,0-7.202,0.688-10.535,2.088c-3.345,1.398-6.328,3.759-8.962,7.093c-2.645,3.344-4.71,7.639-6.196,12.928
			c-1.486,5.29-2.295,11.749-2.394,19.421c0.099,7.475,0.874,13.846,2.317,19.125c1.442,5.278,3.432,9.584,5.978,12.928
			c2.547,3.345,5.432,5.771,8.666,7.322c3.235,1.552,6.645,2.317,10.24,2.317s6.951-0.656,10.087-1.945
			c3.137-1.29,6-3.389,8.59-6.273L465.634,658.013z"/>
	</g>
</g>
</svg>
