<?xml version="1.0" encoding="utf-8"?>
<!-- Generator: Adobe Illustrator 16.0.0, SVG Export Plug-In . SVG Version: 6.00 Build 0)  -->
<!DOCTYPE svg PUBLIC "-//W3C//DTD SVG 1.1//EN" "http://www.w3.org/Graphics/SVG/1.1/DTD/svg11.dtd">
<svg version="1.1"
	 id="Layer_1" xmlns:dc="http://purl.org/dc/elements/1.1/" xmlns:rdf="http://www.w3.org/1999/02/22-rdf-syntax-ns#" xmlns:cc="http://creativecommons.org/ns#" xmlns:svg="http://www.w3.org/2000/svg"
	 xmlns="http://www.w3.org/2000/svg" xmlns:xlink="http://www.w3.org/1999/xlink" x="0px" y="0px" width="469.928px" height="612px"
	 viewBox="71.036 90 469.928 612" enable-background="new 71.036 90 469.928 612" xml:space="preserve">
<g>
	<path fill="#E9E9E0" d="M404.193,90H87.024c-8.831,0-15.989,7.158-15.989,21.048v580.023c0,3.771,7.158,10.929,15.989,10.929
		h437.951c8.83,0,15.989-7.158,15.989-10.929v-459.24c0-7.606-1.017-10.054-2.81-11.857L410.991,92.809
		C409.188,91.017,406.739,90,404.193,90z"/>
	<path fill="#E57E25" d="M524.976,702H87.024c-8.831,0-15.989-7.158-15.989-15.988V516.214h469.928v169.798
		C540.964,694.842,533.806,702,524.976,702z"/>
	<polygon fill="#D9D7CA" points="409.821,91.65 409.821,221.143 539.314,221.143 	"/>
	<circle fill="#F3D55B" cx="206.889" cy="247.71" r="49.933"/>
	<polygon fill="#F29C1F" points="71.036,516.214 191.25,516.214 540.964,516.214 540.964,396 431.679,292.179 316.929,417.857 
		257.007,357.936 	"/>
</g>
<g transform="scale(0.99024353,1.0098526)">
	<path fill="#FFFFFF" d="M279.747,606.348v42.235c-2.272,2.865-4.841,5.237-7.706,7.114c-2.766,1.778-5.73,3.26-8.891,4.445
		c-3.063,1.186-6.273,2.025-9.633,2.519c-3.26,0.494-6.52,0.741-9.78,0.741c-6.521,0-12.547-1.186-18.079-3.557
		c-5.434-2.371-10.225-5.878-14.375-10.521c-4.051-4.644-7.262-10.472-9.633-17.487c-2.272-7.014-3.408-15.116-3.408-24.304
		s1.136-17.239,3.408-24.155c2.371-7.015,5.582-12.843,9.633-17.487c4.149-4.644,8.99-8.15,14.523-10.521
		c5.532-2.47,11.51-3.705,17.931-3.705c5.927,0,11.46,0.987,16.597,2.963c5.138,1.977,9.731,4.941,13.782,8.892l-12.3,10.966
		c-2.371-2.865-5.088-4.94-8.15-6.224c-3.063-1.284-6.224-1.926-9.484-1.926c-3.656,0-7.163,0.691-10.522,2.074
		c-3.26,1.383-6.224,3.754-8.892,7.113c-2.569,3.26-4.594,7.508-6.076,12.745c-1.482,5.236-2.272,11.658-2.371,19.264
		c0.099,7.41,0.84,13.831,2.223,19.265c1.482,5.434,3.458,9.879,5.927,13.337c2.569,3.458,5.434,6.027,8.595,7.706
		c3.26,1.68,6.669,2.519,10.225,2.519c1.087,0,2.52-0.049,4.298-0.148c1.877-0.198,3.705-0.445,5.483-0.742
		c1.877-0.395,3.655-0.889,5.335-1.482s2.915-1.432,3.705-2.519V618.5h-18.524v-12.151L279.747,606.348L279.747,606.348z"/>
	<path fill="#FFFFFF" d="M323.76,662.661h-18.08V553.444h18.08V662.661z"/>
	<path fill="#FFFFFF" d="M369.551,566.93v34.38h45.644v12.152h-45.644v49.2h-18.079V553.444h68.316v13.485H369.551z"/>
</g>
</svg>
