<?xml version="1.0" encoding="utf-8"?>
<!-- Generator: Adobe Illustrator 16.0.0, SVG Export Plug-In . SVG Version: 6.00 Build 0)  -->
<!DOCTYPE svg PUBLIC "-//W3C//DTD SVG 1.1//EN" "http://www.w3.org/Graphics/SVG/1.1/DTD/svg11.dtd">
<svg version="1.1" id="Layer_1" xmlns="http://www.w3.org/2000/svg" xmlns:xlink="http://www.w3.org/1999/xlink" x="0px" y="0px"
	 width="469.928px" height="612px" viewBox="71.036 90 469.928 612" enable-background="new 71.036 90 469.928 612"
	 xml:space="preserve">
<g>
	<path fill="#E9E9E0" d="M404.193,90H87.024c-8.831,0-15.989,7.158-15.989,21.048v580.023c0,3.771,7.158,10.929,15.989,10.929
		h437.951c8.83,0,15.989-7.158,15.989-10.929v-459.24c0-7.606-1.017-10.054-2.81-11.857L410.991,92.809
		C409.188,91.017,406.739,90,404.193,90z"/>
	<polygon fill="#D9D7CA" points="409.821,91.65 409.821,221.143 539.314,221.143 	"/>
	<circle fill="#F3D55B" cx="206.889" cy="247.71" r="49.933"/>
	<polygon fill="#26B99A" points="71.036,516.214 191.25,516.214 540.964,516.214 540.964,396 431.679,292.179 316.929,417.857 
		257.007,357.936 	"/>
	<path fill="#14A085" d="M524.976,702H87.024c-8.831,0-15.989-7.158-15.989-15.988V516.214h469.928v169.798
		C540.964,694.842,533.806,702,524.976,702z"/>
	<g>
		<path fill="#FFFFFF" d="M234.156,556.104v85.768c0,5.18-0.951,9.541-2.842,13.07c-1.891,3.53-4.437,6.371-7.617,8.514
			c-3.191,2.142-6.852,3.639-10.983,4.48c-4.142,0.853-8.393,1.278-12.776,1.278c-2.196,0-4.765-0.229-7.693-0.677
			c-2.94-0.448-5.978-1.137-9.115-2.088c-3.136-0.951-6.152-2.021-9.038-3.213c-2.896-1.191-5.333-2.535-7.322-4.032l7.617-12.099
			c0.995,0.688,2.415,1.421,4.262,2.164c1.836,0.743,3.858,1.442,6.054,2.088c2.186,0.655,4.481,1.213,6.874,1.716
			c2.394,0.502,4.634,0.743,6.721,0.743c5.279,0,9.486-1.027,12.623-3.061c3.137-2.032,4.798-5.508,5.005-10.382v-84.271H234.156z"
			/>
		<path fill="#FFFFFF" d="M278.832,668.471h-17.934V558.344h31.671c4.677,0,9.311,0.743,13.89,2.24
			c4.579,1.498,8.688,3.738,12.327,6.722c3.64,2.983,6.579,6.601,8.819,10.83s3.366,8.983,3.366,14.272
			c0,5.585-0.95,10.634-2.841,15.169c-1.892,4.535-4.536,8.35-7.924,11.432s-7.475,5.475-12.251,7.169
			c-4.775,1.693-10.065,2.535-15.835,2.535h-13.3v39.758H278.832z M278.832,571.95v43.627h16.437c2.186,0,4.35-0.372,6.502-1.126
			c2.142-0.743,4.109-1.967,5.901-3.661c1.793-1.693,3.235-4.055,4.328-7.093s1.639-6.797,1.639-11.278
			c0-1.792-0.251-3.868-0.743-6.196c-0.502-2.339-1.519-4.579-3.06-6.721c-1.552-2.143-3.716-3.935-6.502-5.377
			c-2.798-1.454-6.481-2.175-11.06-2.175H278.832z"/>
		<path fill="#FFFFFF" d="M431.679,611.687v42.577c-2.295,2.896-4.853,5.246-7.693,7.093c-2.842,1.847-5.825,3.366-8.962,4.558
			s-6.371,2.043-9.716,2.535c-3.344,0.524-6.645,0.765-9.934,0.765c-6.579,0-12.623-1.19-18.152-3.584
			c-5.53-2.394-10.36-5.924-14.491-10.612c-4.131-4.688-7.377-10.557-9.716-17.627c-2.339-7.071-3.508-15.246-3.508-24.502
			c0-9.257,1.169-17.409,3.508-24.426c2.339-7.027,5.573-12.874,9.716-17.551c4.131-4.688,8.983-8.24,14.567-10.688
			c5.573-2.448,11.606-3.661,18.076-3.661c5.978,0,11.552,0.994,16.731,2.983c5.18,2,9.803,4.983,13.891,8.962l-12.404,11.06
			c-2.394-2.896-5.137-4.983-8.219-6.273c-3.093-1.289-6.272-1.945-9.563-1.945c-3.683,0-7.201,0.688-10.535,2.088
			c-3.344,1.398-6.327,3.759-8.961,7.093c-2.645,3.344-4.71,7.639-6.196,12.928c-1.486,5.29-2.295,11.749-2.394,19.421
			c0.099,7.475,0.874,13.944,2.316,19.42c1.443,5.475,3.432,9.956,5.979,13.441c2.546,3.486,5.432,6.077,8.666,7.771
			c3.235,1.694,6.645,2.535,10.24,2.535c1.093,0,2.558-0.076,4.404-0.229c1.836-0.152,3.683-0.394,5.53-0.743
			c1.836-0.35,3.606-0.819,5.3-1.42c1.694-0.602,2.939-1.443,3.737-2.536v-27.19h-18.677v-12.25h36.458V611.687z"/>
	</g>
</g>
</svg>
