<?xml version="1.0" encoding="utf-8"?>
<!-- Generator: Adobe Illustrator 16.0.0, SVG Export Plug-In . SVG Version: 6.00 Build 0)  -->
<!DOCTYPE svg PUBLIC "-//W3C//DTD SVG 1.1//EN" "http://www.w3.org/Graphics/SVG/1.1/DTD/svg11.dtd">
<svg version="1.1"
	 id="svg1758" xmlns:inkscape="http://www.inkscape.org/namespaces/inkscape" xmlns:sodipodi="http://sodipodi.sourceforge.net/DTD/sodipodi-0.dtd" xmlns:dc="http://purl.org/dc/elements/1.1/" xmlns:rdf="http://www.w3.org/1999/02/22-rdf-syntax-ns#" xmlns:cc="http://creativecommons.org/ns#" xmlns:svg="http://www.w3.org/2000/svg" inkscape:version="0.92.5 (2060ec1f9f, 2020-04-08)" sodipodi:docname="mov_filetype.svg"
	 xmlns="http://www.w3.org/2000/svg" xmlns:xlink="http://www.w3.org/1999/xlink" x="0px" y="0px" width="30.604px"
	 height="35.169px" viewBox="2.835 2.541 30.604 35.169" enable-background="new 2.835 2.541 30.604 35.169" xml:space="preserve">
<sodipodi:namedview  fit-margin-left="1" inkscape:zoom="1.63" id="base" bordercolor="#666666" borderopacity="1.0" inkscape:cy="92.221948" fit-margin-top="1" inkscape:cx="-249.37304" showgrid="false" pagecolor="#ffffff" inkscape:window-maximized="1" inkscape:window-y="21" inkscape:window-x="72" fit-margin-right="1" inkscape:window-height="1022" inkscape:document-units="mm" inkscape:pageopacity="0.0" inkscape:window-width="1848" inkscape:pageshadow="2" fit-margin-bottom="1" inkscape:current-layer="layer1">
	</sodipodi:namedview>
<g id="layer1" transform="translate(-137.35788,-159.06288)" inkscape:label="Capa 1" inkscape:groupmode="layer">
	<g id="g1453" transform="matrix(0.26458333,0,0,0.26458333,72.741217,111.24726)">
		
			<linearGradient id="path1430_1_" gradientUnits="userSpaceOnUse" x1="1626.8682" y1="-835.8621" x2="1626.8682" y2="-880.8621" gradientTransform="matrix(0.75 0 0 -0.75 -902.8578 -434.0415)">
			<stop  offset="0" style="stop-color:#F6F9FC"/>
			<stop  offset="1" style="stop-color:#E3E9EF"/>
		</linearGradient>
		
			<linearGradient id="path1430_2_" gradientUnits="userSpaceOnUse" x1="1626.8682" y1="-835.8545" x2="1626.8682" y2="-880.8545" gradientTransform="matrix(0.75 0 0 -0.75 -902.8578 -434.0415)">
			<stop  offset="0" style="stop-color:#E3E9EF"/>
			<stop  offset="1" style="stop-color:#F6F9FC"/>
		</linearGradient>
		<path id="path1430" inkscape:connector-curvature="0" fill="url(#path1430_1_)" stroke="url(#path1430_2_)" d="M277.612,192.852
			h48.189c6.264,0,14.911,3.573,19.359,8.021l15.136,15.14c4.451,4.448,8.024,13.095,8.024,19.359v73.701
			c0,6.264-5.075,11.339-11.339,11.339h-79.37c-6.264,0-11.339-5.075-11.339-11.339V204.19
			C266.273,197.927,271.348,192.852,277.612,192.852L277.612,192.852z"/>
		
			<linearGradient id="path1432_1_" gradientUnits="userSpaceOnUse" x1="1626.8682" y1="-847.2004" x2="1626.8682" y2="-886.2004" gradientTransform="matrix(0.75 0 0 -0.75 -902.8578 -434.0415)">
			<stop  offset="0" style="stop-color:#E3E9EF"/>
			<stop  offset="1" style="stop-color:#F6F9FC"/>
		</linearGradient>
		
			<linearGradient id="path1432_2_" gradientUnits="userSpaceOnUse" x1="1626.8682" y1="-847.1931" x2="1626.8682" y2="-886.1931" gradientTransform="matrix(0.75 0 0 -0.75 -902.8578 -434.0415)">
			<stop  offset="0" style="stop-color:#E3E9EF"/>
			<stop  offset="1" style="stop-color:#F6F9FC"/>
		</linearGradient>
		
			<path id="path1432" inkscape:connector-curvature="0" fill="url(#path1432_1_)" stroke="url(#path1432_2_)" stroke-width="0.844" d="
			M280.446,201.356h47.706c3.148,0,7.456,1.812,9.667,4.027l18.03,18.281c2.181,2.211,3.968,6.548,3.968,9.696v72.878
			c0,3.145-2.525,5.669-5.669,5.669h-73.701c-3.148,0-5.669-2.525-5.669-5.669v-99.213
			C274.777,203.877,277.298,201.356,280.446,201.356L280.446,201.356z"/>
		
			<linearGradient id="path1434_1_" gradientUnits="userSpaceOnUse" x1="1596.927" y1="-860.261" x2="1611.125" y2="-880.4199" gradientTransform="matrix(0.75 0 0 -0.75 -902.8578 -434.0415)">
			<stop  offset="0" style="stop-color:#FF6666"/>
			<stop  offset="1" style="stop-color:#F82A19"/>
		</linearGradient>
		<path id="path1434" inkscape:connector-curvature="0" fill="url(#path1434_1_)" fill-opacity="0.102" d="M280.446,201.356h47.706
			c3.148,0,7.456,1.812,9.667,4.027l18.03,18.281c2.181,2.211,3.968,6.548,3.968,9.696v21.854c0,3.145-2.525,5.669-5.669,5.669
			h-73.701c-3.148,0-5.669-2.525-5.669-5.669v-48.189C274.777,203.877,277.298,201.356,280.446,201.356L280.446,201.356z"/>
		
			<linearGradient id="path1436_1_" gradientUnits="userSpaceOnUse" x1="1626.8682" y1="-934.1299" x2="1626.8682" y2="-936.1299" gradientTransform="matrix(0.75 0 0 -0.75 -902.8578 -434.0415)">
			<stop  offset="0" style="stop-color:#F6F9FC"/>
			<stop  offset="1" style="stop-color:#E3E9EF"/>
		</linearGradient>
		
			<linearGradient id="path1436_2_" gradientUnits="userSpaceOnUse" x1="1626.8682" y1="-934.1223" x2="1626.8682" y2="-936.1223" gradientTransform="matrix(0.75 0 0 -0.75 -902.8578 -434.0415)">
			<stop  offset="0" style="stop-color:#E3E9EF"/>
			<stop  offset="1" style="stop-color:#F6F9FC"/>
		</linearGradient>
		<path id="path1436" inkscape:connector-curvature="0" fill="url(#path1436_1_)" stroke="url(#path1436_2_)" d="M288.951,266.553
			h56.693c1.557,0,2.835,1.277,2.835,2.835l0,0c0,1.558-1.277,2.835-2.835,2.835h-56.693c-1.558,0-2.835-1.277-2.835-2.835l0,0
			C286.116,267.83,287.393,266.553,288.951,266.553z"/>
		<path id="path1438" inkscape:connector-curvature="0" fill="#E3E9EF" d="M271.943,286.395h39.685c3.145,0,5.669,2.521,5.669,5.669
			v11.339c0,3.145-2.525,5.669-5.669,5.669h-45.354l0,0v-17.008C266.273,288.916,268.794,286.395,271.943,286.395z"/>
		
			<linearGradient id="path1440_1_" gradientUnits="userSpaceOnUse" x1="1576.863" y1="-959.95" x2="1582.2723" y2="-967.6293" gradientTransform="matrix(0.75 0 0 -0.75 -902.8578 -434.0415)">
			<stop  offset="0" style="stop-color:#FF6666"/>
			<stop  offset="1" style="stop-color:#F82A19"/>
		</linearGradient>
		<path id="path1440" inkscape:connector-curvature="0" fill="url(#path1440_1_)" d="M260.604,283.561h51.024
			c3.145,0,5.669,2.521,5.669,5.669v11.339c0,3.145-2.525,5.669-5.669,5.669h-51.024c-3.148,0-5.669-2.525-5.669-5.669V289.23
			C254.935,286.082,257.456,283.561,260.604,283.561z"/>
		<path id="MOV" inkscape:connector-curvature="0" fill="#FFFFFF" d="M267.635,300.568h2.126v-7.795l3.853,7.116l3.857-7.116v7.795
			h2.096V288.89h-2.096l-3.857,7.112l-3.853-7.112h-2.126V300.568z M288.212,300.768c3.318,0,6.123-2.779,6.123-6.038
			c0-3.289-2.805-6.038-6.123-6.038c-3.344,0-6.149,2.75-6.149,6.038C282.063,297.989,284.868,300.768,288.212,300.768z
			 M288.212,298.838c-2.152,0-3.968-1.868-3.968-4.108c0-2.24,1.816-4.112,3.968-4.112c2.156,0,3.942,1.871,3.942,4.112
			C292.154,296.97,290.368,298.838,288.212,298.838z M305.534,288.89l-3.687,8.844l-3.713-8.844h-2.351l4.876,11.678h2.381
			l4.876-11.678H305.534z"/>
		
			<linearGradient id="path1443_1_" gradientUnits="userSpaceOnUse" x1="1574.0986" y1="-886.8911" x2="1582.8877" y2="-874.4121" gradientTransform="matrix(0.75 0 0 -0.75 -902.8578 -434.0415)">
			<stop  offset="0" style="stop-color:#FF6666"/>
			<stop  offset="1" style="stop-color:#F82A19"/>
		</linearGradient>
		<path id="path1443" inkscape:connector-curvature="0" fill="url(#path1443_1_)" fill-opacity="0.102" d="M274.777,238.206
			L274.777,238.206c20.381,0,36.85-16.469,36.85-36.85l0,0l0,0h-31.181c-3.148,0-5.669,2.521-5.669,5.669V238.206z"/>
		
			<linearGradient id="path1445_1_" gradientUnits="userSpaceOnUse" x1="1573.6814" y1="-880.9099" x2="1581.1184" y2="-870.3509" gradientTransform="matrix(0.75 0 0 -0.75 -902.8578 -434.0415)">
			<stop  offset="0" style="stop-color:#FF6666"/>
			<stop  offset="1" style="stop-color:#F82A19"/>
		</linearGradient>
		<path id="path1445" inkscape:connector-curvature="0" fill="url(#path1445_1_)" fill-opacity="0.502" d="M274.777,232.537
			L274.777,232.537c17.233,0,31.181-13.948,31.181-31.181l0,0l0,0h-25.512c-3.148,0-5.669,2.521-5.669,5.669V232.537z"/>
		
			<linearGradient id="path1447_1_" gradientUnits="userSpaceOnUse" x1="1652.834" y1="-923.271" x2="1662.434" y2="-916.51" gradientTransform="matrix(0.75 0 0 -0.75 -902.8578 -434.0415)">
			<stop  offset="0" style="stop-color:#FF6666"/>
			<stop  offset="1" style="stop-color:#F82A19"/>
		</linearGradient>
		<path id="path1447" inkscape:connector-curvature="0" fill="url(#path1447_1_)" fill-opacity="0.2" d="M331.47,260.883
			L331.47,260.883c0-15.675,12.671-28.346,28.347-28.346l0,0l0,0v22.677c0,3.145-2.525,5.669-5.669,5.669H331.47z"/>
		
			<linearGradient id="path1449_1_" gradientUnits="userSpaceOnUse" x1="1661.803" y1="-923.8984" x2="1668.5229" y2="-919.1654" gradientTransform="matrix(0.75 0 0 -0.75 -902.8578 -434.0415)">
			<stop  offset="0" style="stop-color:#FF6666"/>
			<stop  offset="1" style="stop-color:#F82A19"/>
		</linearGradient>
		<path id="path1449" inkscape:connector-curvature="0" fill="url(#path1449_1_)" fill-opacity="0.502" d="M339.974,260.883
			L339.974,260.883c0-10.969,8.873-19.843,19.843-19.843l0,0l0,0v14.173c0,3.145-2.525,5.669-5.669,5.669H339.974z"/>
		
			<linearGradient id="path1451_1_" gradientUnits="userSpaceOnUse" x1="1615.4668" y1="-879.729" x2="1620.3196" y2="-886.6182" gradientTransform="matrix(0.75 0 0 -0.75 -902.8578 -434.0415)">
			<stop  offset="0" style="stop-color:#FF6666"/>
			<stop  offset="1" style="stop-color:#F82A19"/>
		</linearGradient>
		<path id="path1451" inkscape:connector-curvature="0" fill="url(#path1451_1_)" d="M311.144,222.756l12.302,8.224
			c1.307,0.849,1.307,2.266,0,3.115l-12.302,8.224c-1.303,0.849-2.351,0.281-2.351-1.277v-17.008
			C308.793,222.475,309.841,221.907,311.144,222.756z"/>
	</g>
</g>
</svg>
