<?xml version="1.0" encoding="utf-8"?>
<!-- Generator: Adobe Illustrator 16.0.0, SVG Export Plug-In . SVG Version: 6.00 Build 0)  -->
<!DOCTYPE svg PUBLIC "-//W3C//DTD SVG 1.1//EN" "http://www.w3.org/Graphics/SVG/1.1/DTD/svg11.dtd">
<svg version="1.1" id="Layer_1" xmlns="http://www.w3.org/2000/svg" xmlns:xlink="http://www.w3.org/1999/xlink" x="0px" y="0px"
	 width="469.929px" height="612px" viewBox="71.036 90 469.929 612" enable-background="new 71.036 90 469.929 612"
	 xml:space="preserve">
<g>
	<path fill="#E9E9E0" d="M404.193,90H87.024c-8.831,0-15.989,7.158-15.989,21.048v580.023c0,3.771,7.158,10.929,15.989,10.929
		h437.951c8.83,0,15.989-7.158,15.989-10.929v-459.24c0-7.606-1.017-10.054-2.81-11.857L410.991,92.809
		C409.188,91.017,406.739,90,404.193,90z"/>
	<polygon fill="#D9D7CA" points="409.821,91.65 409.821,221.143 539.314,221.143 	"/>
	<path fill="#7D6599" d="M524.976,702H87.024c-8.831,0-15.989-7.158-15.989-15.988V516.214h469.928v169.798
		C540.964,694.842,533.806,702,524.976,702z"/>
	<path fill="#C8BDB8" d="M389.822,253.775c-6.196-8.699-14.207-16.863-25.224-25.693c-42.774-34.217-51.987-68.599-53.135-73.637
		v-9.803c0-6.043-4.885-10.929-10.928-10.929s-10.929,4.885-10.929,10.929v10.928v91.352v98.937h-40.501
		c-42.425,0-68.785,21.431-68.785,55.921c0,37.879,24.48,62.358,62.358,62.358c37.933,0,68.784-30.852,68.784-68.784V269.972
		l3.257,2.656c3.716,3.672,9.41,7.869,16.623,13.169c25.332,18.677,67.757,49.911,57.091,85.167
		c-0.317,1.071-0.471,2.131-0.471,3.18c0,4.699,3.038,9.027,7.76,10.458c1.06,0.317,2.12,0.47,3.169,0.47
		c4.699,0,9.027-3.038,10.459-7.759C427.132,318.571,404.739,274.693,389.822,253.775z M289.607,395.355
		c0,25.879-21.048,46.927-46.927,46.927c-25.737,0-40.501-14.765-40.501-40.501c0-28.152,25.518-34.064,46.927-34.064h40.501
		V395.355z M344.305,268.223c-6.24-4.612-11.639-8.579-14.983-11.814l-17.857-14.644V203.81
		c9.038,12.83,21.716,27.136,39.475,41.343c9.377,7.519,16.087,14.294,21.081,21.311c7.825,10.961,15.639,25.562,19.54,43.474
		C377.058,292.342,357.856,278.201,344.305,268.223z"/>
	<g>
		<path fill="#FFFFFF" d="M244.8,559.098h18.229v110.116H244.8v-75.757l-24.655,61.255H204.31l-24.808-61.255v75.757h-18.229
			V559.098h18.229l32.72,75.31L244.8,559.098z"/>
		<path fill="#FFFFFF" d="M308.306,669.214h-17.934V559.098h31.671c4.688,0,9.322,0.743,13.891,2.24
			c4.568,1.498,8.688,3.738,12.327,6.722s6.579,6.601,8.819,10.83s3.366,8.983,3.366,14.272c0,5.585-0.951,10.634-2.842,15.169
			s-4.535,8.35-7.923,11.432s-7.476,5.476-12.251,7.169c-4.776,1.694-10.065,2.535-15.836,2.535h-13.3v39.747H308.306z
			 M308.306,572.693v43.627h16.437c2.186,0,4.35-0.372,6.503-1.126c2.152-0.754,4.109-1.967,5.901-3.661
			c1.792-1.693,3.234-4.055,4.328-7.093c1.093-3.038,1.639-6.797,1.639-11.278c0-1.792-0.24-3.868-0.743-6.196
			s-1.519-4.579-3.06-6.721c-1.541-2.143-3.716-3.935-6.503-5.377c-2.786-1.442-6.48-2.164-11.06-2.164h-13.442V572.693z"/>
		<path fill="#FFFFFF" d="M422.007,611.238c2.295,0.295,4.655,1.049,7.093,2.24c2.437,1.191,4.71,2.896,6.798,5.082
			c2.087,2.186,3.836,4.853,5.234,7.988c1.398,3.137,2.087,6.743,2.087,10.83c0,4.984-0.721,9.29-2.163,12.929
			c-1.443,3.64-3.268,6.645-5.454,9.038c-2.186,2.394-4.655,4.316-7.398,5.748s-5.398,2.514-7.988,3.214
			c-2.591,0.699-4.951,1.136-7.093,1.344c-2.143,0.208-3.814,0.295-5.006,0.295c-8.371,0-14.961-0.579-19.802-1.716
			c-4.842-1.137-8.197-2.316-10.088-3.508l4.033-12.852c0.896,0.502,1.737,1.049,2.535,1.639c0.798,0.591,1.945,1.17,3.432,1.716
			c1.486,0.547,3.585,0.995,6.273,1.345s6.371,0.524,11.06,0.524c6.874,0,12.011-1.869,15.388-5.606s5.081-8.437,5.081-14.12
			c0-5.377-1.552-9.912-4.634-13.595s-7.617-5.53-13.595-5.53h-15.245h0.152l-0.152-12.098h10.163c2.186,0,4.404-0.055,6.645-0.153
			c2.24-0.098,4.35-0.655,6.35-1.639s3.64-2.688,4.929-5.082c1.29-2.394,1.945-5.825,1.945-10.306c0-1.792-0.152-3.683-0.448-5.683
			c-0.295-2-1.125-3.836-2.47-5.53c-1.344-1.693-3.312-3.06-5.901-4.109c-2.59-1.049-6.175-1.573-10.754-1.573
			s-8.24,0.426-10.983,1.268c-2.742,0.842-4.797,1.52-6.196,2.021l-5.234-13.441c2.394-0.688,5.354-1.443,8.885-2.24
			c3.53-0.798,8.645-1.191,15.311-1.191c4.688,0,9.115,0.579,13.301,1.716s7.847,2.961,10.983,5.453
			c3.136,2.491,5.628,5.683,7.475,9.563s2.765,8.459,2.765,13.748c0,3.082-0.546,5.901-1.639,8.437
			c-1.093,2.536-2.492,4.766-4.186,6.645c-1.694,1.88-3.585,3.454-5.684,4.711C425.712,610.015,423.799,610.845,422.007,611.238z"/>
	</g>
</g>
</svg>
