<?xml version="1.0" encoding="utf-8"?>
<!-- Generator: Adobe Illustrator 16.0.0, SVG Export Plug-In . SVG Version: 6.00 Build 0)  -->
<!DOCTYPE svg PUBLIC "-//W3C//DTD SVG 1.1//EN" "http://www.w3.org/Graphics/SVG/1.1/DTD/svg11.dtd">
<svg version="1.1" id="Layer_1" xmlns="http://www.w3.org/2000/svg" xmlns:xlink="http://www.w3.org/1999/xlink" x="0px" y="0px"
	 width="469.929px" height="612px" viewBox="71.036 90 469.929 612" enable-background="new 71.036 90 469.929 612"
	 xml:space="preserve">
<g>
	<path fill="#E9E9E0" d="M404.193,90H87.024c-8.831,0-15.989,7.158-15.989,21.048v580.023c0,3.771,7.158,10.929,15.989,10.929
		h437.951c8.83,0,15.989-7.158,15.989-10.929v-459.24c0-7.606-1.017-10.054-2.81-11.857L410.991,92.809
		C409.188,91.017,406.739,90,404.193,90z"/>
	<path fill="#FF5364" d="M524.976,702H87.024c-8.831,0-15.989-7.158-15.989-15.988V516.214h469.928v169.798
		C540.964,694.842,533.806,702,524.976,702z"/>
	<g>
		<path fill="#FFFFFF" d="M244.8,559.098h18.229v110.116H244.8v-75.757l-24.655,61.255H204.31l-24.808-61.255v75.757h-18.229
			V559.098h18.229l32.72,75.31L244.8,559.098z"/>
		<path fill="#FFFFFF" d="M308.306,669.214h-17.934V559.098h31.671c4.678,0,9.312,0.743,13.891,2.24
			c4.579,1.498,8.688,3.738,12.327,6.722s6.579,6.601,8.819,10.83s3.366,8.983,3.366,14.272c0,5.585-0.951,10.634-2.842,15.169
			s-4.535,8.35-7.923,11.432s-7.476,5.476-12.251,7.169c-4.776,1.694-10.065,2.535-15.836,2.535h-13.3v39.747H308.306z
			 M308.306,572.693v43.627h16.437c2.186,0,4.35-0.372,6.503-1.126c2.142-0.743,4.109-1.967,5.901-3.661
			c1.792-1.693,3.234-4.055,4.328-7.093c1.093-3.038,1.639-6.797,1.639-11.278c0-1.792-0.251-3.868-0.743-6.196
			c-0.503-2.339-1.519-4.579-3.06-6.721c-1.552-2.143-3.716-3.935-6.503-5.377c-2.786-1.442-6.48-2.164-11.06-2.164h-13.442V572.693
			z"/>
		<path fill="#FFFFFF" d="M420.521,643.511h-47.659v-14.186l47.659-70.228h18.229v70.228h11.508v14.196h-11.508v25.692h-18.229
			V643.511z M420.521,629.325v-49.31l-31.682,49.31H420.521z"/>
	</g>
	<path fill="#C8BDB8" d="M267.75,396c-1.814,0-3.617-0.448-5.257-1.344c-3.497-1.923-5.672-5.595-5.672-9.584v-153
		c0-3.989,2.175-7.661,5.672-9.584c3.508-1.913,7.759-1.771,11.136,0.36l120.214,76.5c3.137,2.011,5.049,5.486,5.049,9.224
		c0,3.738-1.912,7.213-5.06,9.224l-120.214,76.5C271.837,395.421,269.793,396,267.75,396z M278.679,251.972V365.16l88.926-56.588
		L278.679,251.972z"/>
	<path fill="#C8BDB8" d="M311.464,472.5c-90.39,0-163.928-73.538-163.928-163.929c0-90.39,73.539-163.928,163.928-163.928
		c90.391,0,163.929,73.538,163.929,163.928C475.393,398.962,401.854,472.5,311.464,472.5z M311.464,166.5
		c-78.335,0-142.071,63.735-142.071,142.071s63.735,142.071,142.071,142.071c78.337,0,142.072-63.735,142.072-142.071
		S389.801,166.5,311.464,166.5z"/>
	<polygon fill="#D9D7CA" points="409.821,91.65 409.821,221.143 539.314,221.143 	"/>
</g>
</svg>
