<?xml version="1.0" encoding="utf-8"?>
<!-- Generator: Adobe Illustrator 16.0.0, SVG Export Plug-In . SVG Version: 6.00 Build 0)  -->
<!DOCTYPE svg PUBLIC "-//W3C//DTD SVG 1.1//EN" "http://www.w3.org/Graphics/SVG/1.1/DTD/svg11.dtd">
<svg version="1.1"
	 id="Layer_1" xmlnsDc="http://purl.org/dc/elements/1.1/" xmlnsRdf="http://www.w3.org/1999/02/22-rdf-syntax-ns#" xmlnsCc="http://creativecommons.org/ns#" xmlnsSvg="http://www.w3.org/2000/svg"
	 xmlns="http://www.w3.org/2000/svg" xmlnsXlink="http://www.w3.org/1999/xlink" x="0px" y="0px" width="468.279px" height="612px"
	 viewBox="71.036 90 468.279 612" enable-background="new 71.036 90 468.279 612" xmlSpace="preserve">
<g>
	<path fill="#E9E9E0" d="M404.193,90H87.024c-8.831,0-15.989,7.158-15.989,21.048v580.023c0,3.771,7.158,10.929,15.989,10.929
		h437.951c8.83,0,15.989-7.158,15.989-10.929v-459.24c0-7.606-1.017-10.054-2.81-11.857L410.991,92.809
		C409.188,91.017,406.739,90,404.193,90z"/>
	<path fill="#95A5A5" d="M524.976,702H87.024c-8.831,0-15.989-7.158-15.989-15.988V516.214h469.928v169.798
		C540.964,694.842,533.806,702,524.976,702z"/>
	<path fill="#C8BDB8" d="M267.75,396c-1.814,0-3.617-0.448-5.257-1.344c-3.497-1.923-5.672-5.595-5.672-9.584v-153
		c0-3.989,2.175-7.661,5.672-9.584c3.508-1.913,7.759-1.771,11.136,0.36l120.214,76.5c3.137,2.011,5.049,5.486,5.049,9.224
		c0,3.738-1.912,7.213-5.06,9.224l-120.214,76.5C271.837,395.421,269.793,396,267.75,396z M278.679,251.972V365.16l88.926-56.588
		L278.679,251.972z"/>
	<path fill="#C8BDB8" d="M311.464,472.5c-90.39,0-163.928-73.538-163.928-163.929c0-90.39,73.539-163.928,163.928-163.928
		c90.391,0,163.929,73.538,163.929,163.928C475.393,398.962,401.854,472.5,311.464,472.5z M311.464,166.5
		c-78.335,0-142.071,63.735-142.071,142.071s63.735,142.071,142.071,142.071c78.337,0,142.072-63.735,142.072-142.071
		S389.801,166.5,311.464,166.5z"/>
	<polygon fill="#D9D7CA" points="409.821,91.65 409.821,221.143 539.314,221.143 	"/>
</g>
<g>
	<path fill="#FFFFFF" d="M238.937,555.031h17.903v108.151h-17.903v-74.399l-24.213,60.165h-15.555l-24.36-60.165v74.399h-17.903
		V555.031h17.903l32.137,73.96L238.937,555.031z"/>
	<path fill="#FFFFFF" d="M333.588,610.648l27.441,52.534h-20.397l-17.169-40.795h-1.468l-18.49,40.795h-20.398l27.441-52.534
		l-29.202-55.617h20.104l19.078,44.023h1.467l20.691-44.023h20.104L333.588,610.648z"/>
	<path fill="#FFFFFF" d="M405.347,568.385v34.046h45.198v12.032h-45.198v48.72h-17.902V555.031h67.649v13.354H405.347z"/>
</g>
</svg>
