<?xml version="1.0" encoding="utf-8"?>
<!-- Generator: Adobe Illustrator 16.0.0, SVG Export Plug-In . SVG Version: 6.00 Build 0)  -->
<!DOCTYPE svg PUBLIC "-//W3C//DTD SVG 1.1//EN" "http://www.w3.org/Graphics/SVG/1.1/DTD/svg11.dtd">
<svg version="1.1" id="Layer_1" xmlns="http://www.w3.org/2000/svg" xmlns:xlink="http://www.w3.org/1999/xlink" x="0px" y="0px"
	 width="469.929px" height="612px" viewBox="71.036 90 469.929 612" enable-background="new 71.036 90 469.929 612"
	 xml:space="preserve">
<g>
	<path fill="#E9E9E0" d="M404.193,90H87.024c-8.831,0-15.989,7.158-15.989,21.048v580.023c0,3.771,7.158,10.929,15.989,10.929
		h437.951c8.83,0,15.989-7.158,15.989-10.929v-459.24c0-7.606-1.017-10.054-2.81-11.857L410.991,92.809
		C409.188,91.017,406.739,90,404.193,90z"/>
	<polygon fill="#D9D7CA" points="409.821,91.65 409.821,221.143 539.314,221.143 	"/>
	<path fill="#CC4B4C" d="M213.26,454.184L213.26,454.184c-3.803,0-7.454-1.234-10.568-3.563
		c-11.377-8.535-12.907-18.032-12.186-24.502c1.989-17.792,23.988-36.414,65.408-55.386c16.437-36.021,32.075-80.402,41.397-117.482
		c-10.907-23.737-21.508-54.534-13.781-72.599c2.71-6.328,6.087-11.18,12.393-13.278c2.492-0.83,8.787-1.879,11.104-1.879
		c5.508,0,10.35,7.093,13.781,11.464c3.224,4.109,10.535,12.819-4.077,74.336c14.732,30.425,35.605,61.418,55.605,82.642
		c14.327-2.59,26.654-3.912,36.697-3.912c17.114,0,27.485,3.989,31.715,12.207c3.497,6.797,2.065,14.743-4.262,23.605
		c-6.087,8.514-14.48,13.016-24.262,13.016c-13.289,0-28.764-8.393-46.021-24.972c-31.004,6.48-67.21,18.043-96.477,30.84
		c-9.136,19.388-17.89,35.004-26.042,46.457C232.483,446.861,222.823,454.184,213.26,454.184z M242.352,398.164
		c-23.354,13.125-32.873,23.911-33.562,29.988c-0.109,1.005-0.405,3.649,4.71,7.563
		C215.129,435.201,224.637,430.862,242.352,398.164z M391.385,349.619c8.907,6.852,11.082,10.316,16.906,10.316
		c2.558,0,9.847-0.109,13.224-4.819c1.629-2.284,2.263-3.749,2.514-4.535c-1.344-0.71-3.125-2.153-12.841-2.153
		C405.669,348.439,398.729,348.679,391.385,349.619z M309.748,277.688c-7.813,27.037-18.13,56.228-29.223,82.664
		c22.841-8.863,47.671-16.601,70.992-22.076C336.764,321.139,322.021,299.741,309.748,277.688z M303.115,185.21
		c-1.071,0.36-14.535,19.201,1.049,35.146C314.535,197.242,303.585,185.057,303.115,185.21z"/>
	<path fill="#CC4B4C" d="M524.976,702H87.024c-8.831,0-15.989-7.158-15.989-15.988V516.214h469.928v169.798
		C540.964,694.842,533.806,702,524.976,702z"/>
	<g>
		<path fill="#FFFFFF" d="M189.993,669.214H172.06V559.098h31.671c4.677,0,9.311,0.743,13.89,2.24
			c4.579,1.498,8.688,3.738,12.328,6.722s6.579,6.601,8.819,10.83c2.24,4.229,3.366,8.983,3.366,14.272
			c0,5.585-0.951,10.634-2.841,15.169s-4.535,8.35-7.923,11.432c-3.388,3.082-7.475,5.476-12.251,7.169
			c-4.775,1.694-10.065,2.535-15.835,2.535h-13.3v39.747H189.993z M189.993,572.693v43.627h16.437c2.186,0,4.35-0.372,6.502-1.126
			c2.142-0.743,4.109-1.967,5.901-3.661c1.792-1.693,3.235-4.055,4.328-7.093c1.093-3.038,1.639-6.797,1.639-11.278
			c0-1.792-0.251-3.868-0.743-6.196c-0.503-2.339-1.519-4.579-3.06-6.721c-1.552-2.143-3.716-3.935-6.502-5.377
			s-6.48-2.164-11.06-2.164h-13.442V572.693z"/>
		<path fill="#FFFFFF" d="M352.107,611.096c0,9.061-0.973,16.809-2.918,23.234s-4.404,11.803-7.398,16.142s-6.35,7.748-10.087,10.24
			c-3.737,2.491-7.344,4.35-10.83,5.606c-3.486,1.246-6.678,2.044-9.563,2.394c-2.886,0.327-5.027,0.502-6.426,0.502h-41.682
			V559.098h33.168c9.267,0,17.409,1.476,24.425,4.404c7.017,2.929,12.853,6.853,17.486,11.727s8.087,10.437,10.382,16.655
			C350.96,598.113,352.107,604.518,352.107,611.096z M298.918,656.067c12.153,0,20.917-3.88,26.294-11.65
			c5.376-7.77,8.064-19.026,8.064-33.769c0-4.579-0.546-9.115-1.639-13.596c-1.104-4.48-3.213-8.535-6.35-12.174
			c-3.137-3.64-7.398-6.579-12.775-8.819s-12.35-3.366-20.917-3.366h-10.458v83.374H298.918L298.918,656.067z"/>
		<path fill="#FFFFFF" d="M396.336,572.693v34.665h46.02v12.251h-46.02v49.604h-18.229V559.098h68.872v13.596H396.336z"/>
	</g>
</g>
</svg>
