<?xml version="1.0" encoding="utf-8"?>
<!-- Generator: Adobe Illustrator 16.0.0, SVG Export Plug-In . SVG Version: 6.00 Build 0)  -->
<!DOCTYPE svg PUBLIC "-//W3C//DTD SVG 1.1//EN" "http://www.w3.org/Graphics/SVG/1.1/DTD/svg11.dtd">
<svg version="1.1" id="Layer_1" xmlns="http://www.w3.org/2000/svg" xmlns:xlink="http://www.w3.org/1999/xlink" x="0px" y="0px"
	 width="470.464px" height="612px" viewBox="71.036 90 470.464 612" enable-background="new 71.036 90 470.464 612"
	 xml:space="preserve">
<g>
	<path fill="#E9E9E0" d="M404.193,90H87.024c-8.831,0-15.989,7.158-15.989,21.048v580.023c0,3.771,7.158,10.929,15.989,10.929
		h437.951c8.83,0,15.989-7.158,15.989-10.929v-459.24c0-7.606-1.017-10.054-2.81-11.857L410.991,92.809
		C409.188,91.017,406.739,90,404.193,90z"/>
	<path fill="#659C35" d="M524.976,702H87.024c-8.831,0-15.989-7.158-15.989-15.988V516.214h469.928v169.798
		C540.964,694.842,533.806,702,524.976,702z"/>
	<polygon fill="#D9D7CA" points="409.821,91.65 409.821,221.143 539.314,221.143 	"/>
	<g>
		<path fill="#FFFFFF" d="M189.993,669.214H172.06V559.098h31.671c4.677,0,9.311,0.743,13.89,2.24
			c4.579,1.498,8.688,3.738,12.328,6.722s6.579,6.601,8.819,10.83c2.24,4.229,3.366,8.983,3.366,14.272
			c0,5.585-0.951,10.634-2.841,15.169s-4.535,8.35-7.923,11.432c-3.388,3.082-7.475,5.476-12.251,7.169
			c-4.775,1.694-10.065,2.535-15.835,2.535h-13.3v39.747H189.993z M189.993,572.693v43.627h16.437c2.186,0,4.35-0.372,6.502-1.126
			c2.142-0.743,4.109-1.967,5.901-3.661c1.792-1.693,3.235-4.055,4.328-7.093c1.093-3.038,1.639-6.797,1.639-11.278
			c0-1.792-0.251-3.868-0.743-6.196c-0.503-2.339-1.519-4.579-3.06-6.721c-1.552-2.143-3.716-3.935-6.502-5.377
			s-6.48-2.164-11.06-2.164h-13.442V572.693z"/>
		<path fill="#FFFFFF" d="M342.239,559.098v110.116h-18.229l-43.179-75.898v75.898h-18.229V559.098h18.229l43.179,75.899v-75.899
			H342.239z"/>
		<path fill="#FFFFFF" d="M449.82,612.44v42.577c-2.295,2.896-4.853,5.246-7.694,7.093c-2.841,1.848-5.824,3.366-8.961,4.558
			s-6.383,2.044-9.716,2.546c-3.344,0.503-6.645,0.743-9.934,0.743c-6.579,0-12.623-1.19-18.152-3.584
			c-5.53-2.394-10.36-5.924-14.491-10.611c-4.132-4.688-7.377-10.558-9.716-17.628c-2.339-7.071-3.508-15.246-3.508-24.502
			c0-9.257,1.169-17.409,3.508-24.426c2.339-7.027,5.573-12.874,9.716-17.551c4.131-4.688,8.982-8.24,14.567-10.688
			c5.573-2.448,11.606-3.661,18.076-3.661c5.978,0,11.551,0.994,16.731,2.983c5.18,2,9.803,4.983,13.89,8.962l-12.403,11.06
			c-2.394-2.896-5.137-4.983-8.219-6.273c-3.093-1.289-6.272-1.945-9.563-1.945c-3.683,0-7.201,0.688-10.535,2.088
			c-3.344,1.398-6.327,3.759-8.961,7.093c-2.645,3.344-4.71,7.639-6.196,12.928c-1.486,5.29-2.295,11.749-2.394,19.421
			c0.098,7.475,0.874,13.944,2.316,19.42c1.442,5.475,3.432,9.956,5.979,13.441c2.546,3.486,5.432,6.077,8.666,7.771
			c3.235,1.694,6.645,2.535,10.24,2.535c1.093,0,2.558-0.076,4.404-0.229c1.836-0.152,3.683-0.393,5.529-0.743
			c1.836-0.35,3.606-0.819,5.301-1.42c1.693-0.602,2.939-1.443,3.737-2.536v-27.19h-18.677v-12.251h36.458V612.44z"/>
	</g>
	<circle fill="#F3D55B" cx="206.889" cy="247.71" r="49.933"/>
	<polygon fill="#88C057" points="71.036,516.214 191.25,516.214 540.964,516.214 540.964,396 431.679,292.179 316.929,417.857 
		257.007,357.936 	"/>
</g>
</svg>
