<?xml version="1.0" encoding="utf-8"?>
<!-- Generator: Adobe Illustrator 16.0.0, SVG Export Plug-In . SVG Version: 6.00 Build 0)  -->
<!DOCTYPE svg PUBLIC "-//W3C//DTD SVG 1.1//EN" "http://www.w3.org/Graphics/SVG/1.1/DTD/svg11.dtd">
<svg version="1.1" id="Layer_1" xmlns="http://www.w3.org/2000/svg" xmlns:xlink="http://www.w3.org/1999/xlink" x="0px" y="0px"
	 width="469.929px" height="612px" viewBox="71.036 90 469.929 612" enable-background="new 71.036 90 469.929 612"
	 xml:space="preserve">
<g>
	<path fill="#E9E9E0" d="M404.193,90H87.024c-8.831,0-15.989,7.158-15.989,21.048v580.023c0,3.771,7.158,10.929,15.989,10.929
		h437.951c8.83,0,15.989-7.158,15.989-10.929v-459.24c0-7.606-1.017-10.054-2.81-11.857L410.991,92.809
		C409.188,91.017,406.739,90,404.193,90z"/>
	<polygon fill="#D9D7CA" points="409.821,91.65 409.821,221.143 539.314,221.143 	"/>
	<path fill="#E57E25" d="M524.976,702H87.024c-8.831,0-15.989-7.158-15.989-15.988V516.214h469.928v169.798
		C540.964,694.842,533.806,702,524.976,702z"/>
	<g>
		<path fill="#FFFFFF" d="M234.516,639.029c0,3.979-0.819,7.847-2.47,11.585c-1.65,3.737-3.956,7.026-6.951,9.857
			c-2.994,2.83-6.667,5.104-11.06,6.798c-4.394,1.693-9.355,2.535-14.939,2.535c-2.394,0-4.852-0.132-7.398-0.372
			s-5.104-0.678-7.694-1.268c-2.59-0.59-5.06-1.421-7.399-2.47c-2.338-1.049-4.349-2.316-6.054-3.814l3.137-12.852
			c1.398,0.798,3.158,1.573,5.3,2.316s4.35,1.443,6.645,2.088s4.579,1.169,6.874,1.573c2.295,0.405,4.426,0.602,6.426,0.602
			c6.077,0,10.732-1.421,13.967-4.263c3.235-2.841,4.853-7.049,4.853-12.622c0-3.388-1.137-6.273-3.432-8.666
			c-2.295-2.394-5.158-4.558-8.59-6.503s-7.147-3.88-11.136-5.825c-3.989-1.945-7.716-4.24-11.202-6.874
			c-3.486-2.634-6.372-5.748-8.667-9.333c-2.295-3.584-3.432-8.065-3.432-13.441c0-4.875,0.896-9.213,2.688-12.994
			s4.208-7.006,7.246-9.64s6.579-4.655,10.612-6.054c4.033-1.399,8.294-2.088,12.775-2.088c4.579,0,9.213,0.427,13.89,1.268
			c4.677,0.842,8.459,2.219,11.355,4.109c-0.601,1.29-1.29,2.71-2.087,4.262s-1.552,2.983-2.241,4.328
			c-0.688,1.345-1.29,2.47-1.792,3.366c-0.503,0.896-0.798,1.398-0.896,1.497c-0.601-0.295-1.268-0.688-2.022-1.191
			s-1.814-0.994-3.213-1.497s-3.235-0.842-5.53-1.049c-2.295-0.208-5.235-0.153-8.819,0.152c-2,0.208-3.88,0.766-5.683,1.716
			c-1.803,0.951-3.388,2.109-4.787,3.509c-1.399,1.398-2.492,2.961-3.29,4.71c-0.798,1.748-1.191,3.421-1.191,5.005
			c0,3.979,1.137,7.191,3.432,9.64c2.295,2.447,5.137,4.579,8.514,6.426c3.376,1.847,7.071,3.639,11.06,5.377
			c3.989,1.737,7.694,3.868,11.136,6.35c3.442,2.48,6.295,5.606,8.59,9.333S234.516,633.15,234.516,639.029z"/>
		<path fill="#FFFFFF" d="M282.624,669.815l-34.218-110.718h20.469l25.551,95.024l27.048-95.024h20.316l-35.856,110.718H282.624z"/>
		<path fill="#FFFFFF" d="M444.443,612.44v42.577c-2.295,2.896-4.853,5.246-7.694,7.093c-2.841,1.848-5.824,3.366-8.961,4.558
			s-6.371,2.044-9.716,2.546c-3.344,0.503-6.645,0.743-9.934,0.743c-6.579,0-12.623-1.19-18.152-3.584
			c-5.53-2.394-10.36-5.924-14.491-10.611c-4.131-4.688-7.377-10.558-9.716-17.628c-2.339-7.071-3.508-15.246-3.508-24.502
			c0-9.257,1.169-17.409,3.508-24.426c2.339-7.016,5.585-12.874,9.716-17.551c4.131-4.678,8.983-8.24,14.567-10.688
			c5.585-2.448,11.606-3.661,18.076-3.661c5.978,0,11.563,0.994,16.731,2.983s9.803,4.983,13.891,8.962l-12.404,11.06
			c-2.394-2.896-5.137-4.983-8.219-6.273c-3.081-1.289-6.272-1.945-9.563-1.945c-3.683,0-7.19,0.688-10.535,2.088
			c-3.344,1.398-6.327,3.759-8.961,7.093c-2.634,3.333-4.71,7.639-6.196,12.928c-1.486,5.29-2.295,11.749-2.394,19.421
			c0.099,7.475,0.874,13.944,2.316,19.42c1.443,5.475,3.432,9.956,5.979,13.441c2.546,3.486,5.432,6.077,8.666,7.771
			c3.235,1.694,6.645,2.535,10.24,2.535c1.104,0,2.558-0.076,4.404-0.229c1.847-0.152,3.683-0.393,5.529-0.743
			c1.848-0.35,3.606-0.819,5.301-1.42c1.694-0.602,2.939-1.443,3.737-2.536v-27.19h-18.677v-12.251h36.458V612.44z"/>
	</g>
	<path fill="#C8BDB8" d="M497.25,330.429v-65.571h-65.571v21.857h-65.571V243H256.821v43.714H191.25v-21.857h-65.571v65.571h65.571
		v-21.857h38.774c-49.9,28.808-82.489,82.926-82.489,142.071c0,6.033,4.885,10.929,10.929,10.929s10.929-4.896,10.929-10.929
		c0-57.331,35.288-109.274,87.428-131.088v32.731h109.286v-32.731c52.14,21.824,87.429,73.768,87.429,131.088
		c0,6.033,4.885,10.929,10.928,10.929c6.044,0,10.929-4.896,10.929-10.929c0-59.145-32.589-113.264-82.488-142.071h38.774v21.857
		H497.25z M169.393,308.571h-21.857v-21.857h21.857V308.571z M344.25,330.429h-65.571v-41.026v-24.545h65.571v24.545V330.429z
		 M453.536,286.714h21.856v21.857h-21.856V286.714z"/>
</g>
</svg>
