<?xml version="1.0" encoding="utf-8"?>
<!-- Generator: Adobe Illustrator 16.0.0, SVG Export Plug-In . SVG Version: 6.00 Build 0)  -->
<!DOCTYPE svg PUBLIC "-//W3C//DTD SVG 1.1//EN" "http://www.w3.org/Graphics/SVG/1.1/DTD/svg11.dtd">
<svg version="1.1" id="Layer_1" xmlns="http://www.w3.org/2000/svg" xmlns:xlink="http://www.w3.org/1999/xlink" x="0px" y="0px"
	 width="469.928px" height="612px" viewBox="71.036 90 469.928 612" enable-background="new 71.036 90 469.928 612"
	 xml:space="preserve">
<g>
	<path fill="#E9E9E0" d="M404.193,90H87.024c-8.831,0-15.989,7.158-15.989,21.048v580.023c0,3.771,7.158,10.929,15.989,10.929
		h437.951c8.83,0,15.989-7.158,15.989-10.929v-459.24c0-7.606-1.017-10.054-2.81-11.857L410.991,92.809
		C409.188,91.017,406.739,90,404.193,90z"/>
	<polygon fill="#D9D7CA" points="409.821,91.65 409.821,221.143 539.314,221.143 	"/>
	<path fill="#95A5A5" d="M524.976,702H87.024c-8.831,0-15.989-7.158-15.989-15.988V516.214h469.928v169.798
		C540.964,694.842,533.806,702,524.976,702z"/>
	<g>
		<path fill="#FFFFFF" d="M238.975,559.098v12.251h-32.873v97.865h-18.076v-97.865h-32.873v-12.251H238.975z"/>
		<path fill="#FFFFFF" d="M310.842,615.719l27.944,53.495h-20.765l-17.486-41.539h-1.497l-18.819,41.539h-20.765l27.944-53.495
			l-29.736-56.632h20.469l19.42,44.829h1.497l21.071-44.829h20.469L310.842,615.719z"/>
		<path fill="#FFFFFF" d="M442.924,559.098v12.251h-32.873v97.865h-18.076v-97.865h-32.873v-12.251H442.924z"/>
	</g>
	<path fill="#C8BDB8" d="M202.179,232.071h-65.572c-6.043,0-10.928-4.896-10.928-10.929c0-6.032,4.885-10.928,10.928-10.928h65.572
		c6.043,0,10.928,4.896,10.928,10.928C213.107,227.175,208.222,232.071,202.179,232.071z"/>
	<path fill="#C8BDB8" d="M234.964,286.714h-98.357c-6.043,0-10.928-4.896-10.928-10.929s4.885-10.928,10.928-10.928h98.357
		c6.043,0,10.929,4.896,10.929,10.928S241.008,286.714,234.964,286.714z"/>
	<path fill="#C8BDB8" d="M278.679,286.714c-2.842,0-5.694-1.202-7.759-3.169c-1.978-2.076-3.169-4.809-3.169-7.759
		s1.191-5.683,3.278-7.759c3.935-4.043,11.366-4.043,15.41,0c1.967,2.077,3.169,4.918,3.169,7.759s-1.202,5.683-3.169,7.759
		C284.361,285.512,281.52,286.714,278.679,286.714z"/>
	<path fill="#C8BDB8" d="M409.821,286.714h-87.429c-6.043,0-10.929-4.896-10.929-10.929s4.886-10.928,10.929-10.928h87.429
		c6.044,0,10.929,4.896,10.929,10.928S415.865,286.714,409.821,286.714z"/>
	<path fill="#C8BDB8" d="M136.607,450.643c-2.841,0-5.693-1.202-7.759-3.169c-1.978-2.076-3.169-4.918-3.169-7.76
		c0-2.841,1.191-5.683,3.169-7.759c4.044-4.044,11.475-4.044,15.519,0.109c1.967,1.967,3.169,4.809,3.169,7.649
		c0,2.842-1.202,5.684-3.169,7.76C142.29,449.44,139.449,450.643,136.607,450.643z"/>
	<path fill="#C8BDB8" d="M267.75,450.643h-87.429c-6.043,0-10.928-4.896-10.928-10.929c0-6.032,4.885-10.928,10.928-10.928h87.429
		c6.043,0,10.929,4.896,10.929,10.928C278.679,445.747,273.793,450.643,267.75,450.643z"/>
	<path fill="#C8BDB8" d="M475.393,286.714h-21.856c-6.044,0-10.929-4.896-10.929-10.929s4.885-10.928,10.929-10.928h21.856
		c6.044,0,10.929,4.896,10.929,10.928S481.437,286.714,475.393,286.714z"/>
	<path fill="#C8BDB8" d="M377.036,341.357H136.607c-6.043,0-10.928-4.896-10.928-10.928c0-6.033,4.885-10.929,10.928-10.929h240.429
		c6.043,0,10.928,4.896,10.928,10.929C387.964,336.461,383.079,341.357,377.036,341.357z"/>
	<path fill="#C8BDB8" d="M475.393,341.357h-65.571c-6.043,0-10.929-4.896-10.929-10.928c0-6.033,4.886-10.929,10.929-10.929h65.571
		c6.044,0,10.929,4.896,10.929,10.929C486.321,336.461,481.437,341.357,475.393,341.357z"/>
	<path fill="#C8BDB8" d="M180.321,396h-43.714c-6.043,0-10.928-4.896-10.928-10.929c0-6.032,4.885-10.928,10.928-10.928h43.714
		c6.043,0,10.929,4.896,10.929,10.928C191.25,391.104,186.365,396,180.321,396z"/>
	<path fill="#C8BDB8" d="M333.321,396H224.036c-6.043,0-10.929-4.896-10.929-10.929c0-6.032,4.885-10.928,10.929-10.928h109.286
		c6.044,0,10.929,4.896,10.929,10.928C344.25,391.104,339.365,396,333.321,396z"/>
	<path fill="#C8BDB8" d="M475.393,396h-98.356c-6.044,0-10.929-4.896-10.929-10.929c0-6.032,4.885-10.928,10.929-10.928h98.356
		c6.044,0,10.929,4.896,10.929,10.928C486.321,391.104,481.437,396,475.393,396z"/>
</g>
</svg>
