<?xml version="1.0" encoding="utf-8"?>
<!-- Generator: Adobe Illustrator 16.0.0, SVG Export Plug-In . SVG Version: 6.00 Build 0)  -->
<!DOCTYPE svg PUBLIC "-//W3C//DTD SVG 1.1//EN" "http://www.w3.org/Graphics/SVG/1.1/DTD/svg11.dtd">
<svg version="1.1" id="Layer_1" xmlns="http://www.w3.org/2000/svg" xmlns:xlink="http://www.w3.org/1999/xlink" x="0px" y="0px"
	 width="469.929px" height="612px" viewBox="71.036 90 469.929 612" enable-background="new 71.036 90 469.929 612"
	 xml:space="preserve">
<g>
	<path fill="#E9E9E0" d="M404.193,90H87.024c-8.831,0-15.989,7.158-15.989,21.048v580.023c0,3.771,7.158,10.929,15.989,10.929
		h437.951c8.83,0,15.989-7.158,15.989-10.929v-459.24c0-7.606-1.017-10.054-2.81-11.857L410.991,92.809
		C409.188,91.017,406.739,90,404.193,90z"/>
	<polygon fill="#D9D7CA" points="409.821,91.65 409.821,221.143 539.314,221.143 	"/>
	<path fill="#556080" d="M524.976,702H87.024c-8.831,0-15.989-7.158-15.989-15.988V516.214h469.928v169.798
		C540.964,694.842,533.806,702,524.976,702z"/>
	<g>
		<path fill="#FFFFFF" d="M276.121,559.098v14.491l-52.446,78.741l-2.984,2.393h55.43v14.491h-73.21v-14.491l52.446-78.74
			l3.137-2.394h-55.583v-14.491H276.121z"/>
		<path fill="#FFFFFF" d="M319.891,669.214h-18.229V559.098h18.229V669.214z"/>
		<path fill="#FFFFFF" d="M365.167,669.214h-17.934V559.098h31.671c4.678,0,9.312,0.743,13.891,2.24
			c4.579,1.498,8.688,3.738,12.327,6.722c3.64,2.983,6.579,6.601,8.819,10.83s3.366,8.983,3.366,14.272
			c0,5.585-0.951,10.634-2.842,15.169s-4.535,8.35-7.923,11.432s-7.476,5.476-12.251,7.169c-4.775,1.694-10.065,2.535-15.836,2.535
			h-13.3v39.747H365.167z M365.167,572.693v43.627h16.437c2.187,0,4.35-0.372,6.503-1.126c2.142-0.743,4.109-1.967,5.901-3.661
			c1.792-1.693,3.235-4.055,4.328-7.093s1.639-6.797,1.639-11.278c0-1.792-0.251-3.868-0.743-6.196
			c-0.503-2.339-1.519-4.579-3.06-6.721c-1.552-2.143-3.716-3.935-6.503-5.377c-2.786-1.442-6.48-2.164-11.06-2.164h-13.442V572.693
			z"/>
	</g>
	<g>
		<path fill="#C8BDB8" d="M311.464,352.286v-21.857h21.857v-21.857h-21.857v-21.857h21.857v-21.857h-21.857V243h21.857v-21.857
			h-21.857v-21.857h21.857v-21.857h-21.857v-21.857h-21.857v21.857H267.75v21.857h21.857v21.857H267.75V243h21.857v21.857H267.75
			v21.857h21.857v21.857H267.75v21.857h21.857v21.857h-43.714v54.643c0,30.13,24.513,54.643,54.643,54.643
			c30.13,0,54.643-24.513,54.643-54.643v-54.643H311.464z M333.321,406.929c0,18.076-14.71,32.785-32.786,32.785
			s-32.786-14.709-32.786-32.785v-32.786h65.571V406.929z"/>
		<path fill="#C8BDB8" d="M289.607,417.857h21.857c6.033,0,10.929-4.886,10.929-10.929c0-6.044-4.896-10.929-10.929-10.929h-21.857
			c-6.032,0-10.928,4.885-10.928,10.929C278.679,412.972,283.575,417.857,289.607,417.857z"/>
	</g>
</g>
</svg>
