<svg viewBox="0 0 24 26" fill="none" xmlns="http://www.w3.org/2000/svg">
<path d="M21.6423 5.98964L13.25 1.14434C12.4765 0.697756 11.5235 0.697755 10.75 1.14434L2.3577 5.98964C1.58419 6.43622 1.1077 7.26154 1.1077 8.1547V17.8453C1.1077 18.7385 1.58419 19.5638 2.3577 20.0104L10.75 24.8557C11.5235 25.3022 12.4765 25.3022 13.25 24.8557L21.6423 20.0104C22.4158 19.5638 22.8923 18.7385 22.8923 17.8453V8.1547C22.8923 7.26154 22.4158 6.43622 21.6423 5.98964Z" stroke="white" fill="url(#paint0_linear_6189_28041)" />
<path d="M12 7.07715C11.4047 7.07715 10.9231 7.55882 10.9231 8.15407C10.9231 8.57264 11.1629 8.93442 11.512 9.11321L9.30769 13.5387L6.90144 11.5363C7.05709 11.3491 7.15385 11.1093 7.15385 10.8464C7.15385 10.2511 6.67218 9.76946 6.07692 9.76946C5.48167 9.76946 5 10.2511 5 10.8464C5 11.4416 5.48167 11.9233 6.07692 11.9233C6.15054 11.9233 6.22626 11.9212 6.29567 11.9065L7.20433 16.231H16.7957L17.7043 11.9065C17.7737 11.9212 17.8495 11.9233 17.9231 11.9233C18.5183 11.9233 19 11.4416 19 10.8464C19 10.2511 18.5183 9.76946 17.9231 9.76946C17.3278 9.76946 16.8462 10.2511 16.8462 10.8464C16.8462 11.1093 16.9429 11.3491 17.0986 11.5363L14.6923 13.5387L12.488 9.11321C12.8371 8.93442 13.0769 8.57264 13.0769 8.15407C13.0769 7.55882 12.5953 7.07715 12 7.07715ZM7.15385 17.3079V18.1156C7.15385 18.5615 7.51563 18.9233 7.96154 18.9233H16.0385C16.4844 18.9233 16.8462 18.5615 16.8462 18.1156V17.3079H7.15385Z" fill="white"/>
<defs>
<linearGradient id="paint0_linear_6189_28041" x1="12" y1="1" x2="12" y2="25" gradientUnits="userSpaceOnUse">
<stop stop-color="#3F9AF7"/>
<stop offset="1" stop-color="#6C5DD3"/>
</linearGradient>
</defs>
</svg>
