<svg viewBox="0 0 14 12" xmlns="http://www.w3.org/2000/svg">
<path d="M7 0.0771484C6.40475 0.0771484 5.92308 0.558819 5.92308 1.15407C5.92308 1.57264 6.16286 1.93442 6.51202 2.11321L4.30769 6.53869L1.90144 4.53628C2.05709 4.34908 2.15385 4.1093 2.15385 3.84638C2.15385 3.25113 1.67218 2.76946 1.07692 2.76946C0.481671 2.76946 0 3.25113 0 3.84638C0 4.44163 0.481671 4.9233 1.07692 4.9233C1.15054 4.9233 1.22626 4.9212 1.29567 4.90647L2.20433 9.23099H11.7957L12.7043 4.90647C12.7737 4.9212 12.8495 4.9233 12.9231 4.9233C13.5183 4.9233 14 4.44163 14 3.84638C14 3.25113 13.5183 2.76946 12.9231 2.76946C12.3278 2.76946 11.8462 3.25113 11.8462 3.84638C11.8462 4.1093 11.9429 4.34908 12.0986 4.53628L9.69231 6.53869L7.48798 2.11321C7.83714 1.93442 8.07692 1.57264 8.07692 1.15407C8.07692 0.558819 7.59525 0.0771484 7 0.0771484ZM2.15385 10.3079V11.1156C2.15385 11.5615 2.51563 11.9233 2.96154 11.9233H11.0385C11.4844 11.9233 11.8462 11.5615 11.8462 11.1156V10.3079H2.15385Z" />
</svg>
