<svg width="24" height="24" viewBox="0 0 24 24" fill="none" xmlns="http://www.w3.org/2000/svg">
<path d="M19.98 5.16924C18.0693 3.63174 15.0468 3.37111 14.9175 3.36174C14.7168 3.34486 14.5256 3.45736 14.4431 3.64299C14.4356 3.65424 14.37 3.80611 14.2968 4.04236C15.5606 4.25611 17.1131 4.68549 18.5175 5.55736C18.7425 5.69611 18.8118 5.99236 18.6731 6.21736C18.5812 6.36549 18.4256 6.44611 18.2643 6.44611C18.1781 6.44611 18.09 6.42174 18.0112 6.37299C15.5962 4.87486 12.5812 4.79986 12 4.79986C11.4187 4.79986 8.40184 4.87486 5.98871 6.37299C5.76371 6.51361 5.46746 6.44424 5.32871 6.21924C5.18809 5.99236 5.25746 5.69799 5.48246 5.55736C6.88684 4.68736 8.43934 4.25611 9.70309 4.04424C9.62996 3.80611 9.56433 3.65611 9.55871 3.64299C9.47433 3.45736 9.28496 3.34111 9.08246 3.36174C8.95309 3.37111 5.93059 3.63174 3.99371 5.18986C2.98309 6.12549 0.959961 11.593 0.959961 16.3199C0.959961 16.4042 0.982461 16.4849 1.02371 16.558C2.41871 19.0105 6.22684 19.6517 7.09496 19.6799C7.09871 19.6799 7.10434 19.6799 7.10996 19.6799C7.26371 19.6799 7.40809 19.6067 7.49809 19.483L8.37559 18.2755C6.00746 17.6642 4.79809 16.6255 4.72871 16.5636C4.52996 16.3892 4.51121 16.0855 4.68746 15.8867C4.86184 15.688 5.16559 15.6692 5.36434 15.8436C5.39246 15.8699 7.61996 17.7599 12 17.7599C16.3875 17.7599 18.615 15.8624 18.6375 15.8436C18.8362 15.6711 19.1381 15.688 19.3143 15.8886C19.4887 16.0874 19.47 16.3892 19.2712 16.5636C19.2018 16.6255 17.9925 17.6642 15.6243 18.2755L16.5018 19.483C16.5918 19.6067 16.7362 19.6799 16.89 19.6799C16.8956 19.6799 16.9012 19.6799 16.905 19.6799C17.7731 19.6517 21.5812 19.0105 22.9762 16.558C23.0175 16.4849 23.04 16.4042 23.04 16.3199C23.04 11.593 21.0168 6.12549 19.98 5.16924ZM8.87996 14.3999C7.95184 14.3999 7.19996 13.5411 7.19996 12.4799C7.19996 11.4186 7.95184 10.5599 8.87996 10.5599C9.80809 10.5599 10.56 11.4186 10.56 12.4799C10.56 13.5411 9.80809 14.3999 8.87996 14.3999ZM15.12 14.3999C14.1918 14.3999 13.44 13.5411 13.44 12.4799C13.44 11.4186 14.1918 10.5599 15.12 10.5599C16.0481 10.5599 16.8 11.4186 16.8 12.4799C16.8 13.5411 16.0481 14.3999 15.12 14.3999Z" />
</svg>
