<svg fill="#000000" xmlns="http://www.w3.org/2000/svg"  viewBox="0 0 32 32" width="32px" height="32px"><path d="M 24.878906 5 L 6.933594 5 L 2.023438 11.019531 L 15.996094 27.058594 L 30.097656 11.003906 Z M 27.421875 10.976563 C 26.464844 12.082031 25.503906 12.902344 24.546875 14.066406 C 23.296875 12.382813 21.835938 11.644531 20.0625 11.644531 C 18.1875 11.539063 16.210938 11.644531 14.332031 11.539063 C 12.976563 11.328125 10.476563 10.695313 10.476563 9.539063 C 10.476563 8.277344 12.769531 7.328125 13.8125 7.117188 C 14.183594 7.046875 14.570313 7.011719 14.949219 7 L 15.417969 7 C 16.570313 7.027344 17.652344 7.285156 18.292969 7.644531 C 19.960938 8.484375 20.378906 9.84375 20.6875 11 C 22.148438 11 23.539063 11 25 11 C 25 10.203125 24.957031 8.902344 24.957031 8.167969 Z M 6.203125 12.695313 C 5.90625 12.34375 5.585938 12.019531 5.261719 11.691406 L 4.640625 10.976563 L 7.882813 7 L 9.382813 7 C 6.496094 8.492188 5.59375 11.148438 6.203125 12.695313 Z M 22.566406 7.011719 C 22.253906 7.433594 21.835938 7.855469 21.523438 8.273438 C 21.210938 7.855469 20.792969 7.433594 20.167969 7.011719 C 20.898438 7.011719 21.730469 7.011719 22.566406 7.011719 Z M 8.4375 15.339844 C 11.636719 15.550781 15.425781 15.960938 18.8125 16.0625 C 19.230469 16.0625 21.210938 16.378906 21.316406 17.328125 C 21.105469 18.695313 16.730469 19.117188 15.6875 18.484375 C 14.964844 17.652344 12.304688 16.925781 10.429688 17.628906 Z M 12.976563 20.378906 C 15.046875 21.214844 17.519531 21.117188 19.1875 20.394531 L 16.003906 24.023438 L 15.386719 23.316406 C 14.582031 22.335938 13.808594 21.386719 12.976563 20.378906 Z"/></svg>